<svg fill="none" height="564" viewBox="0 0 564 564" width="564" xmlns="http://www.w3.org/2000/svg" xmlns:xlink="http://www.w3.org/1999/xlink"><filter id="a" color-interpolation-filters="sRGB" filterUnits="userSpaceOnUse" height="417" width="432" x="66" y="78"><feFlood flood-opacity="0" result="BackgroundImageFix"/><feColorMatrix in="SourceAlpha" result="hardAlpha" type="matrix" values="0 0 0 0 0 0 0 0 0 0 0 0 0 0 0 0 0 0 127 0"/><feOffset dy="4"/><feGaussianBlur stdDeviation="4"/><feComposite in2="hardAlpha" operator="out"/><feColorMatrix type="matrix" values="0 0 0 0 0 0 0 0 0 0 0 0 0 0 0 0 0 0 0.1 0"/><feBlend in2="BackgroundImageFix" mode="normal" result="effect1_dropShadow_22_2114"/><feBlend in="SourceGraphic" in2="effect1_dropShadow_22_2114" mode="normal" result="shape"/></filter><filter id="b" color-interpolation-filters="sRGB" filterUnits="userSpaceOnUse" height="72" width="360" x="102" y="112"><feFlood flood-opacity="0" result="BackgroundImageFix"/><feColorMatrix in="SourceAlpha" result="hardAlpha" type="matrix" values="0 0 0 0 0 0 0 0 0 0 0 0 0 0 0 0 0 0 127 0"/><feOffset dy="2"/><feGaussianBlur stdDeviation="2"/><feComposite in2="hardAlpha" operator="out"/><feColorMatrix type="matrix" values="0 0 0 0 0 0 0 0 0 0 0 0 0 0 0 0 0 0 0.1 0"/><feBlend in2="BackgroundImageFix" mode="normal" result="effect1_dropShadow_22_2114"/><feBlend in="SourceGraphic" in2="effect1_dropShadow_22_2114" mode="normal" result="shape"/></filter><filter id="c" color-interpolation-filters="sRGB" filterUnits="userSpaceOnUse" height="48" width="48" x="114" y="124"><feFlood flood-opacity="0" result="BackgroundImageFix"/><feColorMatrix in="SourceAlpha" result="hardAlpha" type="matrix" values="0 0 0 0 0 0 0 0 0 0 0 0 0 0 0 0 0 0 127 0"/><feOffset dy="2"/><feGaussianBlur stdDeviation="2"/><feComposite in2="hardAlpha" operator="out"/><feColorMatrix type="matrix" values="0 0 0 0 0 0 0 0 0 0 0 0 0 0 0 0 0 0 0.1 0"/><feBlend in2="BackgroundImageFix" mode="normal" result="effect1_dropShadow_22_2114"/><feBlend in="SourceGraphic" in2="effect1_dropShadow_22_2114" mode="normal" result="shape"/></filter><pattern id="d" height="1" patternContentUnits="objectBoundingBox" width="1"><image fill="none" height="400" transform="scale(.0025)" width="400"/></pattern><filter id="e" color-interpolation-filters="sRGB" filterUnits="userSpaceOnUse" height="96" width="360" x="102" y="180"><feFlood flood-opacity="0" result="BackgroundImageFix"/><feColorMatrix in="SourceAlpha" result="hardAlpha" type="matrix" values="0 0 0 0 0 0 0 0 0 0 0 0 0 0 0 0 0 0 127 0"/><feOffset dy="2"/><feGaussianBlur stdDeviation="2"/><feComposite in2="hardAlpha" operator="out"/><feColorMatrix type="matrix" values="0 0 0 0 0 0 0 0 0 0 0 0 0 0 0 0 0 0 0.1 0"/><feBlend in2="BackgroundImageFix" mode="normal" result="effect1_dropShadow_22_2114"/><feBlend in="SourceGraphic" in2="effect1_dropShadow_22_2114" mode="normal" result="shape"/></filter><pattern id="f" height="1" patternContentUnits="objectBoundingBox" width="1"><image fill="none" height="200" transform="scale(.005)" width="200"/></pattern><pattern id="g" height="1" patternContentUnits="objectBoundingBox" width="1"><image fill="none" height="200" transform="scale(.005)" width="200"/></pattern><filter id="h" color-interpolation-filters="sRGB" filterUnits="userSpaceOnUse" height="96" width="360" x="102" y="271"><feFlood flood-opacity="0" result="BackgroundImageFix"/><feColorMatrix in="SourceAlpha" result="hardAlpha" type="matrix" values="0 0 0 0 0 0 0 0 0 0 0 0 0 0 0 0 0 0 127 0"/><feOffset dy="2"/><feGaussianBlur stdDeviation="2"/><feComposite in2="hardAlpha" operator="out"/><feColorMatrix type="matrix" values="0 0 0 0 0 0 0 0 0 0 0 0 0 0 0 0 0 0 0.1 0"/><feBlend in2="BackgroundImageFix" mode="normal" result="effect1_dropShadow_22_2114"/><feBlend in="SourceGraphic" in2="effect1_dropShadow_22_2114" mode="normal" result="shape"/></filter><pattern id="i" height="1" patternContentUnits="objectBoundingBox" width="1"><image fill="none" height="200" transform="scale(.005)" width="200"/></pattern><pattern id="j" height="1" patternContentUnits="objectBoundingBox" width="1"><image fill="none" height="200" transform="scale(.005)" width="200"/></pattern><filter id="k" color-interpolation-filters="sRGB" filterUnits="userSpaceOnUse" height="17.8588" width="16.746" x="358.191" y="324.012"><feFlood flood-opacity="0" result="BackgroundImageFix"/><feColorMatrix in="SourceAlpha" result="hardAlpha" type="matrix" values="0 0 0 0 0 0 0 0 0 0 0 0 0 0 0 0 0 0 127 0"/><feOffset dy="1"/><feGaussianBlur stdDeviation=".4"/><feColorMatrix type="matrix" values="0 0 0 0 0 0 0 0 0 0 0 0 0 0 0 0 0 0 0.5 0"/><feBlend in2="BackgroundImageFix" mode="normal" result="effect1_dropShadow_22_2114"/><feBlend in="SourceGraphic" in2="effect1_dropShadow_22_2114" mode="normal" result="shape"/></filter><filter id="l" color-interpolation-filters="sRGB" filterUnits="userSpaceOnUse" height="96" width="360" x="102" y="362"><feFlood flood-opacity="0" result="BackgroundImageFix"/><feColorMatrix in="SourceAlpha" result="hardAlpha" type="matrix" values="0 0 0 0 0 0 0 0 0 0 0 0 0 0 0 0 0 0 127 0"/><feOffset dy="2"/><feGaussianBlur stdDeviation="2"/><feComposite in2="hardAlpha" operator="out"/><feColorMatrix type="matrix" values="0 0 0 0 0 0 0 0 0 0 0 0 0 0 0 0 0 0 0.1 0"/><feBlend in2="BackgroundImageFix" mode="normal" result="effect1_dropShadow_22_2114"/><feBlend in="SourceGraphic" in2="effect1_dropShadow_22_2114" mode="normal" result="shape"/></filter><pattern id="m" height="1" patternContentUnits="objectBoundingBox" width="1"><image fill="none" height="200" transform="scale(.005)" width="200"/></pattern><pattern id="n" height="1" patternContentUnits="objectBoundingBox" width="1"><image fill="none" height="200" transform="scale(.005)" width="200"/></pattern><clipPath id="o"><rect height="88" rx="4" width="352" x="106" y="182"/></clipPath><clipPath id="p"><rect height="88" rx="4" width="352" x="106" y="273"/></clipPath><clipPath id="q"><rect height="88" rx="4" width="352" x="106" y="364"/></clipPath><rect fill="#242729" height="564" rx="10" width="564"/><rect fill="#000" fill-opacity=".5" height="564" rx="10" width="564"/><g filter="url(#a)"><rect fill="#36393b" height="401" rx="6" width="416" x="74" y="82"/><g filter="url(#b)"><rect fill="#424648" height="64" rx="4" shape-rendering="crispEdges" width="352" x="106" y="114"/><g filter="url(#c)"><rect fill="url(#d)" height="40" rx="4" shape-rendering="crispEdges" width="40" x="118" y="126"/></g><path d="m177.868 138.152v1.848h-7.406v-1.47l3.78-3.57c.401-.383.672-.709.812-.98.14-.28.21-.555.21-.826 0-.392-.135-.691-.406-.896-.261-.215-.649-.322-1.162-.322-.429 0-.817.084-1.162.252-.345.159-.635.401-.868.728l-1.652-1.064c.383-.569.91-1.013 1.582-1.33.672-.327 1.442-.49 2.31-.49.728 0 1.363.121 1.904.364.551.233.975.569 1.274 1.008.308.429.462.938.462 1.526 0 .532-.112 1.031-.336 1.498s-.658.999-1.302 1.596l-2.254 2.128zm5.108 2.016c-.812 0-1.535-.201-2.17-.602-.634-.401-1.134-.98-1.498-1.736-.354-.765-.532-1.675-.532-2.73s.178-1.96.532-2.716c.364-.765.864-1.349 1.498-1.75.635-.401 1.358-.602 2.17-.602s1.536.201 2.17.602c.635.401 1.13.985 1.484 1.75.364.756.546 1.661.546 2.716s-.182 1.965-.546 2.73c-.354.756-.849 1.335-1.484 1.736-.634.401-1.358.602-2.17.602zm0-1.918c.598 0 1.064-.257 1.4-.77.346-.513.518-1.307.518-2.38s-.172-1.867-.518-2.38c-.336-.513-.802-.77-1.4-.77-.588 0-1.054.257-1.4.77-.336.513-.504 1.307-.504 2.38s.168 1.867.504 2.38c.346.513.812.77 1.4.77zm12.542-.098v1.848h-7.406v-1.47l3.78-3.57c.402-.383.672-.709.812-.98.14-.28.21-.555.21-.826 0-.392-.135-.691-.406-.896-.261-.215-.648-.322-1.162-.322-.429 0-.816.084-1.162.252-.345.159-.634.401-.868.728l-1.652-1.064c.383-.569.91-1.013 1.582-1.33.672-.327 1.442-.49 2.31-.49.728 0 1.363.121 1.904.364.551.233.976.569 1.274 1.008.308.429.462.938.462 1.526 0 .532-.112 1.031-.336 1.498s-.658.999-1.302 1.596l-2.254 2.128zm8.258 0v1.848h-7.406v-1.47l3.78-3.57c.402-.383.672-.709.812-.98.14-.28.21-.555.21-.826 0-.392-.135-.691-.406-.896-.261-.215-.648-.322-1.162-.322-.429 0-.816.084-1.162.252-.345.159-.634.401-.868.728l-1.652-1.064c.383-.569.91-1.013 1.582-1.33.672-.327 1.442-.49 2.31-.49.728 0 1.363.121 1.904.364.551.233.976.569 1.274 1.008.308.429.462.938.462 1.526 0 .532-.112 1.031-.336 1.498s-.658.999-1.302 1.596l-2.254 2.128zm13.105.028v1.82h-7.588v-9.8h7.406v1.82h-5.152v2.128h4.55v1.764h-4.55v2.268zm5.024 1.988c-.774 0-1.526-.103-2.254-.308-.718-.215-1.297-.49-1.736-.826l.77-1.708c.42.308.92.555 1.498.742.579.187 1.158.28 1.736.28.644 0 1.12-.093 1.428-.28.308-.196.462-.453.462-.77 0-.233-.093-.425-.28-.574-.177-.159-.41-.285-.7-.378-.28-.093-.662-.196-1.148-.308-.746-.177-1.358-.355-1.834-.532s-.886-.462-1.232-.854c-.336-.392-.504-.915-.504-1.568 0-.569.154-1.083.462-1.54.308-.467.77-.835 1.386-1.106.626-.271 1.386-.406 2.282-.406.626 0 1.237.075 1.834.224.598.149 1.12.364 1.568.644l-.7 1.722c-.905-.513-1.81-.77-2.716-.77-.634 0-1.106.103-1.414.308-.298.205-.448.476-.448.812s.173.588.518.756c.355.159.892.317 1.61.476.747.177 1.358.355 1.834.532s.882.457 1.218.84c.346.383.518.901.518 1.554 0 .56-.158 1.073-.476 1.54-.308.457-.774.821-1.4 1.092-.625.271-1.386.406-2.282.406zm5.708-9.968h2.268v7.952h4.914v1.848h-7.182zm17.16 9.968c-1.017 0-1.936-.219-2.758-.658-.812-.439-1.451-1.041-1.918-1.806-.457-.775-.686-1.643-.686-2.604s.229-1.825.686-2.59c.467-.775 1.106-1.381 1.918-1.82.822-.439 1.741-.658 2.758-.658 1.018 0 1.932.219 2.744.658s1.452 1.045 1.918 1.82c.467.765.7 1.629.7 2.59s-.233 1.829-.7 2.604c-.466.765-1.106 1.367-1.918 1.806s-1.726.658-2.744.658zm0-1.932c.579 0 1.102-.131 1.568-.392.467-.271.831-.644 1.092-1.12.271-.476.406-1.017.406-1.624s-.135-1.148-.406-1.624c-.261-.476-.625-.845-1.092-1.106-.466-.271-.989-.406-1.568-.406-.578 0-1.101.135-1.568.406-.466.261-.835.63-1.106 1.106-.261.476-.392 1.017-.392 1.624s.131 1.148.392 1.624c.271.476.64.849 1.106 1.12.467.261.99.392 1.568.392zm11.491-5.88c.933 0 1.684.28 2.254.84.578.56.868 1.391.868 2.492v4.312h-2.184v-3.976c0-.597-.131-1.041-.392-1.33-.262-.299-.64-.448-1.134-.448-.551 0-.99.173-1.316.518-.327.336-.49.84-.49 1.512v3.724h-2.184v-7.532h2.086v.882c.289-.317.648-.56 1.078-.728.429-.177.9-.266 1.414-.266zm12.561 3.906c0 .028-.014.224-.042.588h-5.698c.103.467.346.835.728 1.106.383.271.859.406 1.428.406.392 0 .738-.056 1.036-.168.308-.121.593-.308.854-.56l1.162 1.26c-.709.812-1.745 1.218-3.108 1.218-.849 0-1.6-.163-2.254-.49-.653-.336-1.157-.798-1.512-1.386-.354-.588-.532-1.255-.532-2.002 0-.737.173-1.4.518-1.988.355-.597.836-1.059 1.442-1.386.616-.336 1.302-.504 2.058-.504.738 0 1.405.159 2.002.476.598.317 1.064.775 1.4 1.372.346.588.518 1.274.518 2.058zm-3.906-2.254c-.494 0-.91.14-1.246.42s-.541.663-.616 1.148h3.71c-.074-.476-.28-.854-.616-1.134-.336-.289-.746-.434-1.232-.434zm12.699 6.16c-.774 0-1.526-.103-2.254-.308-.718-.215-1.297-.49-1.736-.826l.77-1.708c.42.308.92.555 1.498.742.579.187 1.158.28 1.736.28.644 0 1.12-.093 1.428-.28.308-.196.462-.453.462-.77 0-.233-.093-.425-.28-.574-.177-.159-.41-.285-.7-.378-.28-.093-.662-.196-1.148-.308-.746-.177-1.358-.355-1.834-.532s-.886-.462-1.232-.854c-.336-.392-.504-.915-.504-1.568 0-.569.154-1.083.462-1.54.308-.467.77-.835 1.386-1.106.626-.271 1.386-.406 2.282-.406.626 0 1.237.075 1.834.224.598.149 1.12.364 1.568.644l-.7 1.722c-.905-.513-1.81-.77-2.716-.77-.634 0-1.106.103-1.414.308-.298.205-.448.476-.448.812s.173.588.518.756c.355.159.892.317 1.61.476.747.177 1.358.355 1.834.532s.882.457 1.218.84c.346.383.518.901.518 1.554 0 .56-.158 1.073-.476 1.54-.308.457-.774.821-1.4 1.092-.625.271-1.386.406-2.282.406zm10.412-.532c-.215.159-.481.28-.798.364-.308.075-.635.112-.98.112-.896 0-1.591-.229-2.086-.686-.485-.457-.728-1.129-.728-2.016v-3.094h-1.162v-1.68h1.162v-1.834h2.184v1.834h1.876v1.68h-1.876v3.066c0 .317.079.565.238.742.168.168.401.252.7.252.345 0 .639-.093.882-.28zm4.578.476c-.794 0-1.508-.163-2.142-.49-.626-.336-1.116-.798-1.47-1.386-.355-.588-.532-1.255-.532-2.002s.177-1.414.532-2.002c.354-.588.844-1.045 1.47-1.372.634-.336 1.348-.504 2.142-.504.793 0 1.502.168 2.128.504.625.327 1.115.784 1.47 1.372.354.588.532 1.255.532 2.002s-.178 1.414-.532 2.002c-.355.588-.845 1.05-1.47 1.386-.626.327-1.335.49-2.128.49zm0-1.792c.56 0 1.017-.187 1.372-.56.364-.383.546-.891.546-1.526s-.182-1.139-.546-1.512c-.355-.383-.812-.574-1.372-.574s-1.022.191-1.386.574c-.364.373-.546.877-.546 1.512s.182 1.143.546 1.526c.364.373.826.56 1.386.56zm9.229 1.792c-.802 0-1.526-.163-2.17-.49-.634-.336-1.134-.798-1.498-1.386-.354-.588-.532-1.255-.532-2.002s.178-1.414.532-2.002c.364-.588.864-1.045 1.498-1.372.644-.336 1.368-.504 2.17-.504.794 0 1.484.168 2.072.504.598.327 1.032.798 1.302 1.414l-1.694.91c-.392-.691-.956-1.036-1.694-1.036-.569 0-1.04.187-1.414.56-.373.373-.56.882-.56 1.526s.187 1.153.56 1.526c.374.373.845.56 1.414.56.747 0 1.312-.345 1.694-1.036l1.694.924c-.27.597-.704 1.064-1.302 1.4-.588.336-1.278.504-2.072.504zm7.811-3.066-1.05 1.036v1.918h-2.184v-10.388h2.184v5.88l3.192-3.024h2.604l-3.136 3.192 3.416 4.34h-2.646zm10.586-4.69c.934 0 1.685.28 2.254.84.579.56.868 1.391.868 2.492v4.312h-2.184v-3.976c0-.597-.13-1.041-.392-1.33-.261-.299-.639-.448-1.134-.448-.55 0-.989.173-1.316.518-.326.336-.49.84-.49 1.512v3.724h-2.184v-10.388h2.184v3.64c.29-.289.64-.509 1.05-.658.411-.159.859-.238 1.344-.238zm8.768 7.756c-.793 0-1.507-.163-2.142-.49-.625-.336-1.115-.798-1.47-1.386s-.532-1.255-.532-2.002.177-1.414.532-2.002.845-1.045 1.47-1.372c.635-.336 1.349-.504 2.142-.504s1.503.168 2.128.504c.625.327 1.115.784 1.47 1.372s.532 1.255.532 2.002-.177 1.414-.532 2.002-.845 1.05-1.47 1.386c-.625.327-1.335.49-2.128.49zm0-1.792c.56 0 1.017-.187 1.372-.56.364-.383.546-.891.546-1.526s-.182-1.139-.546-1.512c-.355-.383-.812-.574-1.372-.574s-1.022.191-1.386.574c-.364.373-.546.877-.546 1.512s.182 1.143.546 1.526c.364.373.826.56 1.386.56zm5.59-8.708h2.184v10.388h-2.184zm13.857 2.744c.943 0 1.689.28 2.24.84.56.551.84 1.381.84 2.492v4.312h-2.184v-3.976c0-.597-.126-1.041-.378-1.33-.243-.299-.593-.448-1.05-.448-.513 0-.919.168-1.218.504-.299.327-.448.817-.448 1.47v3.78h-2.184v-3.976c0-1.185-.476-1.778-1.428-1.778-.504 0-.905.168-1.204.504-.299.327-.448.817-.448 1.47v3.78h-2.184v-7.532h2.086v.868c.28-.317.621-.56 1.022-.728.411-.168.859-.252 1.344-.252.532 0 1.013.107 1.442.322.429.205.775.509 1.036.91.308-.392.695-.695 1.162-.91.476-.215.994-.322 1.554-.322z" fill="#fff"/><path d="m174.41 160.112c-.513 0-.999-.042-1.456-.126-.448-.093-.868-.233-1.26-.42-.383-.187-.728-.42-1.036-.7l.476-.98c.495.411.999.705 1.512.882s1.106.266 1.778.266c.775 0 1.372-.149 1.792-.448s.63-.719.63-1.26c0-.327-.103-.588-.308-.784-.205-.205-.495-.369-.868-.49-.364-.131-.784-.252-1.26-.364-.504-.103-.975-.224-1.414-.364-.429-.14-.807-.313-1.134-.518-.327-.215-.579-.481-.756-.798s-.266-.709-.266-1.176c0-.569.149-1.073.448-1.512.308-.439.737-.779 1.288-1.022.551-.252 1.199-.378 1.946-.378.457 0 .896.051 1.316.154.429.093.826.233 1.19.42.364.177.681.401.952.672l-.476.98c-.457-.392-.929-.681-1.414-.868s-1.008-.28-1.568-.28c-.747 0-1.335.159-1.764.476-.42.308-.63.742-.63 1.302 0 .345.093.625.28.84s.453.387.798.518.756.252 1.232.364c.504.112.98.238 1.428.378s.84.308 1.176.504c.345.196.616.448.812.756.196.299.294.677.294 1.134 0 .579-.149 1.083-.448 1.512-.299.42-.728.747-1.288.98s-1.227.35-2.002.35zm4.424-6.174v-.98h4.62v.98zm4.592 4.956v1.064c-.158.047-.322.079-.49.098-.158.028-.331.042-.518.042-.69 0-1.236-.196-1.638-.588-.392-.392-.588-.971-.588-1.736v-6.608l1.274-.448v6.916c0 .364.052.649.154.854.112.196.257.336.434.42.187.075.397.112.63.112.131 0 .252-.009.364-.028s.238-.051.378-.098zm4.346 1.204c-.681 0-1.278-.149-1.792-.448-.504-.299-.896-.719-1.176-1.26-.28-.551-.42-1.199-.42-1.946 0-.737.14-1.381.42-1.932.28-.56.672-.989 1.176-1.288.514-.299 1.111-.448 1.792-.448.691 0 1.288.149 1.792.448s.896.728 1.176 1.288c.28.551.42 1.195.42 1.932 0 .747-.14 1.395-.42 1.946-.28.541-.672.961-1.176 1.26s-1.101.448-1.792.448zm0-1.036c.672 0 1.19-.219 1.554-.658.364-.448.546-1.101.546-1.96 0-.849-.186-1.498-.56-1.946-.364-.448-.877-.672-1.54-.672-.653 0-1.166.224-1.54.672-.373.448-.56 1.097-.56 1.946 0 .859.182 1.512.546 1.96.364.439.882.658 1.554.658zm8.122 1.036c-.709 0-1.32-.149-1.834-.448-.504-.299-.896-.719-1.176-1.26s-.42-1.181-.42-1.918c0-.728.14-1.372.42-1.932.29-.56.696-.994 1.218-1.302.523-.308 1.139-.462 1.848-.462.486 0 .952.084 1.4.252.448.159.817.383 1.106.672l-.406.924c-.336-.261-.672-.457-1.008-.588-.326-.14-.667-.21-1.022-.21-.681 0-1.227.229-1.638.686-.401.457-.602 1.111-.602 1.96 0 .831.201 1.47.602 1.918.402.448.952.672 1.652.672.336 0 .672-.065 1.008-.196s.672-.331 1.008-.602l.406.924c-.298.28-.676.504-1.134.672-.457.159-.933.238-1.428.238zm8.709-.098-3.738-3.598 3.472-3.43h1.596l-3.864 3.766.056-.742 4.116 4.004zm-4.76 0v-10.304h1.274v10.304zm7.328 0v-10.304h1.274v4.69l-.196.098c.206-.551.532-.971.98-1.26.458-.299.98-.448 1.568-.448 1.69 0 2.534.938 2.534 2.814v4.41h-1.274v-4.34c0-.635-.126-1.097-.378-1.386-.242-.299-.634-.448-1.176-.448-.625 0-1.124.196-1.498.588-.373.383-.56.901-.56 1.554v4.032zm11.213.098c-.682 0-1.279-.149-1.792-.448-.504-.299-.896-.719-1.176-1.26-.28-.551-.42-1.199-.42-1.946 0-.737.14-1.381.42-1.932.28-.56.672-.989 1.176-1.288.513-.299 1.11-.448 1.792-.448.69 0 1.288.149 1.792.448s.896.728 1.176 1.288c.28.551.42 1.195.42 1.932 0 .747-.14 1.395-.42 1.946-.28.541-.672.961-1.176 1.26s-1.102.448-1.792.448zm0-1.036c.672 0 1.19-.219 1.554-.658.364-.448.546-1.101.546-1.96 0-.849-.187-1.498-.56-1.946-.364-.448-.878-.672-1.54-.672-.654 0-1.167.224-1.54.672-.374.448-.56 1.097-.56 1.946 0 .859.182 1.512.546 1.96.364.439.882.658 1.554.658zm5.112.938v-10.304h1.274v10.304zm3.404 0v-5.068c0-.327-.009-.653-.028-.98-.009-.336-.037-.667-.084-.994h1.204l.126 1.442-.14.07c.168-.541.457-.957.868-1.246.42-.299.915-.448 1.484-.448.681 0 1.209.168 1.582.504.383.336.625.849.728 1.54l-.336-.21c.159-.56.462-1.003.91-1.33.448-.336.985-.504 1.61-.504.784 0 1.372.233 1.764.7s.588 1.171.588 2.114v4.41h-1.274v-4.354c0-.625-.112-1.083-.336-1.372-.215-.299-.565-.448-1.05-.448-.569 0-1.017.196-1.344.588-.327.383-.49.91-.49 1.582v4.004h-1.274v-4.354c0-.625-.112-1.083-.336-1.372-.224-.299-.579-.448-1.064-.448-.579 0-1.031.196-1.358.588-.317.383-.476.91-.476 1.582v4.004zm12.821 1.666-.574-.434c.261-.28.439-.537.532-.77s.14-.476.14-.728l.364.266h-1.106v-1.554h1.554v1.078c0 .401-.065.775-.196 1.12s-.369.686-.714 1.022zm6.678-1.666v-9.968h6.37v1.064h-5.096v3.304h4.816v1.078h-4.816v3.458h5.096v1.064zm10.624.098c-.849 0-1.489-.233-1.918-.7-.42-.476-.63-1.176-.63-2.1v-4.34h1.274v4.326c0 .607.121 1.055.364 1.344.252.28.635.42 1.148.42.597 0 1.078-.191 1.442-.574.364-.392.546-.91.546-1.554v-3.962h1.288v7.042h-1.246v-1.512l.168-.07c-.187.551-.499.971-.938 1.26-.439.28-.938.42-1.498.42zm5.629-.098v-5.068c0-.327-.009-.653-.028-.98-.009-.336-.037-.667-.084-.994h1.204l.154 1.75-.154-.056c.121-.616.397-1.078.826-1.386.439-.317.929-.476 1.47-.476.131 0 .247.009.35.028.112.009.215.028.308.056l-.014 1.162c-.233-.084-.495-.126-.784-.126-.476 0-.859.103-1.148.308s-.499.467-.63.784-.196.658-.196 1.022v3.976zm7.999.098c-.681 0-1.279-.149-1.792-.448-.504-.299-.896-.719-1.176-1.26-.28-.551-.42-1.199-.42-1.946 0-.737.14-1.381.42-1.932.28-.56.672-.989 1.176-1.288.513-.299 1.111-.448 1.792-.448.691 0 1.288.149 1.792.448s.896.728 1.176 1.288c.28.551.42 1.195.42 1.932 0 .747-.14 1.395-.42 1.946-.28.541-.672.961-1.176 1.26s-1.101.448-1.792.448zm0-1.036c.672 0 1.19-.219 1.554-.658.364-.448.546-1.101.546-1.96 0-.849-.187-1.498-.56-1.946-.364-.448-.877-.672-1.54-.672-.653 0-1.167.224-1.54.672s-.56 1.097-.56 1.946c0 .859.182 1.512.546 1.96.364.439.882.658 1.554.658zm5.112 3.962v-8.092c0-.327-.009-.653-.028-.98-.009-.336-.037-.667-.084-.994h1.204l.126 1.442-.112.182c.159-.579.462-1.022.91-1.33.448-.317.985-.476 1.61-.476.616 0 1.158.159 1.624.476.476.308.845.737 1.106 1.288.271.551.406 1.195.406 1.932s-.135 1.381-.406 1.932c-.261.541-.625.961-1.092 1.26-.466.289-1.012.434-1.638.434-.625 0-1.162-.154-1.61-.462-.448-.317-.751-.761-.91-1.33l.168-.154v4.872zm3.36-3.962c.663 0 1.176-.224 1.54-.672s.546-1.087.546-1.918-.182-1.479-.546-1.946-.877-.7-1.54-.7c-.672 0-1.19.229-1.554.686-.364.448-.546 1.092-.546 1.932s.182 1.489.546 1.946c.364.448.882.672 1.554.672zm10.913.112c-.308.289-.704.518-1.19.686-.485.159-.98.238-1.484.238-.737 0-1.372-.145-1.904-.434s-.942-.705-1.232-1.246c-.289-.551-.434-1.204-.434-1.96 0-.728.14-1.367.42-1.918.29-.551.686-.98 1.19-1.288.504-.317 1.083-.476 1.736-.476.635 0 1.176.14 1.624.42.458.28.803.681 1.036 1.204.243.513.364 1.129.364 1.848v.224h-5.25v-.784h4.522l-.392.504c.019-.793-.135-1.4-.462-1.82-.326-.42-.802-.63-1.428-.63-.653 0-1.166.233-1.54.7-.364.457-.546 1.101-.546 1.932 0 .896.196 1.573.588 2.03.392.448.971.672 1.736.672.411 0 .803-.065 1.176-.196.374-.14.728-.345 1.064-.616z" fill="#fff" fill-opacity=".85"/><g fill="#ffbf00"><path d="m309.961 161.071-3.961-2.071-3.961 2.071.759-4.334-3.215-3.086 4.44-.63 1.977-3.938 1.978 3.938 4.439.63-3.214 3.086z"/><path d="m325.961 161.071-3.961-2.071-3.961 2.071.759-4.334-3.215-3.086 4.44-.63 1.977-3.938 1.978 3.938 4.439.63-3.214 3.086z"/><path d="m341.961 161.071-3.961-2.071-3.961 2.071.759-4.334-3.215-3.086 4.44-.63 1.977-3.938 1.978 3.938 4.439.63-3.214 3.086z"/></g></g><g filter="url(#e)"><g clip-path="url(#o)"><rect fill="#424648" height="88" rx="4" width="352" x="106" y="182"/><path d="m114 190h24v24h-24z" fill="url(#f)"/><path d="m149.304 198.24h-3.248v-1.54h8.316v1.54h-3.248v8.26h-1.82zm9.682-1.54v9.8h-1.82v-8.274h-2.072v-1.526z" fill="#fff"/><g opacity=".6"><path d="m114 218h24v24h-24z" fill="url(#g)"/><path d="m154.26 229.404c.541.177.971.476 1.288.896.317.411.476.924.476 1.54 0 .849-.327 1.507-.98 1.974-.653.457-1.605.686-2.856.686h-4.872v-9.8h4.592c1.157 0 2.049.229 2.674.686.625.448.938 1.069.938 1.862 0 .485-.112.915-.336 1.288s-.532.663-.924.868zm-5.124-3.276v2.702h2.576c.635 0 1.12-.112 1.456-.336.345-.233.518-.569.518-1.008 0-.448-.173-.784-.518-1.008-.336-.233-.821-.35-1.456-.35zm2.94 6.944c1.409 0 2.114-.471 2.114-1.414s-.705-1.414-2.114-1.414h-2.94v2.828zm13.24-.098v1.526h-7.35v-9.8h7.154v1.526h-5.334v2.548h4.732v1.498h-4.732v2.702zm4.017-6.734h-3.248v-1.54h8.316v1.54h-3.248v8.26h-1.82zm13.378 3.164c.542.177.971.476 1.288.896.318.411.476.924.476 1.54 0 .849-.326 1.507-.98 1.974-.653.457-1.605.686-2.856.686h-4.872v-9.8h4.592c1.158 0 2.049.229 2.674.686.626.448.938 1.069.938 1.862 0 .485-.112.915-.336 1.288s-.532.663-.924.868zm-5.124-3.276v2.702h2.576c.635 0 1.12-.112 1.456-.336.346-.233.518-.569.518-1.008 0-.448-.172-.784-.518-1.008-.336-.233-.821-.35-1.456-.35zm2.94 6.944c1.41 0 2.114-.471 2.114-1.414s-.704-1.414-2.114-1.414h-2.94v2.828zm10.469 1.568c-.999 0-1.9-.215-2.702-.644-.803-.439-1.433-1.041-1.89-1.806-.458-.775-.686-1.638-.686-2.59s.228-1.811.686-2.576c.457-.775 1.087-1.377 1.89-1.806.802-.439 1.703-.658 2.702-.658.998 0 1.899.219 2.702.658.802.429 1.432 1.027 1.89 1.792.457.765.686 1.629.686 2.59s-.229 1.825-.686 2.59c-.458.765-1.088 1.367-1.89 1.806-.803.429-1.704.644-2.702.644zm0-1.596c.653 0 1.241-.145 1.764-.434.522-.299.933-.709 1.232-1.232.298-.532.448-1.125.448-1.778s-.15-1.241-.448-1.764c-.299-.532-.71-.943-1.232-1.232-.523-.299-1.111-.448-1.764-.448-.654 0-1.242.149-1.764.448-.523.289-.934.7-1.232 1.232-.299.523-.448 1.111-.448 1.764s.149 1.246.448 1.778c.298.523.709.933 1.232 1.232.522.289 1.11.434 1.764.434zm11.785 1.596c-.999 0-1.9-.215-2.702-.644-.803-.439-1.433-1.041-1.89-1.806-.458-.775-.686-1.638-.686-2.59s.228-1.811.686-2.576c.457-.775 1.087-1.377 1.89-1.806.802-.439 1.703-.658 2.702-.658.998 0 1.899.219 2.702.658.802.429 1.432 1.027 1.89 1.792.457.765.686 1.629.686 2.59s-.229 1.825-.686 2.59c-.458.765-1.088 1.367-1.89 1.806-.803.429-1.704.644-2.702.644zm0-1.596c.653 0 1.241-.145 1.764-.434.522-.299.933-.709 1.232-1.232.298-.532.448-1.125.448-1.778s-.15-1.241-.448-1.764c-.299-.532-.71-.943-1.232-1.232-.523-.299-1.111-.448-1.764-.448-.654 0-1.242.149-1.764.448-.523.289-.934.7-1.232 1.232-.299.523-.448 1.111-.448 1.764s.149 1.246.448 1.778c.298.523.709.933 1.232 1.232.522.289 1.11.434 1.764.434zm16.209 1.456-.014-6.496-3.22 5.376h-.812l-3.22-5.292v6.412h-1.736v-9.8h1.498l3.892 6.496 3.822-6.496h1.498l.014 9.8zm10.226-8.26h-3.248v-1.54h8.316v1.54h-3.248v8.26h-1.82zm13.784 6.734v1.526h-7.35v-9.8h7.154v1.526h-5.334v2.548h4.732v1.498h-4.732v2.702zm8.385-.742h-4.9l-.966 2.268h-1.876l4.41-9.8h1.792l4.424 9.8h-1.904zm-.602-1.428-1.848-4.284-1.834 4.284zm13.734 3.696-.014-6.496-3.22 5.376h-.812l-3.22-5.292v6.412h-1.736v-9.8h1.498l3.892 6.496 3.822-6.496h1.498l.014 9.8z" fill="#fff"/></g><path d="m150.86 258.096c-.864 0-1.608-.172-2.232-.516-.616-.352-1.088-.852-1.416-1.5-.328-.656-.492-1.444-.492-2.364 0-.912.164-1.692.492-2.34.328-.656.796-1.156 1.404-1.5.616-.344 1.34-.516 2.172-.516.592 0 1.14.088 1.644.264s.94.44 1.308.792l-.42.84c-.408-.336-.812-.58-1.212-.732-.392-.152-.828-.228-1.308-.228-.952 0-1.68.292-2.184.876-.496.584-.744 1.432-.744 2.544 0 1.136.256 2 .768 2.592.512.584 1.264.876 2.256.876.4 0 .792-.036 1.176-.108s.732-.172 1.044-.3l-.264.516v-2.928h-2.064v-.852h3.072v3.996c-.232.12-.512.224-.84.312-.32.088-.668.156-1.044.204s-.748.072-1.116.072zm4.853-.096v-4.344c0-.28-.008-.56-.024-.84-.008-.288-.032-.572-.072-.852h1.032l.132 1.5-.132-.048c.104-.528.34-.924.708-1.188.376-.272.796-.408 1.26-.408.112 0 .212.008.3.024.096.008.184.024.264.048l-.012.996c-.2-.072-.424-.108-.672-.108-.408 0-.736.088-.984.264s-.428.4-.54.672-.168.564-.168.876v3.408zm6.856.084c-.584 0-1.096-.128-1.536-.384-.432-.256-.768-.616-1.008-1.08-.24-.472-.36-1.028-.36-1.668 0-.632.12-1.184.36-1.656.24-.48.576-.848 1.008-1.104.44-.256.952-.384 1.536-.384.592 0 1.104.128 1.536.384s.768.624 1.008 1.104c.24.472.36 1.024.36 1.656 0 .64-.12 1.196-.36 1.668-.24.464-.576.824-1.008 1.08s-.944.384-1.536.384zm0-.888c.576 0 1.02-.188 1.332-.564.312-.384.468-.944.468-1.68 0-.728-.16-1.284-.48-1.668-.312-.384-.752-.576-1.32-.576-.56 0-1 .192-1.32.576s-.48.94-.48 1.668c0 .736.156 1.296.468 1.68.312.376.756.564 1.332.564zm6.53.888c-.728 0-1.276-.2-1.644-.6-.36-.408-.54-1.008-.54-1.8v-3.72h1.092v3.708c0 .52.104.904.312 1.152.216.24.544.36.984.36.512 0 .924-.164 1.236-.492.312-.336.468-.78.468-1.332v-3.396h1.104v6.036h-1.068v-1.296l.144-.06c-.16.472-.428.832-.804 1.08-.376.24-.804.36-1.284.36zm4.825 2.508v-6.936c0-.28-.008-.56-.024-.84-.008-.288-.032-.572-.072-.852h1.032l.108 1.236-.096.156c.136-.496.396-.876.78-1.14.384-.272.844-.408 1.38-.408.528 0 .992.136 1.392.408.408.264.724.632.948 1.104.232.472.348 1.024.348 1.656s-.116 1.184-.348 1.656c-.224.464-.536.824-.936 1.08-.4.248-.868.372-1.404.372s-.996-.132-1.38-.396c-.384-.272-.644-.652-.78-1.14l.144-.132v4.176zm2.88-3.396c.568 0 1.008-.192 1.32-.576s.468-.932.468-1.644-.156-1.268-.468-1.668-.752-.6-1.32-.6c-.576 0-1.02.196-1.332.588-.312.384-.468.936-.468 1.656s.156 1.276.468 1.668c.312.384.756.576 1.332.576zm7.646.804v-8.544h3.504c.864 0 1.54.196 2.028.588.496.384.744.932.744 1.644 0 .496-.136.916-.408 1.26-.264.336-.632.576-1.104.72v-.096c.536.104.956.34 1.26.708s.456.832.456 1.392c0 .744-.252 1.32-.756 1.728-.496.4-1.2.6-2.112.6zm1.092-.9h2.424c.648 0 1.124-.12 1.428-.36s.456-.612.456-1.116-.156-.88-.468-1.128c-.304-.248-.776-.372-1.416-.372h-2.424zm0-3.9h2.232c.624 0 1.092-.12 1.404-.36s.468-.6.468-1.08c0-.464-.156-.812-.468-1.044-.304-.24-.772-.36-1.404-.36h-2.232z" fill="#fff" fill-opacity=".85"/><rect fill="#000" fill-opacity=".3" height="50" rx="4" width="20" x="430" y="190"/><g fill="#fff"><path d="m443.214 205.46v1.54h-7.224v-1.218l3.892-3.696c.439-.42.733-.784.882-1.092.159-.317.238-.63.238-.938 0-.457-.154-.807-.462-1.05s-.761-.364-1.358-.364c-.999 0-1.764.341-2.296 1.022l-1.274-.98c.383-.513.896-.91 1.54-1.19.653-.289 1.381-.434 2.184-.434 1.064 0 1.913.252 2.548.756s.952 1.19.952 2.058c0 .532-.112 1.031-.336 1.498s-.653.999-1.288 1.596l-2.618 2.492z"/><path d="m439.704 232.14c-.784 0-1.484-.196-2.1-.588-.616-.401-1.101-.98-1.456-1.736-.355-.765-.532-1.671-.532-2.716s.177-1.946.532-2.702c.355-.765.84-1.344 1.456-1.736.616-.401 1.316-.602 2.1-.602s1.484.201 2.1.602c.625.392 1.115.971 1.47 1.736.355.756.532 1.657.532 2.702s-.177 1.951-.532 2.716c-.355.756-.845 1.335-1.47 1.736-.616.392-1.316.588-2.1.588zm0-1.582c.7 0 1.251-.289 1.652-.868.411-.579.616-1.442.616-2.59s-.205-2.011-.616-2.59c-.401-.579-.952-.868-1.652-.868-.691 0-1.241.289-1.652.868-.401.579-.602 1.442-.602 2.59s.201 2.011.602 2.59c.411.579.961.868 1.652.868z"/></g></g></g><g filter="url(#h)"><g clip-path="url(#p)"><rect fill="#525556" height="88" rx="4" width="352" x="106" y="273"/><path d="m114 281h24v24h-24z" fill="url(#i)"/><path d="m149.136 289.226v2.982h4.732v1.54h-4.732v3.752h-1.82v-9.8h7.154v1.526zm11.031.714c.943 0 1.699.275 2.268.826.57.551.854 1.367.854 2.45v4.284h-1.75v-4.06c0-.653-.154-1.143-.462-1.47-.308-.336-.746-.504-1.316-.504-.644 0-1.152.196-1.526.588-.373.383-.56.938-.56 1.666v3.78h-1.75v-7.476h1.666v.966c.29-.345.654-.607 1.092-.784.439-.177.934-.266 1.484-.266zm8.198 0c1.102 0 1.942.266 2.52.798.588.523.882 1.316.882 2.38v4.382h-1.652v-.91c-.214.327-.522.579-.924.756-.392.168-.868.252-1.428.252s-1.05-.093-1.47-.28c-.42-.196-.746-.462-.98-.798-.224-.345-.336-.733-.336-1.162 0-.672.248-1.209.742-1.61.504-.411 1.293-.616 2.366-.616h1.932v-.112c0-.523-.158-.924-.476-1.204-.308-.28-.77-.42-1.386-.42-.42 0-.835.065-1.246.196-.401.131-.742.313-1.022.546l-.686-1.274c.392-.299.864-.527 1.414-.686.551-.159 1.134-.238 1.75-.238zm-.238 6.384c.439 0 .826-.098 1.162-.294.346-.205.588-.495.728-.868v-.868h-1.806c-1.008 0-1.512.331-1.512.994 0 .317.126.569.378.756s.602.28 1.05.28zm10.38.77c-.205.168-.457.294-.756.378-.289.084-.597.126-.924.126-.821 0-1.456-.215-1.904-.644s-.672-1.055-.672-1.876v-3.598h-1.232v-1.4h1.232v-1.708h1.75v1.708h2.002v1.4h-2.002v3.556c0 .364.089.644.266.84.178.187.434.28.77.28.392 0 .719-.103.98-.308zm1.44-7.07h1.75v7.476h-1.75zm.882-1.232c-.318 0-.584-.098-.798-.294-.215-.205-.322-.457-.322-.756s.107-.546.322-.742c.214-.205.48-.308.798-.308.317 0 .583.098.798.294.214.187.322.425.322.714 0 .308-.108.569-.322.784-.206.205-.472.308-.798.308zm6.595 8.806c-.775 0-1.47-.163-2.086-.49s-1.097-.779-1.442-1.358c-.346-.588-.518-1.251-.518-1.988s.172-1.395.518-1.974c.345-.579.821-1.031 1.428-1.358.616-.327 1.316-.49 2.1-.49.737 0 1.381.149 1.932.448.56.299.98.728 1.26 1.288l-1.344.784c-.215-.345-.486-.602-.812-.77-.318-.177-.668-.266-1.05-.266-.654 0-1.195.215-1.624.644-.43.42-.644.985-.644 1.694s.21 1.279.63 1.708c.429.42.975.63 1.638.63.382 0 .732-.084 1.05-.252.326-.177.597-.439.812-.784l1.344.784c-.29.56-.714.994-1.274 1.302-.551.299-1.19.448-1.918.448z" fill="#fff"/><g opacity=".6"><path d="m114 309h24v24h-24z" fill="url(#j)"/><path d="m154.008 320.488h1.722v3.906c-.504.401-1.092.709-1.764.924s-1.363.322-2.072.322c-.999 0-1.899-.215-2.702-.644-.803-.439-1.433-1.041-1.89-1.806s-.686-1.629-.686-2.59.229-1.825.686-2.59 1.087-1.363 1.89-1.792c.812-.439 1.722-.658 2.73-.658.821 0 1.568.135 2.24.406s1.237.667 1.694 1.19l-1.148 1.12c-.747-.747-1.647-1.12-2.702-1.12-.691 0-1.307.145-1.848.434-.532.289-.952.695-1.26 1.218-.299.523-.448 1.12-.448 1.792 0 .653.149 1.241.448 1.764.308.523.728.933 1.26 1.232.541.299 1.153.448 1.834.448.765 0 1.437-.168 2.016-.504zm6.81-2.548c1.102 0 1.942.266 2.52.798.588.523.882 1.316.882 2.38v4.382h-1.652v-.91c-.214.327-.522.579-.924.756-.392.168-.868.252-1.428.252s-1.05-.093-1.47-.28c-.42-.196-.746-.462-.98-.798-.224-.345-.336-.733-.336-1.162 0-.672.248-1.209.742-1.61.504-.411 1.293-.616 2.366-.616h1.932v-.112c0-.523-.158-.924-.476-1.204-.308-.28-.77-.42-1.386-.42-.42 0-.835.065-1.246.196-.401.131-.742.313-1.022.546l-.686-1.274c.392-.299.864-.527 1.414-.686.551-.159 1.134-.238 1.75-.238zm-.238 6.384c.439 0 .826-.098 1.162-.294.346-.205.588-.495.728-.868v-.868h-1.806c-1.008 0-1.512.331-1.512.994 0 .317.126.569.378.756s.602.28 1.05.28zm5.886-6.3h1.75v7.476h-1.75zm.882-1.232c-.317 0-.583-.098-.798-.294-.214-.205-.322-.457-.322-.756s.108-.546.322-.742c.215-.205.481-.308.798-.308.318 0 .584.098.798.294.215.187.322.425.322.714 0 .308-.107.569-.322.784-.205.205-.471.308-.798.308zm12.601 1.148c.943 0 1.69.275 2.24.826.551.541.826 1.358.826 2.45v4.284h-1.75v-4.06c0-.653-.144-1.143-.434-1.47-.289-.336-.704-.504-1.246-.504-.588 0-1.059.196-1.414.588-.354.383-.532.933-.532 1.652v3.794h-1.75v-4.06c0-.653-.144-1.143-.434-1.47-.289-.336-.704-.504-1.246-.504-.597 0-1.073.191-1.428.574-.345.383-.518.938-.518 1.666v3.794h-1.75v-7.476h1.666v.952c.28-.336.63-.593 1.05-.77s.887-.266 1.4-.266c.56 0 1.055.107 1.484.322.439.205.784.513 1.036.924.308-.392.705-.695 1.19-.91.486-.224 1.022-.336 1.61-.336zm5.303.084h1.75v7.476h-1.75zm.882-1.232c-.318 0-.584-.098-.798-.294-.215-.205-.322-.457-.322-.756s.107-.546.322-.742c.214-.205.48-.308.798-.308.317 0 .583.098.798.294.214.187.322.425.322.714 0 .308-.108.569-.322.784-.206.205-.472.308-.798.308zm7.406 1.148c.943 0 1.699.275 2.268.826.57.551.854 1.367.854 2.45v4.284h-1.75v-4.06c0-.653-.154-1.143-.462-1.47-.308-.336-.746-.504-1.316-.504-.644 0-1.152.196-1.526.588-.373.383-.56.938-.56 1.666v3.78h-1.75v-7.476h1.666v.966c.29-.345.654-.607 1.092-.784.439-.177.934-.266 1.484-.266zm16.072 2.548h1.722v3.906c-.504.401-1.092.709-1.764.924s-1.363.322-2.072.322c-.999 0-1.9-.215-2.702-.644-.803-.439-1.433-1.041-1.89-1.806-.458-.765-.686-1.629-.686-2.59s.228-1.825.686-2.59c.457-.765 1.087-1.363 1.89-1.792.812-.439 1.722-.658 2.73-.658.821 0 1.568.135 2.24.406s1.236.667 1.694 1.19l-1.148 1.12c-.747-.747-1.648-1.12-2.702-1.12-.691 0-1.307.145-1.848.434-.532.289-.952.695-1.26 1.218-.299.523-.448 1.12-.448 1.792 0 .653.149 1.241.448 1.764.308.523.728.933 1.26 1.232.541.299 1.152.448 1.834.448.765 0 1.437-.168 2.016-.504zm3.954-5.376h1.75v10.388h-1.75zm6.903 2.828c1.101 0 1.941.266 2.52.798.588.523.882 1.316.882 2.38v4.382h-1.652v-.91c-.215.327-.523.579-.924.756-.392.168-.868.252-1.428.252s-1.05-.093-1.47-.28c-.42-.196-.747-.462-.98-.798-.224-.345-.336-.733-.336-1.162 0-.672.247-1.209.742-1.61.504-.411 1.293-.616 2.366-.616h1.932v-.112c0-.523-.159-.924-.476-1.204-.308-.28-.77-.42-1.386-.42-.42 0-.835.065-1.246.196-.401.131-.742.313-1.022.546l-.686-1.274c.392-.299.863-.527 1.414-.686s1.134-.238 1.75-.238zm-.238 6.384c.439 0 .826-.098 1.162-.294.345-.205.588-.495.728-.868v-.868h-1.806c-1.008 0-1.512.331-1.512.994 0 .317.126.569.378.756s.602.28 1.05.28zm13.276-9.212v10.388h-1.68v-.966c-.289.355-.649.621-1.078.798-.42.177-.887.266-1.4.266-.719 0-1.367-.159-1.946-.476-.569-.317-1.017-.765-1.344-1.344-.327-.588-.49-1.26-.49-2.016s.163-1.423.49-2.002.775-1.027 1.344-1.344c.579-.317 1.227-.476 1.946-.476.495 0 .947.084 1.358.252s.761.42 1.05.756v-3.836zm-3.948 8.988c.42 0 .798-.093 1.134-.28.336-.196.602-.471.798-.826s.294-.765.294-1.232-.098-.877-.294-1.232-.462-.625-.798-.812c-.336-.196-.714-.294-1.134-.294s-.798.098-1.134.294c-.336.187-.602.457-.798.812s-.294.765-.294 1.232.098.877.294 1.232.462.63.798.826c.336.187.714.28 1.134.28zm6.237-6.076h1.75v7.476h-1.75zm.882-1.232c-.317 0-.583-.098-.798-.294-.214-.205-.322-.457-.322-.756s.108-.546.322-.742c.215-.205.481-.308.798-.308.318 0 .584.098.798.294.215.187.322.425.322.714 0 .308-.107.569-.322.784-.205.205-.471.308-.798.308zm6.021 1.148c1.102 0 1.942.266 2.52.798.588.523.882 1.316.882 2.38v4.382h-1.652v-.91c-.214.327-.522.579-.924.756-.392.168-.868.252-1.428.252s-1.05-.093-1.47-.28c-.42-.196-.746-.462-.98-.798-.224-.345-.336-.733-.336-1.162 0-.672.248-1.209.742-1.61.504-.411 1.293-.616 2.366-.616h1.932v-.112c0-.523-.158-.924-.476-1.204-.308-.28-.77-.42-1.386-.42-.42 0-.835.065-1.246.196-.401.131-.742.313-1.022.546l-.686-1.274c.392-.299.864-.527 1.414-.686.551-.159 1.134-.238 1.75-.238zm-.238 6.384c.439 0 .826-.098 1.162-.294.346-.205.588-.495.728-.868v-.868h-1.806c-1.008 0-1.512.331-1.512.994 0 .317.126.569.378.756s.602.28 1.05.28zm10.38.77c-.205.168-.457.294-.756.378-.289.084-.597.126-.924.126-.821 0-1.456-.215-1.904-.644s-.672-1.055-.672-1.876v-3.598h-1.232v-1.4h1.232v-1.708h1.75v1.708h2.002v1.4h-2.002v3.556c0 .364.089.644.266.84.178.187.434.28.77.28.392 0 .719-.103.98-.308zm4.554.504c-.756 0-1.438-.163-2.044-.49-.607-.327-1.083-.779-1.428-1.358-.336-.588-.504-1.251-.504-1.988s.168-1.395.504-1.974c.345-.579.821-1.031 1.428-1.358.606-.327 1.288-.49 2.044-.49.765 0 1.451.163 2.058.49.606.327 1.078.779 1.414 1.358.345.579.518 1.237.518 1.974s-.173 1.4-.518 1.988c-.336.579-.808 1.031-1.414 1.358-.607.327-1.293.49-2.058.49zm0-1.498c.644 0 1.176-.215 1.596-.644s.63-.994.63-1.694-.21-1.265-.63-1.694-.952-.644-1.596-.644-1.176.215-1.596.644c-.411.429-.616.994-.616 1.694s.205 1.265.616 1.694c.42.429.952.644 1.596.644zm7.329-4.984c.504-.784 1.391-1.176 2.66-1.176v1.666c-.149-.028-.285-.042-.406-.042-.681 0-1.213.201-1.596.602-.383.392-.574.961-.574 1.708v3.626h-1.75v-7.476h1.666zm6.482 6.482c-.607 0-1.199-.079-1.778-.238s-1.041-.359-1.386-.602l.672-1.33c.336.224.737.406 1.204.546.476.131.943.196 1.4.196 1.045 0 1.568-.275 1.568-.826 0-.261-.135-.443-.406-.546-.261-.103-.686-.201-1.274-.294-.616-.093-1.12-.201-1.512-.322-.383-.121-.719-.331-1.008-.63-.28-.308-.42-.733-.42-1.274 0-.709.294-1.274.882-1.694.597-.429 1.4-.644 2.408-.644.513 0 1.027.061 1.54.182.513.112.933.266 1.26.462l-.672 1.33c-.635-.373-1.349-.56-2.142-.56-.513 0-.905.079-1.176.238-.261.149-.392.35-.392.602 0 .28.14.481.42.602.289.112.733.219 1.33.322.597.093 1.087.201 1.47.322s.709.327.98.616c.28.289.42.7.42 1.232 0 .7-.303 1.26-.91 1.68s-1.433.63-2.478.63z" fill="#fff"/></g><path d="m147.032 349v-8.544h5.34v.924h-4.248v2.82h4.008v.924h-4.008v3.876zm6.665 0v-6.036h1.092v6.036zm-.096-8.64h1.284v1.188h-1.284zm3.014 8.64v-4.344c0-.28-.008-.56-.024-.84-.008-.288-.032-.572-.072-.852h1.032l.108 1.236-.12.072c.176-.472.456-.832.84-1.08.392-.256.84-.384 1.344-.384 1.448 0 2.172.804 2.172 2.412v3.78h-1.092v-3.72c0-.544-.108-.94-.324-1.188-.208-.256-.544-.384-1.008-.384-.536 0-.964.168-1.284.504-.32.328-.48.772-.48 1.332v3.456zm9.383.084c-.528 0-.996-.124-1.404-.372-.4-.256-.712-.616-.936-1.08-.224-.472-.336-1.024-.336-1.656s.112-1.184.336-1.656c.232-.472.548-.84.948-1.104.408-.272.872-.408 1.392-.408.544 0 1.008.136 1.392.408.384.264.644.644.78 1.14l-.144.084v-1.476h1.08v6.036h-1.08v-1.512l.144.06c-.136.488-.396.868-.78 1.14-.384.264-.848.396-1.392.396zm.24-.888c.576 0 1.016-.192 1.32-.576.312-.392.468-.948.468-1.668s-.156-1.272-.468-1.656c-.312-.392-.752-.588-1.32-.588s-1.012.2-1.332.6-.48.956-.48 1.668.16 1.26.48 1.644.764.576 1.332.576zm4.686.804v-8.832h1.092v8.832zm4.994.084c-1.032 0-1.852-.26-2.46-.78l.348-.792c.32.248.652.432.996.552.352.112.736.168 1.152.168.432 0 .76-.072.984-.216.232-.152.348-.368.348-.648 0-.224-.08-.4-.24-.528-.152-.136-.408-.248-.768-.336l-1.008-.24c-.52-.112-.92-.312-1.2-.6-.272-.288-.408-.636-.408-1.044 0-.352.096-.664.288-.936.2-.272.476-.484.828-.636.352-.16.768-.24 1.248-.24.424 0 .824.068 1.2.204.384.136.708.332.972.588l-.348.78c-.288-.24-.584-.416-.888-.528-.304-.12-.62-.18-.948-.18-.408 0-.728.08-.96.24-.224.16-.336.376-.336.648 0 .232.072.416.216.552s.372.244.684.324l1.02.252c.576.12 1 .32 1.272.6.272.272.408.624.408 1.056 0 .528-.216.952-.648 1.272-.432.312-1.016.468-1.752.468z" fill="#fff" fill-opacity=".85"/><rect fill="#000" fill-opacity=".3" height="50" rx="4" width="20" x="430" y="281"/><path d="m443.214 296.46v1.54h-7.224v-1.218l3.892-3.696c.439-.42.733-.784.882-1.092.159-.317.238-.63.238-.938 0-.457-.154-.807-.462-1.05s-.761-.364-1.358-.364c-.999 0-1.764.341-2.296 1.022l-1.274-.98c.383-.513.896-.91 1.54-1.19.653-.289 1.381-.434 2.184-.434 1.064 0 1.913.252 2.548.756s.952 1.19.952 2.058c0 .532-.112 1.031-.336 1.498s-.653.999-1.288 1.596l-2.618 2.492z" fill="#fff"/><path d="m439.704 323.14c-.784 0-1.484-.196-2.1-.588-.616-.401-1.101-.98-1.456-1.736-.355-.765-.532-1.671-.532-2.716s.177-1.946.532-2.702c.355-.765.84-1.344 1.456-1.736.616-.401 1.316-.602 2.1-.602s1.484.201 2.1.602c.625.392 1.115.971 1.47 1.736.355.756.532 1.657.532 2.702s-.177 1.951-.532 2.716c-.355.756-.845 1.335-1.47 1.736-.616.392-1.316.588-2.1.588zm0-1.582c.7 0 1.251-.289 1.652-.868.411-.579.616-1.442.616-2.59s-.205-2.011-.616-2.59c-.401-.579-.952-.868-1.652-.868-.691 0-1.241.289-1.652.868-.401.579-.602 1.442-.602 2.59s.201 2.011.602 2.59c.411.579.961.868 1.652.868z" fill="#fff"/><g filter="url(#k)"><path d="m362.27 336.28c-.28-.36-.63-1.09-1.24-2-.35-.5-1.21-1.45-1.47-1.94-.188-.298-.242-.66-.15-1 .157-.646.769-1.074 1.43-1 .511.103.98.353 1.35.72.258.243.496.507.71.79.16.2.2.28.38.51s.3.46.21.12c-.07-.5-.19-1.34-.36-2.09-.13-.57-.16-.66-.28-1.09s-.19-.79-.32-1.28c-.119-.481-.212-.969-.28-1.46-.126-.628-.034-1.281.26-1.85.349-.329.862-.415 1.3-.22.44.325.769.78.94 1.3.262.64.437 1.313.52 2 .16 1 .47 2.46.48 2.76 0-.37-.07-1.15 0-1.5.069-.365.323-.668.67-.8.298-.091.613-.112.92-.06.31.065.585.243.77.5.232.583.36 1.203.38 1.83.027-.549.121-1.093.28-1.62.167-.235.411-.405.69-.48.33-.06.669-.06 1 0 .271.091.508.262.68.49.212.53.34 1.09.38 1.66 0 .14.07-.39.29-.74.114-.339.401-.592.752-.663.351-.07.713.052.95.32.237.269.312.644.198.983v1.06 1.2c-.037.585-.117 1.167-.24 1.74-.174.507-.416.988-.72 1.43-.486.54-.887 1.15-1.19 1.81-.075.328-.109.664-.1 1-.001.311.039.62.12.92-.409.043-.821.043-1.23 0-.39-.06-.87-.84-1-1.08-.064-.129-.196-.21-.34-.21s-.276.081-.34.21c-.22.38-.71 1.07-1.05 1.11-.67.08-2.05 0-3.14 0 0 0 .18-1-.23-1.36s-.83-.78-1.14-1.06z" fill="#fff"/><path d="m362.27 336.28c-.28-.36-.63-1.09-1.24-2-.35-.5-1.21-1.45-1.47-1.94-.188-.298-.242-.66-.15-1 .157-.646.769-1.074 1.43-1 .511.103.98.353 1.35.72.258.243.496.507.71.79.16.2.2.28.38.51s.3.46.21.12c-.07-.5-.19-1.34-.36-2.09-.13-.57-.16-.66-.28-1.09s-.19-.79-.32-1.28c-.119-.481-.212-.969-.28-1.46-.126-.628-.034-1.281.26-1.85.349-.329.862-.415 1.3-.22.44.325.769.78.94 1.3.262.64.437 1.313.52 2 .16 1 .47 2.46.48 2.76 0-.37-.07-1.15 0-1.5.069-.365.323-.668.67-.8.298-.091.613-.112.92-.06.31.065.585.243.77.5.232.583.36 1.203.38 1.83.027-.549.121-1.093.28-1.62.167-.235.411-.405.69-.48.33-.06.669-.06 1 0 .271.091.508.262.68.49.212.53.34 1.09.38 1.66 0 .14.07-.39.29-.74.114-.339.401-.592.752-.663.351-.07.713.052.95.32.237.269.312.644.198.983v1.06 1.2c-.037.585-.117 1.167-.24 1.74-.174.507-.416.988-.72 1.43-.486.54-.887 1.15-1.19 1.81-.075.328-.109.664-.1 1-.001.311.039.62.12.92-.409.043-.821.043-1.23 0-.39-.06-.87-.84-1-1.08-.064-.129-.196-.21-.34-.21s-.276.081-.34.21c-.22.38-.71 1.07-1.05 1.11-.67.08-2.05 0-3.14 0 0 0 .18-1-.23-1.36s-.83-.78-1.14-1.06z" style="fill-rule:evenodd;clip-rule:evenodd;stroke:#000;stroke-width:.75;stroke-linecap:round;stroke-linejoin:round"/><g fill="#000"><path d="m370.75 336.826v-3.452c0-.207-.168-.374-.375-.374s-.375.167-.375.374v3.452c0 .207.168.374.375.374s.375-.167.375-.374z"/><path d="m368.77 336.825-.02-3.454c-.001-.206-.17-.372-.377-.371s-.374.169-.373.375l.02 3.454c.001.206.17.372.377.371s.374-.169.373-.375z"/><path d="m366 333.379.02 3.446c.001.208.17.376.377.375s.374-.171.373-.379l-.02-3.446c-.001-.208-.17-.376-.377-.375s-.374.171-.373.379z"/></g></g></g></g><g filter="url(#l)"><g clip-path="url(#q)"><rect fill="#424648" height="88" rx="4" width="352" x="106" y="364"/><path d="m114 372h24v24h-24z" fill="url(#m)"/><path d="m151.894 388.64c-.999 0-1.899-.215-2.702-.644-.803-.439-1.433-1.041-1.89-1.806-.457-.775-.686-1.638-.686-2.59s.229-1.811.686-2.576c.457-.775 1.087-1.377 1.89-1.806.803-.439 1.703-.658 2.702-.658s1.899.219 2.702.658c.803.429 1.433 1.027 1.89 1.792s.686 1.629.686 2.59-.229 1.825-.686 2.59-1.087 1.367-1.89 1.806c-.803.429-1.703.644-2.702.644zm0-1.596c.653 0 1.241-.145 1.764-.434.523-.299.933-.709 1.232-1.232.299-.532.448-1.125.448-1.778s-.149-1.241-.448-1.764c-.299-.532-.709-.943-1.232-1.232-.523-.299-1.111-.448-1.764-.448s-1.241.149-1.764.448c-.523.289-.933.7-1.232 1.232-.299.523-.448 1.111-.448 1.764s.149 1.246.448 1.778c.299.523.709.933 1.232 1.232.523.289 1.111.434 1.764.434zm13.899-3.556h1.722v3.906c-.504.401-1.092.709-1.764.924s-1.363.322-2.072.322c-.999 0-1.899-.215-2.702-.644-.803-.439-1.433-1.041-1.89-1.806s-.686-1.629-.686-2.59.229-1.825.686-2.59 1.087-1.363 1.89-1.792c.812-.439 1.722-.658 2.73-.658.821 0 1.568.135 2.24.406s1.237.667 1.694 1.19l-1.148 1.12c-.747-.747-1.647-1.12-2.702-1.12-.691 0-1.307.145-1.848.434-.532.289-.952.695-1.26 1.218-.299.523-.448 1.12-.448 1.792 0 .653.149 1.241.448 1.764.308.523.728.933 1.26 1.232.541.299 1.153.448 1.834.448.765 0 1.437-.168 2.016-.504z" fill="#fff"/><path d="m114 400h24v24h-24z" fill="url(#n)"/><path d="m149.304 408.24h-3.248v-1.54h8.316v1.54h-3.248v8.26h-1.82zm9.376 8.4c-.756 0-1.488-.107-2.198-.322-.7-.215-1.255-.499-1.666-.854l.63-1.414c.402.317.892.579 1.47.784.588.196 1.176.294 1.764.294.728 0 1.27-.117 1.624-.35.364-.233.546-.541.546-.924 0-.28-.102-.509-.308-.686-.196-.187-.448-.331-.756-.434s-.728-.219-1.26-.35c-.746-.177-1.353-.355-1.82-.532-.457-.177-.854-.453-1.19-.826-.326-.383-.49-.896-.49-1.54 0-.541.145-1.031.434-1.47.299-.448.742-.803 1.33-1.064.598-.261 1.326-.392 2.184-.392.598 0 1.186.075 1.764.224.579.149 1.078.364 1.498.644l-.574 1.414c-.429-.252-.877-.443-1.344-.574-.466-.131-.919-.196-1.358-.196-.718 0-1.255.121-1.61.364-.345.243-.518.565-.518.966 0 .28.098.509.294.686.206.177.462.317.77.42s.728.219 1.26.35c.728.168 1.326.345 1.792.532.467.177.864.453 1.19.826.336.373.504.877.504 1.512 0 .541-.149 1.031-.448 1.47-.289.439-.732.789-1.33 1.05-.597.261-1.325.392-2.184.392zm14.769-.14-.014-6.496-3.22 5.376h-.812l-3.22-5.292v6.412h-1.736v-9.8h1.498l3.892 6.496 3.822-6.496h1.498l.014 9.8z" fill="#fff"/><path d="m147.032 440v-8.544h5.34v.924h-4.248v2.82h4.008v.924h-4.008v3.876zm6.665 0v-6.036h1.092v6.036zm-.096-8.64h1.284v1.188h-1.284zm3.014 8.64v-4.344c0-.28-.008-.56-.024-.84-.008-.288-.032-.572-.072-.852h1.032l.108 1.236-.12.072c.176-.472.456-.832.84-1.08.392-.256.84-.384 1.344-.384 1.448 0 2.172.804 2.172 2.412v3.78h-1.092v-3.72c0-.544-.108-.94-.324-1.188-.208-.256-.544-.384-1.008-.384-.536 0-.964.168-1.284.504-.32.328-.48.772-.48 1.332v3.456zm9.383.084c-.528 0-.996-.124-1.404-.372-.4-.256-.712-.616-.936-1.08-.224-.472-.336-1.024-.336-1.656s.112-1.184.336-1.656c.232-.472.548-.84.948-1.104.408-.272.872-.408 1.392-.408.544 0 1.008.136 1.392.408.384.264.644.644.78 1.14l-.144.084v-1.476h1.08v6.036h-1.08v-1.512l.144.06c-.136.488-.396.868-.78 1.14-.384.264-.848.396-1.392.396zm.24-.888c.576 0 1.016-.192 1.32-.576.312-.392.468-.948.468-1.668s-.156-1.272-.468-1.656c-.312-.392-.752-.588-1.32-.588s-1.012.2-1.332.6-.48.956-.48 1.668.16 1.26.48 1.644.764.576 1.332.576zm4.686.804v-8.832h1.092v8.832zm4.994.084c-1.032 0-1.852-.26-2.46-.78l.348-.792c.32.248.652.432.996.552.352.112.736.168 1.152.168.432 0 .76-.072.984-.216.232-.152.348-.368.348-.648 0-.224-.08-.4-.24-.528-.152-.136-.408-.248-.768-.336l-1.008-.24c-.52-.112-.92-.312-1.2-.6-.272-.288-.408-.636-.408-1.044 0-.352.096-.664.288-.936.2-.272.476-.484.828-.636.352-.16.768-.24 1.248-.24.424 0 .824.068 1.2.204.384.136.708.332.972.588l-.348.78c-.288-.24-.584-.416-.888-.528-.304-.12-.62-.18-.948-.18-.408 0-.728.08-.96.24-.224.16-.336.376-.336.648 0 .232.072.416.216.552s.372.244.684.324l1.02.252c.576.12 1 .32 1.272.6.272.272.408.624.408 1.056 0 .528-.216.952-.648 1.272-.432.312-1.016.468-1.752.468z" fill="#fff" fill-opacity=".85"/><rect fill="#de3131" height="50" rx="4" width="20" x="430" y="372"/><g fill="#fff"><path d="m439.704 389.14c-.784 0-1.484-.196-2.1-.588-.616-.401-1.101-.98-1.456-1.736-.355-.765-.532-1.671-.532-2.716s.177-1.946.532-2.702c.355-.765.84-1.344 1.456-1.736.616-.401 1.316-.602 2.1-.602s1.484.201 2.1.602c.625.392 1.115.971 1.47 1.736.355.756.532 1.657.532 2.702s-.177 1.951-.532 2.716c-.355.756-.845 1.335-1.47 1.736-.616.392-1.316.588-2.1.588zm0-1.582c.7 0 1.251-.289 1.652-.868.411-.579.616-1.442.616-2.59s-.205-2.011-.616-2.59c-.401-.579-.952-.868-1.652-.868-.691 0-1.241.289-1.652.868-.401.579-.602 1.442-.602 2.59s.201 2.011.602 2.59c.411.579.961.868 1.652.868z"/><path d="m441.004 404.2v9.8h-1.82v-8.274h-2.072v-1.526z"/></g></g></g></g><path d="m471.333 464c0 1.473 1.194 2.667 2.667 2.667s2.667-1.194 2.667-2.667-1.194-2.667-2.667-2.667-2.667 1.194-2.667 2.667zm2.667.5h32v-1h-32z" fill="#d7dbdd"/><rect fill="#d7dbdd" height="32" rx="4" width="24" x="506" y="448"/><path d="m518.503 469.112c-1.148 0-2.021-.429-2.618-1.288-.598-.868-.896-2.137-.896-3.808s.294-2.935.882-3.794c.597-.868 1.474-1.302 2.632-1.302 1.157 0 2.03.434 2.618 1.302.597.859.896 2.119.896 3.78 0 1.671-.299 2.94-.896 3.808-.598.868-1.47 1.302-2.618 1.302zm0-1.064c.756 0 1.311-.327 1.666-.98.364-.653.546-1.675.546-3.066s-.182-2.403-.546-3.038c-.355-.644-.91-.966-1.666-.966s-1.316.322-1.68.966c-.355.644-.532 1.657-.532 3.038 0 1.391.177 2.413.532 3.066.364.653.924.98 1.68.98z" fill="#242729"/><path d="m439.333 344c0 1.473 1.194 2.667 2.667 2.667s2.667-1.194 2.667-2.667-1.194-2.667-2.667-2.667-2.667 1.194-2.667 2.667zm2.667.5h64v-1h-64z" fill="#d7dbdd"/><rect fill="#d7dbdd" height="32" rx="4" width="24" x="506" y="328"/><path d="m515.423 349v-.98l3.472-3.808c.448-.504.774-.957.98-1.358.214-.411.322-.821.322-1.232 0-.523-.154-.924-.462-1.204-.308-.289-.742-.434-1.302-.434-.476 0-.948.098-1.414.294-.467.187-.929.467-1.386.84l-.476-.98c.392-.373.886-.667 1.484-.882.606-.224 1.213-.336 1.82-.336.625 0 1.162.107 1.61.322.448.205.798.509 1.05.91.252.392.378.859.378 1.4 0 .569-.131 1.115-.392 1.638-.252.523-.672 1.111-1.26 1.764l-3.29 3.542-.112-.574h5.46v1.078z" fill="#242729"/><rect fill="#d7dbdd" height="32" rx="4" width="24" x="34" y="420"/><path d="m46.2367 440.412v-8.554l.714.294-2.758 1.736v-1.218l2.604-1.638h.742v9.38zm-2.198.588v-1.078h5.698v1.078z" fill="#242729"/><path d="m119.333 436c0 1.473 1.194 2.667 2.667 2.667s2.667-1.194 2.667-2.667-1.194-2.667-2.667-2.667-2.667 1.194-2.667 2.667zm-61.333.5h64v-1h-64z" fill="#d7dbdd"/></svg>