<svg fill="none" height="477" viewBox="0 0 1176 477" width="1176" xmlns="http://www.w3.org/2000/svg" xmlns:xlink="http://www.w3.org/1999/xlink"><filter id="a" color-interpolation-filters="sRGB" filterUnits="userSpaceOnUse" height="144" width="144" x="240" y="168"><feFlood flood-opacity="0" result="BackgroundImageFix"/><feColorMatrix in="SourceAlpha" result="hardAlpha" type="matrix" values="0 0 0 0 0 0 0 0 0 0 0 0 0 0 0 0 0 0 127 0"/><feOffset dy="4"/><feGaussianBlur stdDeviation="4"/><feComposite in2="hardAlpha" operator="out"/><feColorMatrix type="matrix" values="0 0 0 0 0 0 0 0 0 0 0 0 0 0 0 0 0 0 0.1 0"/><feBlend in2="BackgroundImageFix" mode="normal" result="effect1_dropShadow_36_9833"/><feBlend in="SourceGraphic" in2="effect1_dropShadow_36_9833" mode="normal" result="shape"/></filter><filter id="b" color-interpolation-filters="sRGB" filterUnits="userSpaceOnUse" height="136" width="136" x="60" y="170"><feFlood flood-opacity="0" result="BackgroundImageFix"/><feColorMatrix in="SourceAlpha" result="hardAlpha" type="matrix" values="0 0 0 0 0 0 0 0 0 0 0 0 0 0 0 0 0 0 127 0"/><feOffset dy="2"/><feGaussianBlur stdDeviation="2"/><feComposite in2="hardAlpha" operator="out"/><feColorMatrix type="matrix" values="0 0 0 0 0 0 0 0 0 0 0 0 0 0 0 0 0 0 0.1 0"/><feBlend in2="BackgroundImageFix" mode="normal" result="effect1_dropShadow_36_9833"/><feBlend in="SourceGraphic" in2="effect1_dropShadow_36_9833" mode="normal" result="shape"/></filter><filter id="c" color-interpolation-filters="sRGB" filterUnits="userSpaceOnUse" height="21.1035" width="69.9116" x="1013.4" y="228.612"><feFlood flood-opacity="0" result="BackgroundImageFix"/><feColorMatrix in="SourceAlpha" result="hardAlpha" type="matrix" values="0 0 0 0 0 0 0 0 0 0 0 0 0 0 0 0 0 0 127 0"/><feOffset dy="2"/><feGaussianBlur stdDeviation="2"/><feComposite in2="hardAlpha" operator="out"/><feColorMatrix type="matrix" values="0 0 0 0 0 0 0 0 0 0 0 0 0 0 0 0 0 0 0.6 0"/><feBlend in2="BackgroundImageFix" mode="normal" result="effect1_dropShadow_36_9833"/><feBlend in="SourceGraphic" in2="effect1_dropShadow_36_9833" mode="normal" result="shape"/></filter><filter id="d" color-interpolation-filters="sRGB" filterUnits="userSpaceOnUse" height="160" width="160" x="416" y="160"><feFlood flood-opacity="0" result="BackgroundImageFix"/><feColorMatrix in="SourceAlpha" result="hardAlpha" type="matrix" values="0 0 0 0 0 0 0 0 0 0 0 0 0 0 0 0 0 0 127 0"/><feOffset dy="4"/><feGaussianBlur stdDeviation="8"/><feComposite in2="hardAlpha" operator="out"/><feColorMatrix type="matrix" values="0 0 0 0 0 0 0 0 0 0 0 0 0 0 0 0 0 0 0.2 0"/><feBlend in2="BackgroundImageFix" mode="normal" result="effect1_dropShadow_36_9833"/><feBlend in="SourceGraphic" in2="effect1_dropShadow_36_9833" mode="normal" result="shape"/></filter><filter id="e" color-interpolation-filters="sRGB" filterUnits="userSpaceOnUse" height="168" width="168" x="596" y="160"><feFlood flood-opacity="0" result="BackgroundImageFix"/><feColorMatrix in="SourceAlpha" result="hardAlpha" type="matrix" values="0 0 0 0 0 0 0 0 0 0 0 0 0 0 0 0 0 0 127 0"/><feOffset dy="8"/><feGaussianBlur stdDeviation="10"/><feComposite in2="hardAlpha" operator="out"/><feColorMatrix type="matrix" values="0 0 0 0 0 0 0 0 0 0 0 0 0 0 0 0 0 0 0.3 0"/><feBlend in2="BackgroundImageFix" mode="normal" result="effect1_dropShadow_36_9833"/><feBlend in="SourceGraphic" in2="effect1_dropShadow_36_9833" mode="normal" result="shape"/></filter><filter id="f" color-interpolation-filters="sRGB" filterUnits="userSpaceOnUse" height="138" width="138" x="795" y="167"><feFlood flood-opacity="0" result="BackgroundImageFix"/><feColorMatrix in="SourceAlpha" result="hardAlpha" type="matrix" values="0 0 0 0 0 0 0 0 0 0 0 0 0 0 0 0 0 0 127 0"/><feMorphology in="SourceAlpha" operator="dilate" radius="1" result="effect1_dropShadow_36_9833"/><feOffset/><feGaussianBlur stdDeviation="2"/><feComposite in2="hardAlpha" operator="out"/><feColorMatrix type="matrix" values="0 0 0 0 1 0 0 0 0 1 0 0 0 0 1 0 0 0 1 0"/><feBlend in2="BackgroundImageFix" mode="normal" result="effect1_dropShadow_36_9833"/><feBlend in="SourceGraphic" in2="effect1_dropShadow_36_9833" mode="normal" result="shape"/></filter><rect fill="#242729" height="477" rx="12" width="1176"/><path d="m75.268 99.432c-1.992 0-3.924-.264-5.796-.792-1.848-.552-3.336-1.26-4.464-2.124l1.98-4.392c1.08.792 2.364 1.428 3.852 1.908s2.976.72 4.464.72c1.656 0 2.88-.24 3.672-.72.792-.504 1.188-1.164 1.188-1.98 0-.6-.24-1.092-.72-1.476-.456-.408-1.056-.732-1.8-.972-.72-.24-1.704-.504-2.952-.792-1.92-.456-3.492-.912-4.716-1.368s-2.28-1.188-3.168-2.196c-.864-1.008-1.296-2.352-1.296-4.032 0-1.464.396-2.784 1.188-3.96.792-1.2 1.98-2.148 3.564-2.844 1.608-.696 3.564-1.044 5.868-1.044 1.608 0 3.18.192 4.716.576s2.88.936 4.032 1.656l-1.8 4.428c-2.328-1.32-4.656-1.98-6.984-1.98-1.632 0-2.844.264-3.636.792-.768.528-1.152 1.224-1.152 2.088s.444 1.512 1.332 1.944c.912.408 2.292.816 4.14 1.224 1.92.456 3.492.912 4.716 1.368s2.268 1.176 3.132 2.16c.888.984 1.332 2.316 1.332 3.996 0 1.44-.408 2.76-1.224 3.96-.792 1.176-1.992 2.112-3.6 2.808s-3.564 1.044-5.868 1.044zm26.053-20.088c2.4 0 4.332.72 5.796 2.16 1.488 1.44 2.232 3.576 2.232 6.408v11.088h-5.616v-10.224c0-1.536-.336-2.676-1.008-3.42-.672-.768-1.644-1.152-2.916-1.152-1.416 0-2.544.444-3.384 1.332-.84.864-1.26 2.16-1.26 3.888v9.576h-5.616v-26.712h5.616v9.36c.744-.744 1.644-1.308 2.7-1.692 1.056-.408 2.208-.612 3.456-.612zm20.931 0c3 0 5.304.72 6.912 2.16 1.608 1.416 2.412 3.564 2.412 6.444v11.052h-5.256v-2.412c-1.056 1.8-3.024 2.7-5.904 2.7-1.488 0-2.784-.252-3.888-.756-1.08-.504-1.908-1.2-2.484-2.088s-.864-1.896-.864-3.024c0-1.8.672-3.216 2.016-4.248 1.368-1.032 3.468-1.548 6.3-1.548h4.464c0-1.224-.372-2.16-1.116-2.808-.744-.672-1.86-1.008-3.348-1.008-1.032 0-2.052.168-3.06.504-.984.312-1.824.744-2.52 1.296l-2.016-3.924c1.056-.744 2.316-1.32 3.78-1.728 1.488-.408 3.012-.612 4.572-.612zm-.432 16.164c.96 0 1.812-.216 2.556-.648.744-.456 1.272-1.116 1.584-1.98v-1.98h-3.852c-2.304 0-3.456.756-3.456 2.268 0 .72.276 1.296.828 1.728.576.408 1.356.612 2.34.612zm34.777-23.22v26.712h-5.364v-2.232c-1.392 1.68-3.408 2.52-6.048 2.52-1.824 0-3.48-.408-4.968-1.224-1.464-.816-2.616-1.98-3.456-3.492s-1.26-3.264-1.26-5.256.42-3.744 1.26-5.256 1.992-2.676 3.456-3.492c1.488-.816 3.144-1.224 4.968-1.224 2.472 0 4.404.78 5.796 2.34v-9.396zm-10.44 22.392c1.416 0 2.592-.48 3.528-1.44.936-.984 1.404-2.292 1.404-3.924s-.468-2.928-1.404-3.888c-.936-.984-2.112-1.476-3.528-1.476-1.44 0-2.628.492-3.564 1.476-.936.96-1.404 2.256-1.404 3.888s.468 2.94 1.404 3.924c.936.96 2.124 1.44 3.564 1.44zm24.854 4.608c-2.04 0-3.876-.42-5.508-1.26-1.608-.864-2.868-2.052-3.78-3.564s-1.368-3.228-1.368-5.148.456-3.636 1.368-5.148 2.172-2.688 3.78-3.528c1.632-.864 3.468-1.296 5.508-1.296s3.864.432 5.472 1.296c1.608.84 2.868 2.016 3.78 3.528s1.368 3.228 1.368 5.148-.456 3.636-1.368 5.148-2.172 2.7-3.78 3.564c-1.608.84-3.432 1.26-5.472 1.26zm0-4.608c1.44 0 2.616-.48 3.528-1.44.936-.984 1.404-2.292 1.404-3.924s-.468-2.928-1.404-3.888c-.912-.984-2.088-1.476-3.528-1.476s-2.628.492-3.564 1.476c-.936.96-1.404 2.256-1.404 3.888s.468 2.94 1.404 3.924c.936.96 2.124 1.44 3.564 1.44zm44.951-15.048-7.02 19.368h-5.4l-4.356-12.024-4.5 12.024h-5.4l-6.984-19.368h5.292l4.572 13.104 4.752-13.104h4.752l4.608 13.104 4.716-13.104z" fill="#fff"/><g filter="url(#a)"><rect fill="#36393b" height="128" rx="4" width="128" x="248" y="172"/><path d="m262.988 196.084c-1.032 0-1.852-.26-2.46-.78l.348-.792c.32.248.652.432.996.552.352.112.736.168 1.152.168.432 0 .76-.072.984-.216.232-.152.348-.368.348-.648 0-.224-.08-.4-.24-.528-.152-.136-.408-.248-.768-.336l-1.008-.24c-.52-.112-.92-.312-1.2-.6-.272-.288-.408-.636-.408-1.044 0-.352.096-.664.288-.936.2-.272.476-.484.828-.636.352-.16.768-.24 1.248-.24.424 0 .824.068 1.2.204.384.136.708.332.972.588l-.348.78c-.288-.24-.584-.416-.888-.528-.304-.12-.62-.18-.948-.18-.408 0-.728.08-.96.24-.224.16-.336.376-.336.648 0 .232.072.416.216.552s.372.244.684.324l1.02.252c.576.12 1 .32 1.272.6.272.272.408.624.408 1.056 0 .528-.216.952-.648 1.272-.432.312-1.016.468-1.752.468zm3.889-.084v-4.344c0-.28-.008-.56-.024-.84-.008-.288-.032-.572-.072-.852h1.032l.108 1.236-.12.06c.144-.464.392-.82.744-1.068.36-.256.784-.384 1.272-.384.584 0 1.036.144 1.356.432.328.288.536.728.624 1.32l-.288-.18c.136-.48.396-.86.78-1.14.384-.288.844-.432 1.38-.432.672 0 1.176.2 1.512.6s.504 1.004.504 1.812v3.78h-1.092v-3.732c0-.536-.096-.928-.288-1.176-.184-.256-.484-.384-.9-.384-.488 0-.872.168-1.152.504-.28.328-.42.78-.42 1.356v3.432h-1.092v-3.732c0-.536-.096-.928-.288-1.176-.192-.256-.496-.384-.912-.384-.496 0-.884.168-1.164.504-.272.328-.408.78-.408 1.356v3.432zm12.921.084c-.528 0-.996-.124-1.404-.372-.4-.256-.712-.616-.936-1.08-.224-.472-.336-1.024-.336-1.656s.112-1.184.336-1.656c.232-.472.548-.84.948-1.104.408-.272.872-.408 1.392-.408.544 0 1.008.136 1.392.408.384.264.644.644.78 1.14l-.144.084v-1.476h1.08v6.036h-1.08v-1.512l.144.06c-.136.488-.396.868-.78 1.14-.384.264-.848.396-1.392.396zm.24-.888c.576 0 1.016-.192 1.32-.576.312-.392.468-.948.468-1.668s-.156-1.272-.468-1.656c-.312-.392-.752-.588-1.32-.588s-1.012.2-1.332.6-.48.956-.48 1.668.16 1.26.48 1.644.764.576 1.332.576zm4.687.804v-8.832h1.092v8.832zm2.917 0v-8.832h1.092v8.832z" fill="#fff" fill-opacity=".75"/></g><g filter="url(#b)"><rect fill="#36393b" height="128" rx="4" width="128" x="64" y="172"/><path d="m81.076 196-1.848-2.304-.636-.804-2.376-2.928h1.32l1.692 2.136.648.792 2.496 3.108zm-3.684 0h-1.32l2.52-3.108.636-.792 1.68-2.136h1.332l-2.364 2.928-.648.804zm7.9944.084c-1.032 0-1.852-.26-2.46-.78l.348-.792c.32.248.652.432.996.552.352.112.736.168 1.152.168.432 0 .76-.072.984-.216.232-.152.348-.368.348-.648 0-.224-.08-.4-.24-.528-.152-.136-.408-.248-.768-.336l-1.008-.24c-.52-.112-.92-.312-1.2-.6-.272-.288-.408-.636-.408-1.044 0-.352.096-.664.288-.936.2-.272.476-.484.828-.636.352-.16.768-.24 1.248-.24.424 0 .824.068 1.2.204.384.136.708.332.972.588l-.348.78c-.288-.24-.584-.416-.888-.528-.304-.12-.62-.18-.948-.18-.408 0-.728.08-.96.24-.224.16-.336.376-.336.648 0 .232.072.416.216.552s.372.244.684.324l1.02.252c.576.12 1 .32 1.272.6.272.272.408.624.408 1.056 0 .528-.216.952-.648 1.272-.432.312-1.016.468-1.752.468zm3.8889-.084v-4.344c0-.28-.008-.56-.024-.84-.008-.288-.032-.572-.072-.852h1.032l.108 1.236-.12.06c.144-.464.392-.82.744-1.068.36-.256.784-.384 1.272-.384.584 0 1.036.144 1.356.432.328.288.536.728.624 1.32l-.288-.18c.136-.48.396-.86.78-1.14.384-.288.844-.432 1.38-.432.672 0 1.176.2 1.512.6s.504 1.004.504 1.812v3.78h-1.092v-3.732c0-.536-.096-.928-.288-1.176-.184-.256-.484-.384-.9-.384-.488 0-.872.168-1.152.504-.28.328-.42.78-.42 1.356v3.432h-1.092v-3.732c0-.536-.096-.928-.288-1.176-.192-.256-.496-.384-.912-.384-.496 0-.884.168-1.164.504-.272.328-.408.78-.408 1.356v3.432zm12.9217.084c-.528 0-.996-.124-1.404-.372-.4-.256-.712-.616-.9362-1.08-.224-.472-.336-1.024-.336-1.656s.112-1.184.336-1.656c.2322-.472.5482-.84.9482-1.104.408-.272.872-.408 1.392-.408.544 0 1.008.136 1.392.408.384.264.644.644.78 1.14l-.144.084v-1.476h1.08v6.036h-1.08v-1.512l.144.06c-.136.488-.396.868-.78 1.14-.384.264-.848.396-1.392.396zm.24-.888c.576 0 1.016-.192 1.32-.576.312-.392.468-.948.468-1.668s-.156-1.272-.468-1.656c-.312-.392-.752-.588-1.32-.588s-1.012.2-1.332.6-.48.956-.48 1.668.16 1.26.48 1.644.764.576 1.332.576zm4.686.804v-8.832h1.092v8.832zm2.918 0v-8.832h1.092v8.832z" fill="#fff" fill-opacity=".75"/></g><rect fill="#36393b" height="128" rx="4" width="128" x="984" y="172"/><path d="m996.084 190.804v-.84h3.956v.84zm3.936 4.248v.912c-.136.04-.276.068-.42.084-.136.024-.284.036-.444.036-.592 0-1.06-.168-1.404-.504-.336-.336-.504-.832-.504-1.488v-5.664l1.092-.384v5.928c0 .312.044.556.132.732.096.168.22.288.372.36.16.064.34.096.54.096.112 0 .216-.008.312-.024s.204-.044.324-.084zm6.17.24c-.26.248-.6.444-1.02.588-.41.136-.84.204-1.27.204-.63 0-1.17-.124-1.63-.372s-.81-.604-1.06-1.068c-.24-.472-.37-1.032-.37-1.68 0-.624.12-1.172.36-1.644.25-.472.59-.84 1.02-1.104.43-.272.93-.408 1.49-.408.54 0 1.01.12 1.39.36.39.24.69.584.89 1.032.21.44.31.968.31 1.584v.192h-4.5v-.672h3.88l-.34.432c.02-.68-.11-1.2-.39-1.56s-.69-.54-1.23-.54c-.56 0-1 .2-1.32.6-.31.392-.47.944-.47 1.656 0 .768.17 1.348.51 1.74.33.384.83.576 1.49.576.35 0 .68-.056 1-.168.32-.12.63-.296.92-.528zm5.64.708-1.84-2.304-.64-.804-2.38-2.928h1.32l1.7 2.136.64.792 2.5 3.108zm-3.68 0h-1.32l2.52-3.108.64-.792 1.68-2.136h1.33l-2.37 2.928-.64.804zm5.15-5.196v-.84h3.96v.84zm3.93 4.248v.912c-.13.04-.27.068-.42.084-.13.024-.28.036-.44.036-.59 0-1.06-.168-1.4-.504s-.51-.832-.51-1.488v-5.664l1.09-.384v5.928c0 .312.05.556.14.732.09.168.22.288.37.36.16.064.34.096.54.096.11 0 .21-.008.31-.024s.2-.044.32-.084z" fill="#fff" fill-opacity=".75"/><g filter="url(#c)"><path d="m1024.99 239.18v1.82h-7.59v-9.8h7.41v1.82h-5.15v2.128h4.55v1.764h-4.55v2.268zm6.34 1.82-1.65-2.31-1.71 2.31h-2.38l2.9-3.794-2.8-3.738h2.45l1.6 2.198 1.64-2.198h2.32l-2.8 3.682 2.91 3.85zm6.44-7.644c1.17 0 2.07.28 2.69.84.63.551.94 1.386.94 2.506v4.298h-2.05v-.938c-.41.7-1.17 1.05-2.29 1.05-.58 0-1.08-.098-1.51-.294-.42-.196-.75-.467-.97-.812s-.34-.737-.34-1.176c0-.7.27-1.251.79-1.652.53-.401 1.35-.602 2.45-.602h1.73c0-.476-.14-.84-.43-1.092-.29-.261-.72-.392-1.3-.392-.4 0-.8.065-1.19.196-.38.121-.71.289-.98.504l-.79-1.526c.42-.289.91-.513 1.47-.672.58-.159 1.18-.238 1.78-.238zm-.17 6.286c.38 0 .71-.084 1-.252.29-.177.49-.434.61-.77v-.77h-1.49c-.9 0-1.35.294-1.35.882 0 .28.11.504.32.672.23.159.53.238.91.238zm15.42-6.286c.94 0 1.69.28 2.24.84.56.551.84 1.381.84 2.492v4.312h-2.18v-3.976c0-.597-.13-1.041-.38-1.33-.24-.299-.59-.448-1.05-.448-.51 0-.92.168-1.22.504-.3.327-.45.817-.45 1.47v3.78h-2.18v-3.976c0-1.185-.48-1.778-1.43-1.778-.5 0-.9.168-1.2.504-.3.327-.45.817-.45 1.47v3.78h-2.18v-7.532h2.08v.868c.28-.317.62-.56 1.02-.728.41-.168.86-.252 1.35-.252.53 0 1.01.107 1.44.322.43.205.77.509 1.04.91.3-.392.69-.695 1.16-.91s.99-.322 1.55-.322zm9.49 0c.7 0 1.34.163 1.9.49.58.317 1.04.77 1.36 1.358.33.579.49 1.255.49 2.03s-.16 1.456-.49 2.044c-.32.579-.78 1.031-1.36 1.358-.56.317-1.2.476-1.9.476-.96 0-1.72-.303-2.27-.91v3.514h-2.18v-10.248h2.08v.868c.55-.653 1.33-.98 2.37-.98zm-.38 5.964c.56 0 1.02-.187 1.37-.56.37-.383.55-.891.55-1.526s-.18-1.139-.55-1.512c-.35-.383-.81-.574-1.37-.574s-1.02.191-1.38.574c-.36.373-.54.877-.54 1.512s.18 1.143.54 1.526c.36.373.82.56 1.38.56zm5.59-8.708h2.19v10.388h-2.19zm11.59 6.65c0 .028-.01.224-.04.588h-5.7c.11.467.35.835.73 1.106s.86.406 1.43.406c.39 0 .74-.056 1.04-.168.3-.121.59-.308.85-.56l1.16 1.26c-.71.812-1.74 1.218-3.11 1.218-.85 0-1.6-.163-2.25-.49-.65-.336-1.16-.798-1.51-1.386-.36-.588-.53-1.255-.53-2.002 0-.737.17-1.4.51-1.988.36-.597.84-1.059 1.45-1.386.61-.336 1.3-.504 2.05-.504.74 0 1.41.159 2.01.476.59.317 1.06.775 1.4 1.372.34.588.51 1.274.51 2.058zm-3.9-2.254c-.5 0-.91.14-1.25.42-.33.28-.54.663-.61 1.148h3.71c-.08-.476-.28-.854-.62-1.134-.34-.289-.75-.434-1.23-.434z" fill="#fff"/></g><g fill="#fff" fill-opacity=".75"><path d="m69.076 352-1.848-2.304-.636-.804-2.376-2.928h1.32l1.692 2.136.648.792 2.496 3.108zm-3.684 0h-1.32l2.52-3.108.636-.792 1.68-2.136h1.332l-2.364 2.928-.648.804zm7.9944.084c-1.032 0-1.852-.26-2.46-.78l.348-.792c.32.248.652.432.996.552.352.112.736.168 1.152.168.432 0 .76-.072.984-.216.232-.152.348-.368.348-.648 0-.224-.08-.4-.24-.528-.152-.136-.408-.248-.768-.336l-1.008-.24c-.52-.112-.92-.312-1.2-.6-.272-.288-.408-.636-.408-1.044 0-.352.096-.664.288-.936.2-.272.476-.484.828-.636.352-.16.768-.24 1.248-.24.424 0 .824.068 1.2.204.384.136.708.332.972.588l-.348.78c-.288-.24-.584-.416-.888-.528-.304-.12-.62-.18-.948-.18-.408 0-.728.08-.96.24-.224.16-.336.376-.336.648 0 .232.072.416.216.552s.372.244.684.324l1.02.252c.576.12 1 .32 1.272.6.272.272.408.624.408 1.056 0 .528-.216.952-.648 1.272-.432.312-1.016.468-1.752.468zm3.8889-.084v-4.344c0-.28-.008-.56-.024-.84-.008-.288-.032-.572-.072-.852h1.032l.108 1.236-.12.06c.144-.464.392-.82.744-1.068.36-.256.784-.384 1.272-.384.584 0 1.036.144 1.356.432.328.288.536.728.624 1.32l-.288-.18c.136-.48.396-.86.78-1.14.384-.288.844-.432 1.38-.432.672 0 1.176.2 1.512.6s.504 1.004.504 1.812v3.78h-1.092v-3.732c0-.536-.096-.928-.288-1.176-.184-.256-.484-.384-.9-.384-.488 0-.872.168-1.152.504-.28.328-.42.78-.42 1.356v3.432h-1.092v-3.732c0-.536-.096-.928-.288-1.176-.192-.256-.496-.384-.912-.384-.496 0-.884.168-1.164.504-.272.328-.408.78-.408 1.356v3.432zm12.9215.084c-.528 0-.996-.124-1.404-.372-.4-.256-.712-.616-.936-1.08-.224-.472-.336-1.024-.336-1.656s.112-1.184.336-1.656c.232-.472.548-.84.948-1.104.408-.272.872-.408 1.392-.408.544 0 1.008.136 1.392.408.384.264.644.644.78 1.14l-.144.084v-1.476h1.0799v6.036h-1.0799v-1.512l.144.06c-.136.488-.396.868-.78 1.14-.384.264-.848.396-1.392.396zm.24-.888c.576 0 1.016-.192 1.32-.576.312-.392.468-.948.468-1.668s-.156-1.272-.468-1.656c-.312-.392-.752-.588-1.32-.588s-1.012.2-1.332.6-.48.956-.48 1.668.16 1.26.48 1.644.764.576 1.332.576zm4.6861.804v-8.832h1.092v8.832zm2.918 0v-8.832h1.092v8.832z"/><path d="m984.084 346.804v-.84h3.96v.84zm3.936 4.248v.912c-.136.04-.276.068-.42.084-.136.024-.284.036-.444.036-.592 0-1.06-.168-1.404-.504-.336-.336-.504-.832-.504-1.488v-5.664l1.092-.384v5.928c0 .312.044.556.132.732.096.168.22.288.372.36.16.064.34.096.54.096.112 0 .216-.008.312-.024s.204-.044.324-.084zm6.173.24c-.264.248-.604.444-1.02.588-.416.136-.84.204-1.272.204-.632 0-1.176-.124-1.632-.372s-.808-.604-1.056-1.068c-.248-.472-.372-1.032-.372-1.68 0-.624.12-1.172.36-1.644.248-.472.588-.84 1.02-1.104.432-.272.928-.408 1.488-.408.544 0 1.008.12 1.392.36.392.24.688.584.888 1.032.208.44.312.968.312 1.584v.192h-4.5v-.672h3.876l-.336.432c.016-.68-.116-1.2-.396-1.56s-.688-.54-1.224-.54c-.56 0-1 .2-1.32.6-.312.392-.468.944-.468 1.656 0 .768.168 1.348.504 1.74.336.384.832.576 1.488.576.352 0 .688-.056 1.008-.168.32-.12.624-.296.912-.528zm5.641.708-1.848-2.304-.636-.804-2.376-2.928h1.32l1.692 2.136.648.792 2.496 3.108zm-3.684 0h-1.32l2.52-3.108.636-.792 1.68-2.136h1.334l-2.366 2.928-.648.804zm5.15-5.196v-.84h3.96v.84zm3.93 4.248v.912c-.13.04-.27.068-.42.084-.13.024-.28.036-.44.036-.59 0-1.06-.168-1.4-.504s-.51-.832-.51-1.488v-5.664l1.09-.384v5.928c0 .312.05.556.14.732.09.168.22.288.37.36.16.064.34.096.54.096.11 0 .21-.008.31-.024s.2-.044.32-.084z"/><path d="m250.988 352.084c-1.032 0-1.852-.26-2.46-.78l.348-.792c.32.248.652.432.996.552.352.112.736.168 1.152.168.432 0 .76-.072.984-.216.232-.152.348-.368.348-.648 0-.224-.08-.4-.24-.528-.152-.136-.408-.248-.768-.336l-1.008-.24c-.52-.112-.92-.312-1.2-.6-.272-.288-.408-.636-.408-1.044 0-.352.096-.664.288-.936.2-.272.476-.484.828-.636.352-.16.768-.24 1.248-.24.424 0 .824.068 1.2.204.384.136.708.332.972.588l-.348.78c-.288-.24-.584-.416-.888-.528-.304-.12-.62-.18-.948-.18-.408 0-.728.08-.96.24-.224.16-.336.376-.336.648 0 .232.072.416.216.552s.372.244.684.324l1.02.252c.576.12 1 .32 1.272.6.272.272.408.624.408 1.056 0 .528-.216.952-.648 1.272-.432.312-1.016.468-1.752.468zm3.889-.084v-4.344c0-.28-.008-.56-.024-.84-.008-.288-.032-.572-.072-.852h1.032l.108 1.236-.12.06c.144-.464.392-.82.744-1.068.36-.256.784-.384 1.272-.384.584 0 1.036.144 1.356.432.328.288.536.728.624 1.32l-.288-.18c.136-.48.396-.86.78-1.14.384-.288.844-.432 1.38-.432.672 0 1.176.2 1.512.6s.504 1.004.504 1.812v3.78h-1.092v-3.732c0-.536-.096-.928-.288-1.176-.184-.256-.484-.384-.9-.384-.488 0-.872.168-1.152.504-.28.328-.42.78-.42 1.356v3.432h-1.092v-3.732c0-.536-.096-.928-.288-1.176-.192-.256-.496-.384-.912-.384-.496 0-.884.168-1.164.504-.272.328-.408.78-.408 1.356v3.432zm12.921.084c-.528 0-.996-.124-1.404-.372-.4-.256-.712-.616-.936-1.08-.224-.472-.336-1.024-.336-1.656s.112-1.184.336-1.656c.232-.472.548-.84.948-1.104.408-.272.872-.408 1.392-.408.544 0 1.008.136 1.392.408.384.264.644.644.78 1.14l-.144.084v-1.476h1.08v6.036h-1.08v-1.512l.144.06c-.136.488-.396.868-.78 1.14-.384.264-.848.396-1.392.396zm.24-.888c.576 0 1.016-.192 1.32-.576.312-.392.468-.948.468-1.668s-.156-1.272-.468-1.656c-.312-.392-.752-.588-1.32-.588s-1.012.2-1.332.6-.48.956-.48 1.668.16 1.26.48 1.644.764.576 1.332.576zm4.687.804v-8.832h1.092v8.832zm2.917 0v-8.832h1.092v8.832z"/><path d="m432.912 352v-4.344c0-.28-.008-.56-.024-.84-.008-.288-.032-.572-.072-.852h1.032l.108 1.236-.12.06c.144-.464.392-.82.744-1.068.36-.256.784-.384 1.272-.384.584 0 1.036.144 1.356.432.328.288.536.728.624 1.32l-.288-.18c.136-.48.396-.86.78-1.14.384-.288.844-.432 1.38-.432.672 0 1.176.2 1.512.6s.504 1.004.504 1.812v3.78h-1.092v-3.732c0-.536-.096-.928-.288-1.176-.184-.256-.484-.384-.9-.384-.488 0-.872.168-1.152.504-.28.328-.42.78-.42 1.356v3.432h-1.092v-3.732c0-.536-.096-.928-.288-1.176-.192-.256-.496-.384-.912-.384-.496 0-.884.168-1.164.504-.272.328-.408.78-.408 1.356v3.432zm15.597-.708c-.264.248-.604.444-1.02.588-.416.136-.84.204-1.272.204-.632 0-1.176-.124-1.632-.372s-.808-.604-1.056-1.068c-.248-.472-.372-1.032-.372-1.68 0-.624.12-1.172.36-1.644.248-.472.588-.84 1.02-1.104.432-.272.928-.408 1.488-.408.544 0 1.008.12 1.392.36.392.24.688.584.888 1.032.208.44.312.968.312 1.584v.192h-4.5v-.672h3.876l-.336.432c.016-.68-.116-1.2-.396-1.56s-.688-.54-1.224-.54c-.56 0-1 .2-1.32.6-.312.392-.468.944-.468 1.656 0 .768.168 1.348.504 1.74.336.384.832.576 1.488.576.352 0 .688-.056 1.008-.168.32-.12.624-.296.912-.528zm6.972.708h-1.08v-1.596l.144.144c-.136.488-.396.868-.78 1.14-.384.264-.848.396-1.392.396-.52 0-.984-.128-1.392-.384-.4-.264-.716-.632-.948-1.104-.224-.48-.336-1.036-.336-1.668s.112-1.18.336-1.644c.224-.472.536-.836.936-1.092.408-.256.876-.384 1.404-.384.544 0 1.008.136 1.392.408s.644.648.78 1.128l-.156.144v-4.32h1.092zm-2.868-.804c.568 0 1.008-.192 1.32-.576.312-.392.468-.948.468-1.668 0-.712-.156-1.264-.468-1.656-.304-.392-.744-.588-1.32-.588-.568 0-1.012.196-1.332.588-.32.384-.48.928-.48 1.632 0 .72.16 1.28.48 1.68.32.392.764.588 1.332.588zm4.686.804v-6.036h1.092v6.036zm-.096-8.64h1.284v1.188h-1.284zm5.162 8.724c-.728 0-1.276-.2-1.644-.6-.36-.408-.54-1.008-.54-1.8v-3.72h1.092v3.708c0 .52.104.904.312 1.152.216.24.544.36.984.36.512 0 .924-.164 1.236-.492.312-.336.468-.78.468-1.332v-3.396h1.104v6.036h-1.068v-1.296l.144-.06c-.16.472-.428.832-.804 1.08-.376.24-.804.36-1.284.36zm4.824-.084v-4.344c0-.28-.008-.56-.024-.84-.008-.288-.032-.572-.072-.852h1.032l.108 1.236-.12.06c.144-.464.392-.82.744-1.068.36-.256.784-.384 1.272-.384.584 0 1.036.144 1.356.432.328.288.536.728.624 1.32l-.288-.18c.136-.48.396-.86.78-1.14.384-.288.844-.432 1.38-.432.672 0 1.176.2 1.512.6s.504 1.004.504 1.812v3.78h-1.092v-3.732c0-.536-.096-.928-.288-1.176-.184-.256-.484-.384-.9-.384-.488 0-.872.168-1.152.504-.28.328-.42.78-.42 1.356v3.432h-1.092v-3.732c0-.536-.096-.928-.288-1.176-.192-.256-.496-.384-.912-.384-.496 0-.884.168-1.164.504-.272.328-.408.78-.408 1.356v3.432z"/><path d="m616.912 352v-8.832h1.092v8.832zm5.234.084c-.528 0-.996-.124-1.404-.372-.4-.256-.712-.616-.936-1.08-.224-.472-.336-1.024-.336-1.656s.112-1.184.336-1.656c.232-.472.548-.84.948-1.104.408-.272.872-.408 1.392-.408.544 0 1.008.136 1.392.408.384.264.644.644.78 1.14l-.144.084v-1.476h1.08v6.036h-1.08v-1.512l.144.06c-.136.488-.396.868-.78 1.14-.384.264-.848.396-1.392.396zm.24-.888c.576 0 1.016-.192 1.32-.576.312-.392.468-.948.468-1.668s-.156-1.272-.468-1.656c-.312-.392-.752-.588-1.32-.588s-1.012.2-1.332.6-.48.956-.48 1.668.16 1.26.48 1.644.764.576 1.332.576zm4.686.804v-4.344c0-.28-.008-.56-.024-.84-.008-.288-.032-.572-.072-.852h1.032l.132 1.5-.132-.048c.104-.528.34-.924.708-1.188.376-.272.796-.408 1.26-.408.112 0 .212.008.3.024.096.008.184.024.264.048l-.012.996c-.2-.072-.424-.108-.672-.108-.408 0-.736.088-.984.264s-.428.4-.54.672-.168.564-.168.876v3.408zm6.989 2.676c-.92 0-1.72-.204-2.4-.612l.192-.876c.376.216.732.372 1.068.468.344.096.724.144 1.14.144.568 0 .996-.152 1.284-.456.296-.296.444-.74.444-1.332v-1.608l.132-.12c-.096.312-.248.584-.456.816-.2.224-.448.4-.744.528-.288.128-.62.192-.996.192-.528 0-.996-.124-1.404-.372-.408-.256-.728-.608-.96-1.056-.224-.448-.336-.972-.336-1.572s.112-1.124.336-1.572c.232-.456.552-.808.96-1.056.408-.256.876-.384 1.404-.384.552 0 1.02.136 1.404.408.392.272.656.648.792 1.128l-.144-.096v-1.284h1.092v5.952c0 .92-.24 1.608-.72 2.064-.472.464-1.168.696-2.088.696zm-.096-3.756c.568 0 1.012-.184 1.332-.552.32-.376.48-.892.48-1.548s-.16-1.172-.48-1.548-.764-.564-1.332-.564-1.016.188-1.344.564-.492.892-.492 1.548c0 .664.164 1.18.492 1.548s.776.552 1.344.552zm9.712.372c-.264.248-.604.444-1.02.588-.416.136-.84.204-1.272.204-.632 0-1.176-.124-1.632-.372s-.808-.604-1.056-1.068c-.248-.472-.372-1.032-.372-1.68 0-.624.12-1.172.36-1.644.248-.472.588-.84 1.02-1.104.432-.272.928-.408 1.488-.408.544 0 1.008.12 1.392.36.392.24.688.584.888 1.032.208.44.312.968.312 1.584v.192h-4.5v-.672h3.876l-.336.432c.016-.68-.116-1.2-.396-1.56s-.688-.54-1.224-.54c-.56 0-1 .2-1.32.6-.312.392-.468.944-.468 1.656 0 .768.168 1.348.504 1.74.336.384.832.576 1.488.576.352 0 .688-.056 1.008-.168.32-.12.624-.296.912-.528z"/><path d="m800.084 346.804v-.84h3.708v.84zm3.888-2.664c-.232-.064-.44-.096-.624-.096-.192 0-.364.036-.516.108-.152.064-.272.184-.36.36-.088.168-.132.404-.132.708v6.78h-1.092v-6.888c0-.664.164-1.16.492-1.488.336-.336.796-.504 1.38-.504.144 0 .284.008.42.024.144.016.288.044.432.084zm3.55 7.944c-.584 0-1.096-.128-1.536-.384-.432-.256-.768-.616-1.008-1.08-.24-.472-.36-1.028-.36-1.668 0-.632.12-1.184.36-1.656.24-.48.576-.848 1.008-1.104.44-.256.952-.384 1.536-.384.592 0 1.104.128 1.536.384s.768.624 1.008 1.104c.24.472.36 1.024.36 1.656 0 .64-.12 1.196-.36 1.668-.24.464-.576.824-1.008 1.08s-.944.384-1.536.384zm0-.888c.576 0 1.02-.188 1.332-.564.312-.384.468-.944.468-1.68 0-.728-.16-1.284-.48-1.668-.312-.384-.752-.576-1.32-.576-.56 0-1 .192-1.32.576s-.48.94-.48 1.668c0 .736.156 1.296.468 1.68.312.376.756.564 1.332.564zm6.962.888c-.608 0-1.132-.128-1.572-.384-.432-.256-.768-.616-1.008-1.08s-.36-1.012-.36-1.644c0-.624.12-1.176.36-1.656.248-.48.596-.852 1.044-1.116s.976-.396 1.584-.396c.416 0 .816.072 1.2.216.384.136.7.328.948.576l-.348.792c-.288-.224-.576-.392-.864-.504-.28-.12-.572-.18-.876-.18-.584 0-1.052.196-1.404.588-.344.392-.516.952-.516 1.68 0 .712.172 1.26.516 1.644s.816.576 1.416.576c.288 0 .576-.056.864-.168s.576-.284.864-.516l.348.792c-.256.24-.58.432-.972.576-.392.136-.8.204-1.224.204zm5.533 0c-.728 0-1.276-.2-1.644-.6-.36-.408-.54-1.008-.54-1.8v-3.72h1.092v3.708c0 .52.104.904.312 1.152.216.24.544.36.984.36.512 0 .924-.164 1.236-.492.312-.336.468-.78.468-1.332v-3.396h1.104v6.036h-1.068v-1.296l.144-.06c-.16.472-.428.832-.804 1.08-.376.24-.804.36-1.284.36zm6.901 0c-1.032 0-1.852-.26-2.46-.78l.348-.792c.32.248.652.432.996.552.352.112.736.168 1.152.168.432 0 .76-.072.984-.216.232-.152.348-.368.348-.648 0-.224-.08-.4-.24-.528-.152-.136-.408-.248-.768-.336l-1.008-.24c-.52-.112-.92-.312-1.2-.6-.272-.288-.408-.636-.408-1.044 0-.352.096-.664.288-.936.2-.272.476-.484.828-.636.352-.16.768-.24 1.248-.24.424 0 .824.068 1.2.204.384.136.708.332.972.588l-.348.78c-.288-.24-.584-.416-.888-.528-.304-.12-.62-.18-.948-.18-.408 0-.728.08-.96.24-.224.16-.336.376-.336.648 0 .232.072.416.216.552s.372.244.684.324l1.02.252c.576.12 1 .32 1.272.6.272.272.408.624.408 1.056 0 .528-.216.952-.648 1.272-.432.312-1.016.468-1.752.468z"/><path d="m67 370.08c-.82 0-1.4433-.307-1.87-.92-.4267-.62-.64-1.527-.64-2.72s.21-2.097.63-2.71c.4267-.62 1.0533-.93 1.88-.93s1.45.31 1.87.93c.4267.613.64 1.513.64 2.7 0 1.193-.2133 2.1-.64 2.72s-1.05.93-1.87.93zm0-.76c.54 0 .9367-.233 1.19-.7.26-.467.39-1.197.39-2.19s-.13-1.717-.39-2.17c-.2533-.46-.65-.69-1.19-.69s-.94.23-1.2.69c-.2533.46-.38 1.183-.38 2.17 0 .993.1267 1.723.38 2.19.26.467.66.7 1.2.7zm6.4328.68v-.7l2.48-2.72c.32-.36.5533-.683.7-.97.1533-.293.23-.587.23-.88 0-.373-.11-.66-.33-.86-.22-.207-.53-.31-.93-.31-.34 0-.6767.07-1.01.21-.3333.133-.6633.333-.99.6l-.34-.7c.28-.267.6333-.477 1.06-.63.4333-.16.8667-.24 1.3-.24.4467 0 .83.077 1.15.23.32.147.57.363.75.65.18.28.27.613.27 1 0 .407-.0933.797-.28 1.17-.18.373-.48.793-.9 1.26l-2.35 2.53-.08-.41h3.9v.77zm5.9561 2.16v-5.78c0-.233-.0067-.467-.02-.7-.0067-.24-.0267-.477-.06-.71h.86l.09 1.03-.08.13c.1133-.413.33-.73.65-.95.32-.227.7033-.34 1.15-.34.44 0 .8267.113 1.16.34.34.22.6033.527.79.92.1933.393.29.853.29 1.38s-.0967.987-.29 1.38c-.1867.387-.4467.687-.78.9-.3333.207-.7233.31-1.17.31s-.83-.11-1.15-.33c-.32-.227-.5367-.543-.65-.95l.12-.11v3.48zm2.4-2.83c.4733 0 .84-.16 1.1-.48s.39-.777.39-1.37-.13-1.057-.39-1.39-.6267-.5-1.1-.5c-.48 0-.85.163-1.11.49-.26.32-.39.78-.39 1.38s.13 1.063.39 1.39c.26.32.63.48 1.11.48zm7.0075.67-1.54-1.92-.53-.67-1.98-2.44h1.1l1.41 1.78.54.66 2.08 2.59zm-3.07 0h-1.1l2.1-2.59.53-.66 1.4-1.78h1.11l-1.97 2.44-.54.67zm10.5676 0v-5.96h.26l-2.85 4.1.01-.41h4.56v.75h-5.22v-.69l3.4-4.91h.76v7.12zm3.0461 2.16v-5.78c0-.233-.0067-.467-.02-.7-.0067-.24-.0267-.477-.06-.71h.8599l.09 1.03-.08.13c.113-.413.33-.73.65-.95.32-.227.703-.34 1.15-.34.44 0 .827.113 1.16.34.34.22.603.527.79.92.193.393.29.853.29 1.38s-.097.987-.29 1.38c-.187.387-.447.687-.78.9-.333.207-.723.31-1.17.31s-.83-.11-1.15-.33c-.32-.227-.537-.543-.65-.95l.12-.11v3.48zm2.3999-2.83c.473 0 .84-.16 1.1-.48s.39-.777.39-1.37-.13-1.057-.39-1.39-.627-.5-1.1-.5c-.48 0-.85.163-1.11.49-.26.32-.39.78-.39 1.38s.13 1.063.39 1.39c.26.32.63.48 1.11.48zm7.008.67-1.54-1.92-.53-.67-1.98-2.44h1.1l1.41 1.78.54.66 2.08 2.59zm-3.07 0h-1.1l2.1-2.59.53-.66 1.4-1.78h1.11l-1.97 2.44-.54.67zm7.617 0v-3.62c0-.233-.007-.467-.02-.7-.007-.24-.027-.477-.06-.71h.86l.11 1.25-.11-.04c.087-.44.283-.77.59-.99.313-.227.663-.34 1.05-.34.093 0 .177.007.25.02.08.007.153.02.22.04l-.01.83c-.167-.06-.353-.09-.56-.09-.34 0-.613.073-.82.22s-.357.333-.45.56-.14.47-.14.73v2.84zm5.824 2.23c-.767 0-1.433-.17-2-.51l.16-.73c.313.18.61.31.89.39.287.08.603.12.95.12.473 0 .83-.127 1.07-.38.247-.247.37-.617.37-1.11v-1.34l.11-.1c-.08.26-.207.487-.38.68-.167.187-.373.333-.62.44-.24.107-.517.16-.83.16-.44 0-.83-.103-1.17-.31-.34-.213-.607-.507-.8-.88-.187-.373-.28-.81-.28-1.31s.093-.937.28-1.31c.193-.38.46-.673.8-.88.34-.213.73-.32 1.17-.32.46 0 .85.113 1.17.34.327.227.547.54.66.94l-.12-.08v-1.07h.91v4.96c0 .767-.2 1.34-.6 1.72-.393.387-.973.58-1.74.58zm-.08-3.13c.473 0 .843-.153 1.11-.46.267-.313.4-.743.4-1.29s-.133-.977-.4-1.29-.637-.47-1.11-.47-.847.157-1.12.47-.41.743-.41 1.29c0 .553.137.983.41 1.29s.647.46 1.12.46zm3.934.9v-7.36h.91v3.6l-.12-.12c.113-.4.33-.713.65-.94s.703-.34 1.15-.34.837.107 1.17.32.593.517.78.91c.193.387.29.843.29 1.37s-.097.99-.29 1.39c-.187.393-.45.7-.79.92-.333.213-.72.32-1.16.32-.447 0-.83-.11-1.15-.33-.32-.227-.537-.543-.65-.95l.11-.12v1.33zm2.4-.67c.473 0 .84-.163 1.1-.49.26-.333.39-.8.39-1.4 0-.587-.13-1.04-.39-1.36-.26-.327-.627-.49-1.1-.49-.48 0-.85.163-1.11.49s-.39.787-.39 1.38c0 .6.13 1.063.39 1.39.26.32.63.48 1.11.48zm5.565.74c-.44 0-.83-.103-1.17-.31-.333-.213-.593-.513-.78-.9-.187-.393-.28-.853-.28-1.38s.093-.987.28-1.38c.193-.393.457-.7.79-.92.34-.227.727-.34 1.16-.34.453 0 .84.113 1.16.34.32.22.537.537.65.95l-.12.07v-1.23h.9v5.03h-.9v-1.26l.12.05c-.113.407-.33.723-.65.95-.32.22-.707.33-1.16.33zm.2-.74c.48 0 .847-.16 1.1-.48.26-.327.39-.79.39-1.39s-.13-1.06-.39-1.38c-.26-.327-.627-.49-1.1-.49s-.843.167-1.11.5-.4.797-.4 1.39.133 1.05.4 1.37.637.48 1.11.48zm5.345 2.49c-.28-.52-.506-1.027-.68-1.52-.166-.493-.29-.983-.37-1.47-.073-.487-.11-.983-.11-1.49s.04-1.003.12-1.49c.08-.493.204-.983.37-1.47.167-.493.39-.993.67-1.5h.75c-.246.593-.443 1.143-.59 1.65-.14.507-.24.99-.3 1.45-.053.46-.08.913-.08 1.36 0 .453.027.91.08 1.37.06.46.16.943.3 1.45.147.513.34 1.067.58 1.66zm4.062-1.74c-.82 0-1.443-.307-1.87-.92-.427-.62-.64-1.527-.64-2.72s.21-2.097.63-2.71c.427-.62 1.053-.93 1.88-.93s1.45.31 1.87.93c.427.613.64 1.513.64 2.7 0 1.193-.213 2.1-.64 2.72s-1.05.93-1.87.93zm0-.76c.54 0 .937-.233 1.19-.7.26-.467.39-1.197.39-2.19s-.13-1.717-.39-2.17c-.253-.46-.65-.69-1.19-.69s-.94.23-1.2.69c-.253.46-.38 1.183-.38 2.17 0 .993.127 1.723.38 2.19.26.467.66.7 1.2.7zm4.076 1.87-.41-.31c.187-.2.313-.383.38-.55s.1-.34.1-.52l.26.19h-.79v-1.11h1.11v.77c0 .287-.047.553-.14.8s-.263.49-.51.73zm6.91-1.11c-.82 0-1.443-.307-1.87-.92-.426-.62-.64-1.527-.64-2.72s.21-2.097.63-2.71c.427-.62 1.054-.93 1.88-.93.827 0 1.45.31 1.87.93.427.613.64 1.513.64 2.7 0 1.193-.213 2.1-.64 2.72-.426.62-1.05.93-1.87.93zm0-.76c.54 0 .937-.233 1.19-.7.26-.467.39-1.197.39-2.19s-.13-1.717-.39-2.17c-.253-.46-.65-.69-1.19-.69s-.94.23-1.2.69c-.253.46-.38 1.183-.38 2.17 0 .993.127 1.723.38 2.19.26.467.66.7 1.2.7zm4.076 1.87-.41-.31c.187-.2.314-.383.38-.55.067-.167.1-.34.1-.52l.26.19h-.79v-1.11h1.11v.77c0 .287-.046.553-.14.8-.093.247-.263.49-.51.73zm6.911-1.11c-.82 0-1.444-.307-1.87-.92-.427-.62-.64-1.527-.64-2.72s.21-2.097.63-2.71c.426-.62 1.053-.93 1.88-.93.826 0 1.45.31 1.87.93.426.613.64 1.513.64 2.7 0 1.193-.214 2.1-.64 2.72-.427.62-1.05.93-1.87.93zm0-.76c.54 0 .936-.233 1.19-.7.26-.467.39-1.197.39-2.19s-.13-1.717-.39-2.17c-.254-.46-.65-.69-1.19-.69s-.94.23-1.2.69c-.254.46-.38 1.183-.38 2.17 0 .993.126 1.723.38 2.19.26.467.66.7 1.2.7zm4.076 1.87-.41-.31c.186-.2.313-.383.38-.55.066-.167.1-.34.1-.52l.26.19h-.79v-1.11h1.11v.77c0 .287-.047.553-.14.8-.094.247-.264.49-.51.73zm6.91-1.11c-.82 0-1.443-.307-1.87-.92-.427-.62-.64-1.527-.64-2.72s.21-2.097.63-2.71c.427-.62 1.053-.93 1.88-.93s1.45.31 1.87.93c.427.613.64 1.513.64 2.7 0 1.193-.213 2.1-.64 2.72s-1.05.93-1.87.93zm0-.76c.54 0 .937-.233 1.19-.7.26-.467.39-1.197.39-2.19s-.13-1.717-.39-2.17c-.253-.46-.65-.69-1.19-.69s-.94.23-1.2.69c-.253.46-.38 1.183-.38 2.17 0 .993.127 1.723.38 2.19.26.467.66.7 1.2.7zm3.616-.43h1.11v1.11h-1.11zm4.544.69v-6.11l.51.21-1.97 1.24v-.87l1.86-1.17h.53v6.7zm-1.57.42v-.77h4.07v.77zm5.816 1.82h-.75c.246-.593.44-1.147.58-1.66.14-.507.24-.99.3-1.45s.09-.917.09-1.37c0-.447-.03-.9-.09-1.36s-.16-.943-.3-1.45-.334-1.057-.58-1.65h.75c.413.767.71 1.513.89 2.24s.27 1.467.27 2.22c0 .507-.04 1.003-.12 1.49-.074.487-.197.977-.37 1.47-.167.493-.39 1-.67 1.52z"/><path d="m987 370.09c-.807 0-1.427-.31-1.86-.93-.433-.627-.65-1.523-.65-2.69 0-1.187.217-2.083.65-2.69.433-.613 1.053-.92 1.86-.92.813 0 1.433.307 1.86.92.433.607.65 1.5.65 2.68 0 1.173-.217 2.073-.65 2.7-.433.62-1.053.93-1.86.93zm0-.79c.533 0 .93-.23 1.19-.69.267-.46.4-1.177.4-2.15s-.133-1.683-.4-2.13c-.26-.453-.657-.68-1.19-.68-.527 0-.923.227-1.19.68-.267.447-.4 1.157-.4 2.13s.133 1.69.4 2.15.663.69 1.19.69zm6.483.7v-.69l2.46-2.58c.32-.327.556-.64.71-.94.16-.3.24-.61.24-.93 0-.393-.124-.69-.37-.89-.24-.207-.594-.31-1.06-.31-.36 0-.7.067-1.02.2-.314.127-.614.323-.9.59l-.33-.71c.273-.267.616-.48 1.03-.64.42-.16.86-.24 1.32-.24.72 0 1.276.167 1.67.5.393.327.59.797.59 1.41 0 .447-.11.873-.33 1.28-.214.4-.53.813-.95 1.24l-2.15 2.18v-.26h3.72v.79zm5.906 2.16v-6c0-.193-.007-.39-.02-.59s-.033-.4-.06-.6h.881l.11 1.16h-.11c.1-.387.31-.69.64-.91.33-.227.72-.34 1.17-.34s.84.103 1.17.31.59.507.77.9c.19.387.28.85.28 1.39s-.09 1.007-.28 1.4c-.18.393-.44.693-.77.9s-.72.31-1.17.31-.83-.11-1.16-.33c-.32-.227-.54-.53-.65-.91h.11v3.31zm2.401-2.79c.46 0 .83-.16 1.1-.48s.41-.79.41-1.41-.14-1.087-.41-1.4-.64-.47-1.1-.47-.83.157-1.1.47-.4.78-.4 1.4.13 1.09.4 1.41.64.48 1.1.48zm2.84.63 2.28-2.82v.45l-2.15-2.66h1.09l1.57 2.01h-.33l1.57-2.01h1.08l-2.12 2.64v-.41l2.25 2.8h-1.1l-1.68-2.15h.33l-1.7 2.15zm11.74 0v-1.49h-3.31v-.67l3.46-4.89h.76v4.82h1.06v.74h-1.06v1.49zm0-2.23v-3.72h.23l-2.79 3.94v-.22zm2.97 4.39v-6c0-.193-.01-.39-.02-.59s-.03-.4-.06-.6h.88l.11 1.16h-.11c.1-.387.31-.69.64-.91.33-.227.72-.34 1.17-.34s.84.103 1.17.31.59.507.77.9c.19.387.28.85.28 1.39s-.09 1.007-.28 1.4c-.18.393-.44.693-.77.9s-.72.31-1.17.31-.83-.11-1.16-.33c-.32-.227-.54-.53-.65-.91h.11v3.31zm2.4-2.79c.46 0 .83-.16 1.1-.48s.41-.79.41-1.41-.14-1.087-.41-1.4-.64-.47-1.1-.47-.83.157-1.1.47-.4.78-.4 1.4.13 1.09.4 1.41.64.48 1.1.48zm2.84.63 2.28-2.82v.45l-2.15-2.66h1.09l1.57 2.01h-.33l1.57-2.01h1.08l-2.12 2.64v-.41l2.25 2.8h-1.1l-1.68-2.15h.33l-1.7 2.15zm8.71 0v-3.8c0-.2-.01-.403-.02-.61-.01-.213-.03-.42-.05-.62h.88l.11 1.26-.15.01c.06-.307.18-.56.34-.76.16-.207.36-.357.59-.45.23-.1.47-.15.72-.15.1 0 .19.003.27.01.07.007.14.023.22.05l-.02.81c-.1-.04-.2-.063-.28-.07-.08-.013-.18-.02-.3-.02-.3 0-.55.067-.76.2s-.37.31-.48.53-.16.457-.16.71v2.9zm5.88 2.24c-.44 0-.85-.053-1.21-.16-.37-.107-.7-.27-.99-.49l.24-.67c.2.14.41.253.61.34s.4.15.62.19.44.06.68.06c.49 0 .86-.127 1.11-.38.24-.253.37-.613.37-1.08v-1.41h.1c-.11.38-.33.683-.66.91-.33.22-.72.33-1.16.33-.46 0-.85-.1-1.19-.3-.34-.207-.6-.497-.78-.87-.19-.38-.28-.823-.28-1.33 0-.513.09-.957.28-1.33.18-.373.44-.66.78-.86.34-.207.73-.31 1.19-.31.44 0 .83.11 1.16.33.32.22.54.523.65.91l-.09-.09.09-1.06h.88c-.02.2-.04.4-.06.6s-.02.397-.02.59v3.78c0 .747-.2 1.317-.59 1.71s-.97.59-1.73.59zm-.09-3.08c.46 0 .82-.157 1.1-.47.27-.313.41-.75.41-1.31 0-.567-.14-1.003-.41-1.31-.28-.307-.64-.46-1.1-.46-.47 0-.84.153-1.12.46s-.41.743-.41 1.31c0 .56.13.997.41 1.31s.65.47 1.12.47zm6.54.93c-.44 0-.83-.11-1.16-.33-.32-.227-.54-.537-.65-.93h.11v1.17h-.91v-7.36h.91v3.48h-.11c.12-.387.33-.69.65-.91.33-.22.72-.33 1.16-.33.45 0 .84.107 1.17.32.34.207.59.503.77.89.19.387.28.853.28 1.4 0 .54-.09 1.007-.28 1.4-.18.387-.44.683-.78.89-.33.207-.72.31-1.16.31zm-.21-.72c.46 0 .82-.157 1.09-.47.28-.32.42-.79.42-1.41s-.14-1.087-.42-1.4c-.27-.32-.63-.48-1.09-.48s-.82.157-1.1.47c-.26.313-.4.78-.4 1.4s.14 1.09.4 1.41c.28.32.64.48 1.1.48zm5.58.72c-.44 0-.83-.103-1.16-.31-.34-.207-.6-.507-.78-.9-.19-.393-.28-.86-.28-1.4s.09-1.003.28-1.39c.18-.393.44-.693.78-.9.33-.207.72-.31 1.16-.31s.83.113 1.16.34c.33.22.55.523.66.91h-.12l.11-1.16h.88c-.02.2-.04.4-.06.6s-.02.397-.02.59v3.84h-.91v-1.15h.11c-.11.38-.33.683-.66.91-.33.22-.71.33-1.15.33zm.21-.72c.45 0 .81-.16 1.09-.48.27-.32.41-.79.41-1.41s-.14-1.087-.41-1.4c-.28-.313-.64-.47-1.09-.47-.46 0-.82.157-1.1.47s-.41.78-.41 1.4.13 1.09.41 1.41c.27.32.64.48 1.1.48zm5.42 2.43c-.29-.493-.52-.98-.71-1.46-.18-.473-.31-.953-.4-1.44-.08-.493-.12-1.003-.12-1.53 0-.533.04-1.043.12-1.53.09-.487.22-.967.4-1.44.19-.473.42-.957.71-1.45h.74c-.34.753-.6 1.497-.77 2.23-.17.727-.26 1.457-.26 2.19s.09 1.467.26 2.2.43 1.477.77 2.23zm4.01-1.71c-.8 0-1.42-.31-1.86-.93-.43-.627-.65-1.523-.65-2.69 0-1.187.22-2.083.65-2.69.44-.613 1.06-.92 1.86-.92.82 0 1.44.307 1.86.92.44.607.65 1.5.65 2.68 0 1.173-.21 2.073-.65 2.7-.43.62-1.05.93-1.86.93zm0-.79c.54 0 .93-.23 1.19-.69.27-.46.4-1.177.4-2.15s-.13-1.683-.4-2.13c-.26-.453-.65-.68-1.19-.68-.52 0-.92.227-1.19.68-.26.447-.4 1.157-.4 2.13s.14 1.69.4 2.15c.27.46.67.69 1.19.69zm4.07 1.89-.41-.32c.19-.193.31-.377.38-.55.07-.167.1-.34.1-.52l.2.2h-.73v-1.11h1.11v.77c0 .287-.05.55-.14.79-.09.247-.26.493-.51.74zm6.9-1.1c-.81 0-1.43-.31-1.86-.93-.43-.627-.65-1.523-.65-2.69 0-1.187.22-2.083.65-2.69.43-.613 1.05-.92 1.86-.92s1.43.307 1.86.92c.43.607.65 1.5.65 2.68 0 1.173-.22 2.073-.65 2.7-.43.62-1.05.93-1.86.93zm0-.79c.53 0 .93-.23 1.19-.69.27-.46.4-1.177.4-2.15s-.13-1.683-.4-2.13c-.26-.453-.66-.68-1.19-.68s-.92.227-1.19.68c-.27.447-.4 1.157-.4 2.13s.13 1.69.4 2.15.66.69 1.19.69zm4.07 1.89-.41-.32c.18-.193.31-.377.38-.55.06-.167.1-.34.1-.52l.2.2h-.73v-1.11h1.11v.77c0 .287-.05.55-.14.79-.1.247-.27.493-.51.74zm6.9-1.1c-.81 0-1.43-.31-1.86-.93-.44-.627-.65-1.523-.65-2.69 0-1.187.21-2.083.65-2.69.43-.613 1.05-.92 1.86-.92s1.43.307 1.86.92c.43.607.65 1.5.65 2.68 0 1.173-.22 2.073-.65 2.7-.44.62-1.06.93-1.86.93zm0-.79c.53 0 .93-.23 1.19-.69s.4-1.177.4-2.15-.14-1.683-.4-2.13c-.26-.453-.66-.68-1.19-.68s-.93.227-1.19.68c-.27.447-.4 1.157-.4 2.13s.13 1.69.4 2.15c.26.46.66.69 1.19.69zm4.06 1.89-.41-.32c.19-.193.32-.377.38-.55.07-.167.1-.34.1-.52l.2.2h-.73v-1.11h1.11v.77c0 .287-.04.55-.14.79-.09.247-.26.493-.51.74zm6.9-1.1c-.8 0-1.42-.31-1.86-.93-.43-.627-.65-1.523-.65-2.69 0-1.187.22-2.083.65-2.69.44-.613 1.06-.92 1.86-.92.82 0 1.44.307 1.86.92.44.607.65 1.5.65 2.68 0 1.173-.21 2.073-.65 2.7-.43.62-1.05.93-1.86.93zm0-.79c.54 0 .93-.23 1.19-.69.27-.46.4-1.177.4-2.15s-.13-1.683-.4-2.13c-.26-.453-.65-.68-1.19-.68-.52 0-.92.227-1.19.68-.26.447-.4 1.157-.4 2.13s.14 1.69.4 2.15c.27.46.67.69 1.19.69zm3.61.7v-1.11h1.11v1.11zm4.95.09c-.86 0-1.52-.303-1.99-.91-.46-.607-.7-1.453-.7-2.54 0-.813.12-1.5.35-2.06.24-.56.58-.987 1.02-1.28s.97-.44 1.58-.44c.38 0 .75.073 1.12.22.38.147.69.35.93.61l-.34.72c-.24-.253-.52-.44-.82-.56-.29-.127-.59-.19-.9-.19-.66 0-1.16.237-1.52.71-.34.467-.52 1.163-.52 2.09v.89h-.1c.05-.373.16-.693.34-.96.19-.267.43-.473.71-.62.3-.147.63-.22.99-.22.42 0 .8.097 1.12.29.33.193.59.457.77.79.19.333.28.72.28 1.16s-.1.837-.3 1.19c-.2.347-.47.62-.82.82-.34.193-.74.29-1.2.29zm-.05-.77c.3 0 .55-.063.77-.19.23-.127.4-.303.52-.53.13-.227.19-.487.19-.78s-.06-.553-.19-.78c-.12-.227-.29-.403-.52-.53-.22-.127-.47-.19-.77-.19-.29 0-.55.063-.78.19-.22.127-.39.303-.52.53-.12.227-.19.487-.19.78s.07.553.19.78c.13.227.3.403.52.53.23.127.49.19.78.19zm3.83 2.48h-.75c.34-.753.6-1.497.77-2.23.18-.733.27-1.467.27-2.2 0-.727-.09-1.457-.27-2.19-.17-.733-.43-1.477-.77-2.23h.75c.29.493.52.98.7 1.46.19.473.32.953.4 1.44.09.487.13.993.13 1.52 0 .533-.04 1.043-.13 1.53-.08.487-.21.967-.4 1.44-.18.48-.41.967-.7 1.46z"/><path d="m251 370.08c-.82 0-1.443-.307-1.87-.92-.427-.62-.64-1.527-.64-2.72s.21-2.097.63-2.71c.427-.62 1.053-.93 1.88-.93s1.45.31 1.87.93c.427.613.64 1.513.64 2.7 0 1.193-.213 2.1-.64 2.72s-1.05.93-1.87.93zm0-.76c.54 0 .937-.233 1.19-.7.26-.467.39-1.197.39-2.19s-.13-1.717-.39-2.17c-.253-.46-.65-.69-1.19-.69s-.94.23-1.2.69c-.253.46-.38 1.183-.38 2.17 0 .993.127 1.723.38 2.19.26.467.66.7 1.2.7zm9.343.68v-5.96h.26l-2.85 4.1.01-.41h4.56v.75h-5.22v-.69l3.4-4.91h.76v7.12zm3.046 2.16v-5.78c0-.233-.007-.467-.02-.7-.007-.24-.027-.477-.06-.71h.86l.09 1.03-.08.13c.113-.413.33-.73.65-.95.32-.227.703-.34 1.15-.34.44 0 .827.113 1.16.34.34.22.603.527.79.92.193.393.29.853.29 1.38s-.097.987-.29 1.38c-.187.387-.447.687-.78.9-.333.207-.723.31-1.17.31s-.83-.11-1.15-.33c-.32-.227-.537-.543-.65-.95l.12-.11v3.48zm2.4-2.83c.473 0 .84-.16 1.1-.48s.39-.777.39-1.37-.13-1.057-.39-1.39-.627-.5-1.1-.5c-.48 0-.85.163-1.11.49-.26.32-.39.78-.39 1.38s.13 1.063.39 1.39c.26.32.63.48 1.11.48zm7.007.67-1.54-1.92-.53-.67-1.98-2.44h1.1l1.41 1.78.54.66 2.08 2.59zm-3.07 0h-1.1l2.1-2.59.53-.66 1.4-1.78h1.11l-1.97 2.44-.54.67zm9.858.07c-.52 0-.973-.077-1.36-.23-.387-.16-.687-.387-.9-.68s-.32-.647-.32-1.06c0-.493.167-.9.5-1.22.333-.327.78-.53 1.34-.61l-.04.15c-.52-.1-.923-.303-1.21-.61-.28-.307-.42-.68-.42-1.12 0-.387.103-.72.31-1 .207-.287.49-.507.85-.66s.777-.23 1.25-.23.89.077 1.25.23.643.373.85.66c.207.28.31.613.31 1 0 .44-.143.817-.43 1.13-.28.307-.677.507-1.19.6l-.05-.15c.58.08 1.03.283 1.35.61.327.327.49.733.49 1.22 0 .413-.107.767-.32 1.06s-.513.52-.9.68c-.387.153-.84.23-1.36.23zm0-.75c.533 0 .943-.107 1.23-.32.293-.22.44-.54.44-.96 0-.387-.157-.69-.47-.91-.313-.227-.713-.367-1.2-.42-.487.053-.887.193-1.2.42-.313.22-.47.523-.47.91 0 .42.143.74.43.96.293.213.707.32 1.24.32zm0-3.24c.447-.053.807-.19 1.08-.41.28-.227.42-.527.42-.9 0-.387-.133-.687-.4-.9s-.633-.32-1.1-.32-.833.107-1.1.32-.4.513-.4.9c0 .373.137.673.41.9.28.22.643.357 1.09.41zm3.756 6.08v-5.78c0-.233-.007-.467-.02-.7-.007-.24-.027-.477-.06-.71h.86l.09 1.03-.08.13c.113-.413.33-.73.65-.95.32-.227.703-.34 1.15-.34.44 0 .827.113 1.16.34.34.22.603.527.79.92.193.393.29.853.29 1.38s-.097.987-.29 1.38c-.187.387-.447.687-.78.9-.333.207-.723.31-1.17.31s-.83-.11-1.15-.33c-.32-.227-.537-.543-.65-.95l.12-.11v3.48zm2.4-2.83c.473 0 .84-.16 1.1-.48s.39-.777.39-1.37-.13-1.057-.39-1.39-.627-.5-1.1-.5c-.48 0-.85.163-1.11.49-.26.32-.39.78-.39 1.38s.13 1.063.39 1.39c.26.32.63.48 1.11.48zm7.008.67-1.54-1.92-.53-.67-1.98-2.44h1.1l1.41 1.78.54.66 2.08 2.59zm-3.07 0h-1.1l2.1-2.59.53-.66 1.4-1.78h1.11l-1.97 2.44-.54.67zm7.617 0v-3.62c0-.233-.007-.467-.02-.7-.007-.24-.027-.477-.06-.71h.86l.11 1.25-.11-.04c.087-.44.283-.77.59-.99.313-.227.663-.34 1.05-.34.093 0 .177.007.25.02.08.007.153.02.22.04l-.01.83c-.167-.06-.353-.09-.56-.09-.34 0-.613.073-.82.22s-.357.333-.45.56-.14.47-.14.73v2.84zm5.824 2.23c-.767 0-1.433-.17-2-.51l.16-.73c.313.18.61.31.89.39.287.08.603.12.95.12.473 0 .83-.127 1.07-.38.247-.247.37-.617.37-1.11v-1.34l.11-.1c-.08.26-.207.487-.38.68-.167.187-.373.333-.62.44-.24.107-.517.16-.83.16-.44 0-.83-.103-1.17-.31-.34-.213-.607-.507-.8-.88-.187-.373-.28-.81-.28-1.31s.093-.937.28-1.31c.193-.38.46-.673.8-.88.34-.213.73-.32 1.17-.32.46 0 .85.113 1.17.34.327.227.547.54.66.94l-.12-.08v-1.07h.91v4.96c0 .767-.2 1.34-.6 1.72-.393.387-.973.58-1.74.58zm-.08-3.13c.473 0 .843-.153 1.11-.46.267-.313.4-.743.4-1.29s-.133-.977-.4-1.29-.637-.47-1.11-.47-.847.157-1.12.47-.41.743-.41 1.29c0 .553.137.983.41 1.29s.647.46 1.12.46zm3.934.9v-7.36h.91v3.6l-.12-.12c.113-.4.33-.713.65-.94s.703-.34 1.15-.34.837.107 1.17.32.593.517.78.91c.193.387.29.843.29 1.37s-.097.99-.29 1.39c-.187.393-.45.7-.79.92-.333.213-.72.32-1.16.32-.447 0-.83-.11-1.15-.33-.32-.227-.537-.543-.65-.95l.11-.12v1.33zm2.4-.67c.473 0 .84-.163 1.1-.49.26-.333.39-.8.39-1.4 0-.587-.13-1.04-.39-1.36-.26-.327-.627-.49-1.1-.49-.48 0-.85.163-1.11.49s-.39.787-.39 1.38c0 .6.13 1.063.39 1.39.26.32.63.48 1.11.48zm5.565.74c-.44 0-.83-.103-1.17-.31-.333-.213-.593-.513-.78-.9-.187-.393-.28-.853-.28-1.38s.093-.987.28-1.38c.193-.393.457-.7.79-.92.34-.227.727-.34 1.16-.34.453 0 .84.113 1.16.34.32.22.537.537.65.95l-.12.07v-1.23h.9v5.03h-.9v-1.26l.12.05c-.113.407-.33.723-.65.95-.32.22-.707.33-1.16.33zm.2-.74c.48 0 .847-.16 1.1-.48.26-.327.39-.79.39-1.39s-.13-1.06-.39-1.38c-.26-.327-.627-.49-1.1-.49s-.843.167-1.11.5-.4.797-.4 1.39.133 1.05.4 1.37.637.48 1.11.48zm5.345 2.49c-.28-.52-.506-1.027-.68-1.52-.166-.493-.29-.983-.37-1.47-.073-.487-.11-.983-.11-1.49s.04-1.003.12-1.49c.08-.493.204-.983.37-1.47.167-.493.39-.993.67-1.5h.75c-.246.593-.443 1.143-.59 1.65-.14.507-.24.99-.3 1.45-.053.46-.08.913-.08 1.36 0 .453.027.91.08 1.37.06.46.16.943.3 1.45.147.513.34 1.067.58 1.66zm4.062-1.74c-.82 0-1.443-.307-1.87-.92-.427-.62-.64-1.527-.64-2.72s.21-2.097.63-2.71c.427-.62 1.053-.93 1.88-.93s1.45.31 1.87.93c.427.613.64 1.513.64 2.7 0 1.193-.213 2.1-.64 2.72s-1.05.93-1.87.93zm0-.76c.54 0 .937-.233 1.19-.7.26-.467.39-1.197.39-2.19s-.13-1.717-.39-2.17c-.253-.46-.65-.69-1.19-.69s-.94.23-1.2.69c-.253.46-.38 1.183-.38 2.17 0 .993.127 1.723.38 2.19.26.467.66.7 1.2.7zm4.076 1.87-.41-.31c.187-.2.313-.383.38-.55s.1-.34.1-.52l.26.19h-.79v-1.11h1.11v.77c0 .287-.047.553-.14.8s-.263.49-.51.73zm6.91-1.11c-.82 0-1.443-.307-1.87-.92-.426-.62-.64-1.527-.64-2.72s.21-2.097.63-2.71c.427-.62 1.054-.93 1.88-.93.827 0 1.45.31 1.87.93.427.613.64 1.513.64 2.7 0 1.193-.213 2.1-.64 2.72-.426.62-1.05.93-1.87.93zm0-.76c.54 0 .937-.233 1.19-.7.26-.467.39-1.197.39-2.19s-.13-1.717-.39-2.17c-.253-.46-.65-.69-1.19-.69s-.94.23-1.2.69c-.253.46-.38 1.183-.38 2.17 0 .993.127 1.723.38 2.19.26.467.66.7 1.2.7zm4.076 1.87-.41-.31c.187-.2.314-.383.38-.55.067-.167.1-.34.1-.52l.26.19h-.79v-1.11h1.11v.77c0 .287-.046.553-.14.8-.093.247-.263.49-.51.73zm6.911-1.11c-.82 0-1.444-.307-1.87-.92-.427-.62-.64-1.527-.64-2.72s.21-2.097.63-2.71c.426-.62 1.053-.93 1.88-.93.826 0 1.45.31 1.87.93.426.613.64 1.513.64 2.7 0 1.193-.214 2.1-.64 2.72-.427.62-1.05.93-1.87.93zm0-.76c.54 0 .936-.233 1.19-.7.26-.467.39-1.197.39-2.19s-.13-1.717-.39-2.17c-.254-.46-.65-.69-1.19-.69s-.94.23-1.2.69c-.254.46-.38 1.183-.38 2.17 0 .993.126 1.723.38 2.19.26.467.66.7 1.2.7zm4.076 1.87-.41-.31c.186-.2.313-.383.38-.55.066-.167.1-.34.1-.52l.26.19h-.79v-1.11h1.11v.77c0 .287-.047.553-.14.8-.094.247-.264.49-.51.73zm6.91-1.11c-.82 0-1.443-.307-1.87-.92-.427-.62-.64-1.527-.64-2.72s.21-2.097.63-2.71c.427-.62 1.053-.93 1.88-.93s1.45.31 1.87.93c.427.613.64 1.513.64 2.7 0 1.193-.213 2.1-.64 2.72s-1.05.93-1.87.93zm0-.76c.54 0 .937-.233 1.19-.7.26-.467.39-1.197.39-2.19s-.13-1.717-.39-2.17c-.253-.46-.65-.69-1.19-.69s-.94.23-1.2.69c-.253.46-.38 1.183-.38 2.17 0 .993.127 1.723.38 2.19.26.467.66.7 1.2.7zm3.616-.43h1.11v1.11h-1.11zm4.544.69v-6.11l.51.21-1.97 1.24v-.87l1.86-1.17h.53v6.7zm-1.57.42v-.77h4.07v.77zm5.816 1.82h-.75c.246-.593.44-1.147.58-1.66.14-.507.24-.99.3-1.45s.09-.917.09-1.37c0-.447-.03-.9-.09-1.36s-.16-.943-.3-1.45-.334-1.057-.58-1.65h.75c.413.767.71 1.513.89 2.24s.27 1.467.27 2.22c0 .507-.04 1.003-.12 1.49-.074.487-.197.977-.37 1.47-.167.493-.39 1-.67 1.52z"/><path d="m435 370.08c-.82 0-1.443-.307-1.87-.92-.427-.62-.64-1.527-.64-2.72s.21-2.097.63-2.71c.427-.62 1.053-.93 1.88-.93s1.45.31 1.87.93c.427.613.64 1.513.64 2.7 0 1.193-.213 2.1-.64 2.72s-1.05.93-1.87.93zm0-.76c.54 0 .937-.233 1.19-.7.26-.467.39-1.197.39-2.19s-.13-1.717-.39-2.17c-.253-.46-.65-.69-1.19-.69s-.94.23-1.2.69c-.253.46-.38 1.183-.38 2.17 0 .993.127 1.723.38 2.19.26.467.66.7 1.2.7zm9.343.68v-5.96h.26l-2.85 4.1.01-.41h4.56v.75h-5.22v-.69l3.4-4.91h.76v7.12zm3.046 2.16v-5.78c0-.233-.007-.467-.02-.7-.007-.24-.027-.477-.06-.71h.86l.09 1.03-.08.13c.113-.413.33-.73.65-.95.32-.227.703-.34 1.15-.34.44 0 .827.113 1.16.34.34.22.603.527.79.92.193.393.29.853.29 1.38s-.097.987-.29 1.38c-.187.387-.447.687-.78.9-.333.207-.723.31-1.17.31s-.83-.11-1.15-.33c-.32-.227-.537-.543-.65-.95l.12-.11v3.48zm2.4-2.83c.473 0 .84-.16 1.1-.48s.39-.777.39-1.37-.13-1.057-.39-1.39-.627-.5-1.1-.5c-.48 0-.85.163-1.11.49-.26.32-.39.78-.39 1.38s.13 1.063.39 1.39c.26.32.63.48 1.11.48zm7.007.67-1.54-1.92-.53-.67-1.98-2.44h1.1l1.41 1.78.54.66 2.08 2.59zm-3.07 0h-1.1l2.1-2.59.53-.66 1.4-1.78h1.11l-1.97 2.44-.54.67zm9.668-.42v-6.11l.51.21-1.97 1.24v-.87l1.86-1.17h.53v6.7zm-1.57.42v-.77h4.07v.77zm7.986.08c-.867 0-1.537-.297-2.01-.89-.473-.6-.71-1.46-.71-2.58 0-.807.11-1.493.33-2.06s.537-1 .95-1.3c.42-.3.92-.45 1.5-.45.413 0 .813.073 1.2.22.393.147.74.363 1.04.65l-.33.7c-.333-.287-.657-.493-.97-.62-.307-.127-.61-.19-.91-.19-.6 0-1.063.263-1.39.79s-.49 1.277-.49 2.25v.78l-.13-.26c.053-.327.173-.61.36-.85.193-.247.43-.433.71-.56.287-.133.603-.2.95-.2.44 0 .823.097 1.15.29.333.187.593.45.78.79s.28.733.28 1.18-.1.847-.3 1.2c-.193.347-.463.62-.81.82-.347.193-.747.29-1.2.29zm-.04-.76c.433 0 .783-.14 1.05-.42s.4-.65.4-1.11c0-.453-.133-.82-.4-1.1s-.62-.42-1.06-.42c-.293 0-.557.067-.79.2-.227.133-.403.313-.53.54s-.19.487-.19.78c0 .307.063.573.19.8s.303.407.53.54c.233.127.5.19.8.19zm3.566 2.84v-5.78c0-.233-.006-.467-.02-.7-.006-.24-.026-.477-.06-.71h.86l.09 1.03-.08.13c.114-.413.33-.73.65-.95.32-.227.704-.34 1.15-.34.44 0 .827.113 1.16.34.34.22.604.527.79.92.194.393.29.853.29 1.38s-.096.987-.29 1.38c-.186.387-.446.687-.78.9-.333.207-.723.31-1.17.31-.446 0-.83-.11-1.15-.33-.32-.227-.536-.543-.65-.95l.12-.11v3.48zm2.4-2.83c.474 0 .84-.16 1.1-.48s.39-.777.39-1.37-.13-1.057-.39-1.39-.626-.5-1.1-.5c-.48 0-.85.163-1.11.49-.26.32-.39.78-.39 1.38s.13 1.063.39 1.39c.26.32.63.48 1.11.48zm7.008.67-1.54-1.92-.53-.67-1.98-2.44h1.1l1.41 1.78.54.66 2.08 2.59zm-3.07 0h-1.1l2.1-2.59.53-.66 1.4-1.78h1.11l-1.97 2.44-.54.67zm7.617 0v-3.62c0-.233-.006-.467-.02-.7-.006-.24-.026-.477-.06-.71h.86l.11 1.25-.11-.04c.087-.44.284-.77.59-.99.314-.227.664-.34 1.05-.34.094 0 .177.007.25.02.08.007.154.02.22.04l-.01.83c-.166-.06-.353-.09-.56-.09-.34 0-.613.073-.82.22-.206.147-.356.333-.45.56-.093.227-.14.47-.14.73v2.84zm5.824 2.23c-.767 0-1.433-.17-2-.51l.16-.73c.313.18.61.31.89.39.287.08.603.12.95.12.473 0 .83-.127 1.07-.38.247-.247.37-.617.37-1.11v-1.34l.11-.1c-.08.26-.207.487-.38.68-.167.187-.373.333-.62.44-.24.107-.517.16-.83.16-.44 0-.83-.103-1.17-.31-.34-.213-.607-.507-.8-.88-.187-.373-.28-.81-.28-1.31s.093-.937.28-1.31c.193-.38.46-.673.8-.88.34-.213.73-.32 1.17-.32.46 0 .85.113 1.17.34.327.227.547.54.66.94l-.12-.08v-1.07h.91v4.96c0 .767-.2 1.34-.6 1.72-.393.387-.973.58-1.74.58zm-.08-3.13c.473 0 .843-.153 1.11-.46.267-.313.4-.743.4-1.29s-.133-.977-.4-1.29-.637-.47-1.11-.47-.847.157-1.12.47-.41.743-.41 1.29c0 .553.137.983.41 1.29s.647.46 1.12.46zm3.934.9v-7.36h.91v3.6l-.12-.12c.113-.4.33-.713.65-.94s.703-.34 1.15-.34.837.107 1.17.32.593.517.78.91c.193.387.29.843.29 1.37s-.097.99-.29 1.39c-.187.393-.45.7-.79.92-.333.213-.72.32-1.16.32-.447 0-.83-.11-1.15-.33-.32-.227-.537-.543-.65-.95l.11-.12v1.33zm2.4-.67c.473 0 .84-.163 1.1-.49.26-.333.39-.8.39-1.4 0-.587-.13-1.04-.39-1.36-.26-.327-.627-.49-1.1-.49-.48 0-.85.163-1.11.49s-.39.787-.39 1.38c0 .6.13 1.063.39 1.39.26.32.63.48 1.11.48zm5.565.74c-.44 0-.83-.103-1.17-.31-.333-.213-.593-.513-.78-.9-.187-.393-.28-.853-.28-1.38s.093-.987.28-1.38c.193-.393.457-.7.79-.92.34-.227.727-.34 1.16-.34.453 0 .84.113 1.16.34.32.22.537.537.65.95l-.12.07v-1.23h.9v5.03h-.9v-1.26l.12.05c-.113.407-.33.723-.65.95-.32.22-.707.33-1.16.33zm.2-.74c.48 0 .847-.16 1.1-.48.26-.327.39-.79.39-1.39s-.13-1.06-.39-1.38c-.26-.327-.627-.49-1.1-.49s-.843.167-1.11.5-.4.797-.4 1.39.133 1.05.4 1.37.637.48 1.11.48zm5.345 2.49c-.28-.52-.506-1.027-.68-1.52-.166-.493-.29-.983-.37-1.47-.073-.487-.11-.983-.11-1.49s.04-1.003.12-1.49c.08-.493.204-.983.37-1.47.167-.493.39-.993.67-1.5h.75c-.246.593-.443 1.143-.59 1.65-.14.507-.24.99-.3 1.45-.053.46-.08.913-.08 1.36 0 .453.027.91.08 1.37.06.46.16.943.3 1.45.147.513.34 1.067.58 1.66zm4.062-1.74c-.82 0-1.443-.307-1.87-.92-.427-.62-.64-1.527-.64-2.72s.21-2.097.63-2.71c.427-.62 1.053-.93 1.88-.93s1.45.31 1.87.93c.427.613.64 1.513.64 2.7 0 1.193-.213 2.1-.64 2.72s-1.05.93-1.87.93zm0-.76c.54 0 .937-.233 1.19-.7.26-.467.39-1.197.39-2.19s-.13-1.717-.39-2.17c-.253-.46-.65-.69-1.19-.69s-.94.23-1.2.69c-.253.46-.38 1.183-.38 2.17 0 .993.127 1.723.38 2.19.26.467.66.7 1.2.7zm4.076 1.87-.41-.31c.187-.2.313-.383.38-.55s.1-.34.1-.52l.26.19h-.79v-1.11h1.11v.77c0 .287-.047.553-.14.8s-.263.49-.51.73zm6.91-1.11c-.82 0-1.443-.307-1.87-.92-.426-.62-.64-1.527-.64-2.72s.21-2.097.63-2.71c.427-.62 1.054-.93 1.88-.93.827 0 1.45.31 1.87.93.427.613.64 1.513.64 2.7 0 1.193-.213 2.1-.64 2.72-.426.62-1.05.93-1.87.93zm0-.76c.54 0 .937-.233 1.19-.7.26-.467.39-1.197.39-2.19s-.13-1.717-.39-2.17c-.253-.46-.65-.69-1.19-.69s-.94.23-1.2.69c-.253.46-.38 1.183-.38 2.17 0 .993.127 1.723.38 2.19.26.467.66.7 1.2.7zm4.076 1.87-.41-.31c.187-.2.314-.383.38-.55.067-.167.1-.34.1-.52l.26.19h-.79v-1.11h1.11v.77c0 .287-.046.553-.14.8-.093.247-.263.49-.51.73zm6.911-1.11c-.82 0-1.444-.307-1.87-.92-.427-.62-.64-1.527-.64-2.72s.21-2.097.63-2.71c.426-.62 1.053-.93 1.88-.93.826 0 1.45.31 1.87.93.426.613.64 1.513.64 2.7 0 1.193-.214 2.1-.64 2.72-.427.62-1.05.93-1.87.93zm0-.76c.54 0 .936-.233 1.19-.7.26-.467.39-1.197.39-2.19s-.13-1.717-.39-2.17c-.254-.46-.65-.69-1.19-.69s-.94.23-1.2.69c-.254.46-.38 1.183-.38 2.17 0 .993.126 1.723.38 2.19.26.467.66.7 1.2.7zm4.076 1.87-.41-.31c.186-.2.313-.383.38-.55.066-.167.1-.34.1-.52l.26.19h-.79v-1.11h1.11v.77c0 .287-.047.553-.14.8-.094.247-.264.49-.51.73zm6.91-1.11c-.82 0-1.443-.307-1.87-.92-.427-.62-.64-1.527-.64-2.72s.21-2.097.63-2.71c.427-.62 1.053-.93 1.88-.93s1.45.31 1.87.93c.427.613.64 1.513.64 2.7 0 1.193-.213 2.1-.64 2.72s-1.05.93-1.87.93zm0-.76c.54 0 .937-.233 1.19-.7.26-.467.39-1.197.39-2.19s-.13-1.717-.39-2.17c-.253-.46-.65-.69-1.19-.69s-.94.23-1.2.69c-.253.46-.38 1.183-.38 2.17 0 .993.127 1.723.38 2.19.26.467.66.7 1.2.7zm3.616-.43h1.11v1.11h-1.11zm2.534 1.11v-.7l2.48-2.72c.32-.36.553-.683.7-.97.153-.293.23-.587.23-.88 0-.373-.11-.66-.33-.86-.22-.207-.53-.31-.93-.31-.34 0-.677.07-1.01.21-.334.133-.664.333-.99.6l-.34-.7c.28-.267.633-.477 1.06-.63.433-.16.866-.24 1.3-.24.446 0 .83.077 1.15.23.32.147.57.363.75.65.18.28.27.613.27 1 0 .407-.094.797-.28 1.17-.18.373-.48.793-.9 1.26l-2.35 2.53-.08-.41h3.9v.77zm6.256 1.82h-.75c.246-.593.44-1.147.58-1.66.14-.507.24-.99.3-1.45s.09-.917.09-1.37c0-.447-.03-.9-.09-1.36s-.16-.943-.3-1.45-.334-1.057-.58-1.65h.75c.413.767.71 1.513.89 2.24s.27 1.467.27 2.22c0 .507-.04 1.003-.12 1.49-.074.487-.197.977-.37 1.47-.167.493-.39 1-.67 1.52z"/><path d="m619 370.08c-.82 0-1.443-.307-1.87-.92-.427-.62-.64-1.527-.64-2.72s.21-2.097.63-2.71c.427-.62 1.053-.93 1.88-.93s1.45.31 1.87.93c.427.613.64 1.513.64 2.7 0 1.193-.213 2.1-.64 2.72s-1.05.93-1.87.93zm0-.76c.54 0 .937-.233 1.19-.7.26-.467.39-1.197.39-2.19s-.13-1.717-.39-2.17c-.253-.46-.65-.69-1.19-.69s-.94.23-1.2.69c-.253.46-.38 1.183-.38 2.17 0 .993.127 1.723.38 2.19.26.467.66.7 1.2.7zm8.633.75c-.52 0-.974-.077-1.36-.23-.387-.16-.687-.387-.9-.68-.214-.293-.32-.647-.32-1.06 0-.493.166-.9.5-1.22.333-.327.78-.53 1.34-.61l-.04.15c-.52-.1-.924-.303-1.21-.61-.28-.307-.42-.68-.42-1.12 0-.387.103-.72.31-1 .206-.287.49-.507.85-.66s.776-.23 1.25-.23c.473 0 .89.077 1.25.23s.643.373.85.66c.206.28.31.613.31 1 0 .44-.144.817-.43 1.13-.28.307-.677.507-1.19.6l-.05-.15c.58.08 1.03.283 1.35.61.326.327.49.733.49 1.22 0 .413-.107.767-.32 1.06-.214.293-.514.52-.9.68-.387.153-.84.23-1.36.23zm0-.75c.533 0 .943-.107 1.23-.32.293-.22.44-.54.44-.96 0-.387-.157-.69-.47-.91-.314-.227-.714-.367-1.2-.42-.487.053-.887.193-1.2.42-.314.22-.47.523-.47.91 0 .42.143.74.43.96.293.213.706.32 1.24.32zm0-3.24c.446-.053.806-.19 1.08-.41.28-.227.42-.527.42-.9 0-.387-.134-.687-.4-.9-.267-.213-.634-.32-1.1-.32-.467 0-.834.107-1.1.32-.267.213-.4.513-.4.9 0 .373.136.673.41.9.28.22.643.357 1.09.41zm3.756 6.08v-5.78c0-.233-.007-.467-.02-.7-.007-.24-.027-.477-.06-.71h.86l.09 1.03-.08.13c.113-.413.33-.73.65-.95.32-.227.703-.34 1.15-.34.44 0 .827.113 1.16.34.34.22.603.527.79.92.193.393.29.853.29 1.38s-.097.987-.29 1.38c-.187.387-.447.687-.78.9-.333.207-.723.31-1.17.31s-.83-.11-1.15-.33c-.32-.227-.537-.543-.65-.95l.12-.11v3.48zm2.4-2.83c.473 0 .84-.16 1.1-.48s.39-.777.39-1.37-.13-1.057-.39-1.39-.627-.5-1.1-.5c-.48 0-.85.163-1.11.49-.26.32-.39.78-.39 1.38s.13 1.063.39 1.39c.26.32.63.48 1.11.48zm7.007.67-1.54-1.92-.53-.67-1.98-2.44h1.1l1.41 1.78.54.66 2.08 2.59zm-3.07 0h-1.1l2.1-2.59.53-.66 1.4-1.78h1.11l-1.97 2.44-.54.67zm7.658 0v-.7l2.48-2.72c.32-.36.553-.683.7-.97.153-.293.23-.587.23-.88 0-.373-.11-.66-.33-.86-.22-.207-.53-.31-.93-.31-.34 0-.677.07-1.01.21-.333.133-.663.333-.99.6l-.34-.7c.28-.267.633-.477 1.06-.63.433-.16.867-.24 1.3-.24.447 0 .83.077 1.15.23.32.147.57.363.75.65.18.28.27.613.27 1 0 .407-.093.797-.28 1.17-.18.373-.48.793-.9 1.26l-2.35 2.53-.08-.41h3.9v.77zm8.196.08c-.82 0-1.443-.307-1.87-.92-.427-.62-.64-1.527-.64-2.72s.21-2.097.63-2.71c.427-.62 1.053-.93 1.88-.93s1.45.31 1.87.93c.427.613.64 1.513.64 2.7 0 1.193-.213 2.1-.64 2.72s-1.05.93-1.87.93zm0-.76c.54 0 .937-.233 1.19-.7.26-.467.39-1.197.39-2.19s-.13-1.717-.39-2.17c-.253-.46-.65-.69-1.19-.69s-.94.23-1.2.69c-.253.46-.38 1.183-.38 2.17 0 .993.127 1.723.38 2.19.26.467.66.7 1.2.7zm3.756 2.84v-5.78c0-.233-.006-.467-.02-.7-.006-.24-.026-.477-.06-.71h.86l.09 1.03-.08.13c.114-.413.33-.73.65-.95.32-.227.704-.34 1.15-.34.44 0 .827.113 1.16.34.34.22.604.527.79.92.194.393.29.853.29 1.38s-.096.987-.29 1.38c-.186.387-.446.687-.78.9-.333.207-.723.31-1.17.31-.446 0-.83-.11-1.15-.33-.32-.227-.536-.543-.65-.95l.12-.11v3.48zm2.4-2.83c.474 0 .84-.16 1.1-.48s.39-.777.39-1.37-.13-1.057-.39-1.39-.626-.5-1.1-.5c-.48 0-.85.163-1.11.49-.26.32-.39.78-.39 1.38s.13 1.063.39 1.39c.26.32.63.48 1.11.48zm7.008.67-1.54-1.92-.53-.67-1.98-2.44h1.1l1.41 1.78.54.66 2.08 2.59zm-3.07 0h-1.1l2.1-2.59.53-.66 1.4-1.78h1.11l-1.97 2.44-.54.67zm7.617 0v-3.62c0-.233-.006-.467-.02-.7-.006-.24-.026-.477-.06-.71h.86l.11 1.25-.11-.04c.087-.44.284-.77.59-.99.314-.227.664-.34 1.05-.34.094 0 .177.007.25.02.08.007.154.02.22.04l-.01.83c-.166-.06-.353-.09-.56-.09-.34 0-.613.073-.82.22-.206.147-.356.333-.45.56-.093.227-.14.47-.14.73v2.84zm5.824 2.23c-.767 0-1.433-.17-2-.51l.16-.73c.313.18.61.31.89.39.287.08.603.12.95.12.473 0 .83-.127 1.07-.38.247-.247.37-.617.37-1.11v-1.34l.11-.1c-.08.26-.207.487-.38.68-.167.187-.373.333-.62.44-.24.107-.517.16-.83.16-.44 0-.83-.103-1.17-.31-.34-.213-.607-.507-.8-.88-.187-.373-.28-.81-.28-1.31s.093-.937.28-1.31c.193-.38.46-.673.8-.88.34-.213.73-.32 1.17-.32.46 0 .85.113 1.17.34.327.227.547.54.66.94l-.12-.08v-1.07h.91v4.96c0 .767-.2 1.34-.6 1.72-.393.387-.973.58-1.74.58zm-.08-3.13c.473 0 .843-.153 1.11-.46.267-.313.4-.743.4-1.29s-.133-.977-.4-1.29-.637-.47-1.11-.47-.847.157-1.12.47-.41.743-.41 1.29c0 .553.137.983.41 1.29s.647.46 1.12.46zm3.934.9v-7.36h.91v3.6l-.12-.12c.113-.4.33-.713.65-.94s.703-.34 1.15-.34.837.107 1.17.32.593.517.78.91c.193.387.29.843.29 1.37s-.097.99-.29 1.39c-.187.393-.45.7-.79.92-.333.213-.72.32-1.16.32-.447 0-.83-.11-1.15-.33-.32-.227-.537-.543-.65-.95l.11-.12v1.33zm2.4-.67c.473 0 .84-.163 1.1-.49.26-.333.39-.8.39-1.4 0-.587-.13-1.04-.39-1.36-.26-.327-.627-.49-1.1-.49-.48 0-.85.163-1.11.49s-.39.787-.39 1.38c0 .6.13 1.063.39 1.39.26.32.63.48 1.11.48zm5.565.74c-.44 0-.83-.103-1.17-.31-.333-.213-.593-.513-.78-.9-.187-.393-.28-.853-.28-1.38s.093-.987.28-1.38c.193-.393.457-.7.79-.92.34-.227.727-.34 1.16-.34.453 0 .84.113 1.16.34.32.22.537.537.65.95l-.12.07v-1.23h.9v5.03h-.9v-1.26l.12.05c-.113.407-.33.723-.65.95-.32.22-.707.33-1.16.33zm.2-.74c.48 0 .847-.16 1.1-.48.26-.327.39-.79.39-1.39s-.13-1.06-.39-1.38c-.26-.327-.627-.49-1.1-.49s-.843.167-1.11.5-.4.797-.4 1.39.133 1.05.4 1.37.637.48 1.11.48zm5.345 2.49c-.28-.52-.506-1.027-.68-1.52-.166-.493-.29-.983-.37-1.47-.073-.487-.11-.983-.11-1.49s.04-1.003.12-1.49c.08-.493.204-.983.37-1.47.167-.493.39-.993.67-1.5h.75c-.246.593-.443 1.143-.59 1.65-.14.507-.24.99-.3 1.45-.053.46-.08.913-.08 1.36 0 .453.027.91.08 1.37.06.46.16.943.3 1.45.147.513.34 1.067.58 1.66zm4.062-1.74c-.82 0-1.443-.307-1.87-.92-.427-.62-.64-1.527-.64-2.72s.21-2.097.63-2.71c.427-.62 1.053-.93 1.88-.93s1.45.31 1.87.93c.427.613.64 1.513.64 2.7 0 1.193-.213 2.1-.64 2.72s-1.05.93-1.87.93zm0-.76c.54 0 .937-.233 1.19-.7.26-.467.39-1.197.39-2.19s-.13-1.717-.39-2.17c-.253-.46-.65-.69-1.19-.69s-.94.23-1.2.69c-.253.46-.38 1.183-.38 2.17 0 .993.127 1.723.38 2.19.26.467.66.7 1.2.7zm4.076 1.87-.41-.31c.187-.2.313-.383.38-.55s.1-.34.1-.52l.26.19h-.79v-1.11h1.11v.77c0 .287-.047.553-.14.8s-.263.49-.51.73zm6.91-1.11c-.82 0-1.443-.307-1.87-.92-.426-.62-.64-1.527-.64-2.72s.21-2.097.63-2.71c.427-.62 1.054-.93 1.88-.93.827 0 1.45.31 1.87.93.427.613.64 1.513.64 2.7 0 1.193-.213 2.1-.64 2.72-.426.62-1.05.93-1.87.93zm0-.76c.54 0 .937-.233 1.19-.7.26-.467.39-1.197.39-2.19s-.13-1.717-.39-2.17c-.253-.46-.65-.69-1.19-.69s-.94.23-1.2.69c-.253.46-.38 1.183-.38 2.17 0 .993.127 1.723.38 2.19.26.467.66.7 1.2.7zm4.076 1.87-.41-.31c.187-.2.314-.383.38-.55.067-.167.1-.34.1-.52l.26.19h-.79v-1.11h1.11v.77c0 .287-.046.553-.14.8-.093.247-.263.49-.51.73zm6.911-1.11c-.82 0-1.444-.307-1.87-.92-.427-.62-.64-1.527-.64-2.72s.21-2.097.63-2.71c.426-.62 1.053-.93 1.88-.93.826 0 1.45.31 1.87.93.426.613.64 1.513.64 2.7 0 1.193-.214 2.1-.64 2.72-.427.62-1.05.93-1.87.93zm0-.76c.54 0 .936-.233 1.19-.7.26-.467.39-1.197.39-2.19s-.13-1.717-.39-2.17c-.254-.46-.65-.69-1.19-.69s-.94.23-1.2.69c-.254.46-.38 1.183-.38 2.17 0 .993.126 1.723.38 2.19.26.467.66.7 1.2.7zm4.076 1.87-.41-.31c.186-.2.313-.383.38-.55.066-.167.1-.34.1-.52l.26.19h-.79v-1.11h1.11v.77c0 .287-.047.553-.14.8-.094.247-.264.49-.51.73zm6.91-1.11c-.82 0-1.443-.307-1.87-.92-.427-.62-.64-1.527-.64-2.72s.21-2.097.63-2.71c.427-.62 1.053-.93 1.88-.93s1.45.31 1.87.93c.427.613.64 1.513.64 2.7 0 1.193-.213 2.1-.64 2.72s-1.05.93-1.87.93zm0-.76c.54 0 .937-.233 1.19-.7.26-.467.39-1.197.39-2.19s-.13-1.717-.39-2.17c-.253-.46-.65-.69-1.19-.69s-.94.23-1.2.69c-.253.46-.38 1.183-.38 2.17 0 .993.127 1.723.38 2.19.26.467.66.7 1.2.7zm3.616-.43h1.11v1.11h-1.11zm4.654 1.18c-.467 0-.914-.073-1.34-.22-.427-.153-.787-.37-1.08-.65l.35-.7c.313.267.64.47.98.61.34.133.693.2 1.06.2.493 0 .866-.107 1.12-.32.253-.22.38-.543.38-.97 0-.42-.13-.733-.39-.94s-.657-.31-1.19-.31h-.85v-.77h.69c.513 0 .903-.11 1.17-.33.266-.22.4-.537.4-.95 0-.373-.114-.66-.34-.86-.22-.2-.534-.3-.94-.3-.347 0-.687.07-1.02.21-.327.133-.65.333-.97.6l-.34-.7c.286-.273.64-.487 1.06-.64.426-.153.863-.23 1.31-.23.44 0 .82.077 1.14.23.326.147.576.36.75.64.18.273.27.597.27.97 0 .44-.117.813-.35 1.12-.227.307-.54.517-.94.63l-.02-.1c.473.1.836.303 1.09.61.253.307.38.697.38 1.17 0 .62-.217 1.11-.65 1.47-.427.353-1.004.53-1.73.53zm4.136 1.75h-.75c.246-.593.44-1.147.58-1.66.14-.507.24-.99.3-1.45s.09-.917.09-1.37c0-.447-.03-.9-.09-1.36s-.16-.943-.3-1.45-.334-1.057-.58-1.65h.75c.413.767.71 1.513.89 2.24s.27 1.467.27 2.22c0 .507-.04 1.003-.12 1.49-.074.487-.197.977-.37 1.47-.167.493-.39 1-.67 1.52z"/><path d="m803 370.08c-.82 0-1.443-.307-1.87-.92-.427-.62-.64-1.527-.64-2.72s.21-2.097.63-2.71c.427-.62 1.053-.93 1.88-.93s1.45.31 1.87.93c.427.613.64 1.513.64 2.7 0 1.193-.213 2.1-.64 2.72s-1.05.93-1.87.93zm0-.76c.54 0 .937-.233 1.19-.7.26-.467.39-1.197.39-2.19s-.13-1.717-.39-2.17c-.253-.46-.65-.69-1.19-.69s-.94.23-1.2.69c-.253.46-.38 1.183-.38 2.17 0 .993.127 1.723.38 2.19.26.467.66.7 1.2.7zm8.633.76c-.82 0-1.444-.307-1.87-.92-.427-.62-.64-1.527-.64-2.72s.21-2.097.63-2.71c.426-.62 1.053-.93 1.88-.93.826 0 1.45.31 1.87.93.426.613.64 1.513.64 2.7 0 1.193-.214 2.1-.64 2.72-.427.62-1.05.93-1.87.93zm0-.76c.54 0 .936-.233 1.19-.7.26-.467.39-1.197.39-2.19s-.13-1.717-.39-2.17c-.254-.46-.65-.69-1.19-.69s-.94.23-1.2.69c-.254.46-.38 1.183-.38 2.17 0 .993.126 1.723.38 2.19.26.467.66.7 1.2.7zm9.343.68v-5.96h.26l-2.85 4.1.01-.41h4.56v.75h-5.22v-.69l3.4-4.91h.76v7.12zm3.046 2.16v-5.78c0-.233-.007-.467-.02-.7-.007-.24-.027-.477-.06-.71h.86l.09 1.03-.08.13c.113-.413.33-.73.65-.95.32-.227.703-.34 1.15-.34.44 0 .826.113 1.16.34.34.22.603.527.79.92.193.393.29.853.29 1.38s-.097.987-.29 1.38c-.187.387-.447.687-.78.9-.334.207-.724.31-1.17.31-.447 0-.83-.11-1.15-.33-.32-.227-.537-.543-.65-.95l.12-.11v3.48zm2.4-2.83c.473 0 .84-.16 1.1-.48s.39-.777.39-1.37-.13-1.057-.39-1.39-.627-.5-1.1-.5c-.48 0-.85.163-1.11.49-.26.32-.39.78-.39 1.38s.13 1.063.39 1.39c.26.32.63.48 1.11.48zm7.007.67-1.54-1.92-.53-.67-1.98-2.44h1.1l1.41 1.78.54.66 2.08 2.59zm-3.07 0h-1.1l2.1-2.59.53-.66 1.4-1.78h1.11l-1.97 2.44-.54.67zm7.658 0v-.7l2.48-2.72c.32-.36.553-.683.7-.97.153-.293.23-.587.23-.88 0-.373-.11-.66-.33-.86-.22-.207-.53-.31-.93-.31-.34 0-.677.07-1.01.21-.334.133-.664.333-.99.6l-.34-.7c.28-.267.633-.477 1.06-.63.433-.16.866-.24 1.3-.24.446 0 .83.077 1.15.23.32.147.57.363.75.65.18.28.27.613.27 1 0 .407-.094.797-.28 1.17-.18.373-.48.793-.9 1.26l-2.35 2.53-.08-.41h3.9v.77zm5.956 2.16v-5.78c0-.233-.007-.467-.02-.7-.007-.24-.027-.477-.06-.71h.86l.09 1.03-.08.13c.113-.413.33-.73.65-.95.32-.227.703-.34 1.15-.34.44 0 .827.113 1.16.34.34.22.603.527.79.92.193.393.29.853.29 1.38s-.097.987-.29 1.38c-.187.387-.447.687-.78.9-.333.207-.723.31-1.17.31s-.83-.11-1.15-.33c-.32-.227-.537-.543-.65-.95l.12-.11v3.48zm2.4-2.83c.473 0 .84-.16 1.1-.48s.39-.777.39-1.37-.13-1.057-.39-1.39-.627-.5-1.1-.5c-.48 0-.85.163-1.11.49-.26.32-.39.78-.39 1.38s.13 1.063.39 1.39c.26.32.63.48 1.11.48zm7.007.67-1.54-1.92-.53-.67-1.98-2.44h1.1l1.41 1.78.54.66 2.08 2.59zm-3.07 0h-1.1l2.1-2.59.53-.66 1.4-1.78h1.11l-1.97 2.44-.54.67zm7.618 0v-3.62c0-.233-.007-.467-.02-.7-.007-.24-.027-.477-.06-.71h.86l.11 1.25-.11-.04c.087-.44.283-.77.59-.99.313-.227.663-.34 1.05-.34.093 0 .177.007.25.02.08.007.153.02.22.04l-.01.83c-.167-.06-.353-.09-.56-.09-.34 0-.613.073-.82.22s-.357.333-.45.56-.14.47-.14.73v2.84zm5.824 2.23c-.767 0-1.434-.17-2-.51l.16-.73c.313.18.61.31.89.39.286.08.603.12.95.12.473 0 .83-.127 1.07-.38.246-.247.37-.617.37-1.11v-1.34l.11-.1c-.08.26-.207.487-.38.68-.167.187-.374.333-.62.44-.24.107-.517.16-.83.16-.44 0-.83-.103-1.17-.31-.34-.213-.607-.507-.8-.88-.187-.373-.28-.81-.28-1.31s.093-.937.28-1.31c.193-.38.46-.673.8-.88.34-.213.73-.32 1.17-.32.46 0 .85.113 1.17.34.326.227.546.54.66.94l-.12-.08v-1.07h.91v4.96c0 .767-.2 1.34-.6 1.72-.394.387-.974.58-1.74.58zm-.08-3.13c.473 0 .843-.153 1.11-.46.266-.313.4-.743.4-1.29s-.134-.977-.4-1.29c-.267-.313-.637-.47-1.11-.47-.474 0-.847.157-1.12.47-.274.313-.41.743-.41 1.29 0 .553.136.983.41 1.29.273.307.646.46 1.12.46zm3.934.9v-7.36h.91v3.6l-.12-.12c.113-.4.33-.713.65-.94s.703-.34 1.15-.34c.446 0 .836.107 1.17.32.333.213.593.517.78.91.193.387.29.843.29 1.37s-.097.99-.29 1.39c-.187.393-.45.7-.79.92-.334.213-.72.32-1.16.32-.447 0-.83-.11-1.15-.33-.32-.227-.537-.543-.65-.95l.11-.12v1.33zm2.4-.67c.473 0 .84-.163 1.1-.49.26-.333.39-.8.39-1.4 0-.587-.13-1.04-.39-1.36-.26-.327-.627-.49-1.1-.49-.48 0-.85.163-1.11.49s-.39.787-.39 1.38c0 .6.13 1.063.39 1.39.26.32.63.48 1.11.48zm5.565.74c-.44 0-.83-.103-1.17-.31-.333-.213-.593-.513-.78-.9-.187-.393-.28-.853-.28-1.38s.093-.987.28-1.38c.193-.393.457-.7.79-.92.34-.227.727-.34 1.16-.34.453 0 .84.113 1.16.34.32.22.537.537.65.95l-.12.07v-1.23h.9v5.03h-.9v-1.26l.12.05c-.113.407-.33.723-.65.95-.32.22-.707.33-1.16.33zm.2-.74c.48 0 .847-.16 1.1-.48.26-.327.39-.79.39-1.39s-.13-1.06-.39-1.38c-.26-.327-.627-.49-1.1-.49s-.843.167-1.11.5-.4.797-.4 1.39.133 1.05.4 1.37.637.48 1.11.48zm5.345 2.49c-.28-.52-.507-1.027-.68-1.52-.167-.493-.29-.983-.37-1.47-.073-.487-.11-.983-.11-1.49s.04-1.003.12-1.49c.08-.493.203-.983.37-1.47.167-.493.39-.993.67-1.5h.75c-.247.593-.443 1.143-.59 1.65-.14.507-.24.99-.3 1.45-.053.46-.08.913-.08 1.36 0 .453.027.91.08 1.37.06.46.16.943.3 1.45.147.513.34 1.067.58 1.66zm1.862-1.82v-.7l2.48-2.72c.32-.36.553-.683.7-.97.153-.293.23-.587.23-.88 0-.373-.11-.66-.33-.86-.22-.207-.53-.31-.93-.31-.34 0-.677.07-1.01.21-.334.133-.664.333-.99.6l-.34-.7c.28-.267.633-.477 1.06-.63.433-.16.866-.24 1.3-.24.446 0 .83.077 1.15.23.32.147.57.363.75.65.18.28.27.613.27 1 0 .407-.094.797-.28 1.17-.18.373-.48.793-.9 1.26l-2.35 2.53-.08-.41h3.9v.77zm8.286.07c-.44 0-.874-.077-1.3-.23-.42-.153-.774-.367-1.06-.64l.34-.7c.326.267.656.47.99.61.333.133.676.2 1.03.2.486 0 .866-.133 1.14-.4.273-.273.41-.647.41-1.12 0-.3-.064-.563-.19-.79-.12-.227-.294-.403-.52-.53-.22-.133-.48-.2-.78-.2-.327 0-.624.067-.89.2-.267.127-.5.32-.7.58h-.62v-4.17h4.31v.75h-3.39v2.76l-.29-.03c.193-.273.44-.483.74-.63s.636-.22 1.01-.22c.453 0 .846.097 1.18.29.333.187.59.45.77.79s.27.733.27 1.18c0 .453-.1.853-.3 1.2s-.484.617-.85.81c-.367.193-.8.29-1.3.29zm5.996 0c-.44 0-.873-.077-1.3-.23-.42-.153-.773-.367-1.06-.64l.34-.7c.327.267.657.47.99.61.333.133.677.2 1.03.2.487 0 .867-.133 1.14-.4.273-.273.41-.647.41-1.12 0-.3-.063-.563-.19-.79-.12-.227-.293-.403-.52-.53-.22-.133-.48-.2-.78-.2-.327 0-.623.067-.89.2-.267.127-.5.32-.7.58h-.62v-4.17h4.31v.75h-3.39v2.76l-.29-.03c.193-.273.44-.483.74-.63s.637-.22 1.01-.22c.453 0 .847.097 1.18.29.333.187.59.45.77.79s.27.733.27 1.18c0 .453-.1.853-.3 1.2s-.483.617-.85.81-.8.29-1.3.29zm3.986 1.12-.41-.31c.187-.2.313-.383.38-.55s.1-.34.1-.52l.26.19h-.79v-1.11h1.11v.77c0 .287-.047.553-.14.8s-.263.49-.51.73zm4.71-1.19v-.7l2.48-2.72c.32-.36.554-.683.7-.97.154-.293.23-.587.23-.88 0-.373-.11-.66-.33-.86-.22-.207-.53-.31-.93-.31-.34 0-.676.07-1.01.21-.333.133-.663.333-.99.6l-.34-.7c.28-.267.634-.477 1.06-.63.434-.16.867-.24 1.3-.24.447 0 .83.077 1.15.23.32.147.57.363.75.65.18.28.27.613.27 1 0 .407-.093.797-.28 1.17-.18.373-.48.793-.9 1.26l-2.35 2.53-.08-.41h3.9v.77zm8.286.07c-.44 0-.873-.077-1.3-.23-.42-.153-.773-.367-1.06-.64l.34-.7c.327.267.657.47.99.61.334.133.677.2 1.03.2.487 0 .867-.133 1.14-.4.274-.273.41-.647.41-1.12 0-.3-.063-.563-.19-.79-.12-.227-.293-.403-.52-.53-.22-.133-.48-.2-.78-.2-.326 0-.623.067-.89.2-.266.127-.5.32-.7.58h-.62v-4.17h4.31v.75h-3.39v2.76l-.29-.03c.194-.273.44-.483.74-.63s.637-.22 1.01-.22c.454 0 .847.097 1.18.29.334.187.59.45.77.79s.27.733.27 1.18c0 .453-.1.853-.3 1.2s-.483.617-.85.81c-.366.193-.8.29-1.3.29zm5.996 0c-.44 0-.873-.077-1.3-.23-.42-.153-.773-.367-1.06-.64l.34-.7c.327.267.657.47.99.61.334.133.677.2 1.03.2.487 0 .867-.133 1.14-.4.274-.273.41-.647.41-1.12 0-.3-.063-.563-.19-.79-.12-.227-.293-.403-.52-.53-.22-.133-.48-.2-.78-.2-.326 0-.623.067-.89.2-.266.127-.5.32-.7.58h-.62v-4.17h4.31v.75h-3.39v2.76l-.29-.03c.194-.273.44-.483.74-.63s.637-.22 1.01-.22c.454 0 .847.097 1.18.29.334.187.59.45.77.79s.27.733.27 1.18c0 .453-.1.853-.3 1.2s-.483.617-.85.81c-.366.193-.8.29-1.3.29zm3.987 1.12-.41-.31c.186-.2.313-.383.38-.55.066-.167.1-.34.1-.52l.26.19h-.79v-1.11h1.11v.77c0 .287-.047.553-.14.8-.094.247-.264.49-.51.73zm4.71-1.19v-.7l2.48-2.72c.32-.36.553-.683.7-.97.153-.293.23-.587.23-.88 0-.373-.11-.66-.33-.86-.22-.207-.53-.31-.93-.31-.34 0-.677.07-1.01.21-.334.133-.664.333-.99.6l-.34-.7c.28-.267.633-.477 1.06-.63.433-.16.866-.24 1.3-.24.446 0 .83.077 1.15.23.32.147.57.363.75.65.18.28.27.613.27 1 0 .407-.094.797-.28 1.17-.18.373-.48.793-.9 1.26l-2.35 2.53-.08-.41h3.9v.77zm8.286.07c-.44 0-.873-.077-1.3-.23-.42-.153-.773-.367-1.06-.64l.34-.7c.327.267.657.47.99.61.333.133.677.2 1.03.2.487 0 .867-.133 1.14-.4.273-.273.41-.647.41-1.12 0-.3-.063-.563-.19-.79-.12-.227-.293-.403-.52-.53-.22-.133-.48-.2-.78-.2-.327 0-.623.067-.89.2-.267.127-.5.32-.7.58h-.62v-4.17h4.31v.75h-3.39v2.76l-.29-.03c.193-.273.44-.483.74-.63s.637-.22 1.01-.22c.453 0 .847.097 1.18.29.333.187.59.45.77.79s.27.733.27 1.18c0 .453-.1.853-.3 1.2s-.483.617-.85.81-.8.29-1.3.29zm5.996 0c-.44 0-.873-.077-1.3-.23-.42-.153-.773-.367-1.06-.64l.34-.7c.327.267.657.47.99.61.333.133.677.2 1.03.2.487 0 .867-.133 1.14-.4.273-.273.41-.647.41-1.12 0-.3-.063-.563-.19-.79-.12-.227-.293-.403-.52-.53-.22-.133-.48-.2-.78-.2-.327 0-.623.067-.89.2-.267.127-.5.32-.7.58h-.62v-4.17h4.31v.75h-3.39v2.76l-.29-.03c.193-.273.44-.483.74-.63s.637-.22 1.01-.22c.453 0 .847.097 1.18.29.333.187.59.45.77.79s.27.733.27 1.18c0 .453-.1.853-.3 1.2s-.483.617-.85.81-.8.29-1.3.29zm3.986 1.12-.41-.31c.187-.2.313-.383.38-.55s.1-.34.1-.52l.26.19h-.79v-1.11h1.11v.77c0 .287-.047.553-.14.8s-.263.49-.51.73zm6.72-1.61v-6.11l.51.21-1.97 1.24v-.87l1.86-1.17h.53v6.7zm-1.57.42v-.77h4.07v.77zm5.816 1.82h-.75c.247-.593.44-1.147.58-1.66.14-.507.24-.99.3-1.45s.09-.917.09-1.37c0-.447-.03-.9-.09-1.36s-.16-.943-.3-1.45-.333-1.057-.58-1.65h.75c.414.767.71 1.513.89 2.24s.27 1.467.27 2.22c0 .507-.04 1.003-.12 1.49-.073.487-.196.977-.37 1.47-.166.493-.39 1-.67 1.52z"/></g><g filter="url(#d)"><rect fill="#36393b" height="128" rx="4" width="128" x="432" y="172"/><path d="m444.912 196v-4.344c0-.28-.008-.56-.024-.84-.008-.288-.032-.572-.072-.852h1.032l.108 1.236-.12.06c.144-.464.392-.82.744-1.068.36-.256.784-.384 1.272-.384.584 0 1.036.144 1.356.432.328.288.536.728.624 1.32l-.288-.18c.136-.48.396-.86.78-1.14.384-.288.844-.432 1.38-.432.672 0 1.176.2 1.512.6s.504 1.004.504 1.812v3.78h-1.092v-3.732c0-.536-.096-.928-.288-1.176-.184-.256-.484-.384-.9-.384-.488 0-.872.168-1.152.504-.28.328-.42.78-.42 1.356v3.432h-1.092v-3.732c0-.536-.096-.928-.288-1.176-.192-.256-.496-.384-.912-.384-.496 0-.884.168-1.164.504-.272.328-.408.78-.408 1.356v3.432zm15.597-.708c-.264.248-.604.444-1.02.588-.416.136-.84.204-1.272.204-.632 0-1.176-.124-1.632-.372s-.808-.604-1.056-1.068c-.248-.472-.372-1.032-.372-1.68 0-.624.12-1.172.36-1.644.248-.472.588-.84 1.02-1.104.432-.272.928-.408 1.488-.408.544 0 1.008.12 1.392.36.392.24.688.584.888 1.032.208.44.312.968.312 1.584v.192h-4.5v-.672h3.876l-.336.432c.016-.68-.116-1.2-.396-1.56s-.688-.54-1.224-.54c-.56 0-1 .2-1.32.6-.312.392-.468.944-.468 1.656 0 .768.168 1.348.504 1.74.336.384.832.576 1.488.576.352 0 .688-.056 1.008-.168.32-.12.624-.296.912-.528zm6.972.708h-1.08v-1.596l.144.144c-.136.488-.396.868-.78 1.14-.384.264-.848.396-1.392.396-.52 0-.984-.128-1.392-.384-.4-.264-.716-.632-.948-1.104-.224-.48-.336-1.036-.336-1.668s.112-1.18.336-1.644c.224-.472.536-.836.936-1.092.408-.256.876-.384 1.404-.384.544 0 1.008.136 1.392.408s.644.648.78 1.128l-.156.144v-4.32h1.092zm-2.868-.804c.568 0 1.008-.192 1.32-.576.312-.392.468-.948.468-1.668 0-.712-.156-1.264-.468-1.656-.304-.392-.744-.588-1.32-.588-.568 0-1.012.196-1.332.588-.32.384-.48.928-.48 1.632 0 .72.16 1.28.48 1.68.32.392.764.588 1.332.588zm4.686.804v-6.036h1.092v6.036zm-.096-8.64h1.284v1.188h-1.284zm5.162 8.724c-.728 0-1.276-.2-1.644-.6-.36-.408-.54-1.008-.54-1.8v-3.72h1.092v3.708c0 .52.104.904.312 1.152.216.24.544.36.984.36.512 0 .924-.164 1.236-.492.312-.336.468-.78.468-1.332v-3.396h1.104v6.036h-1.068v-1.296l.144-.06c-.16.472-.428.832-.804 1.08-.376.24-.804.36-1.284.36zm4.824-.084v-4.344c0-.28-.008-.56-.024-.84-.008-.288-.032-.572-.072-.852h1.032l.108 1.236-.12.06c.144-.464.392-.82.744-1.068.36-.256.784-.384 1.272-.384.584 0 1.036.144 1.356.432.328.288.536.728.624 1.32l-.288-.18c.136-.48.396-.86.78-1.14.384-.288.844-.432 1.38-.432.672 0 1.176.2 1.512.6s.504 1.004.504 1.812v3.78h-1.092v-3.732c0-.536-.096-.928-.288-1.176-.184-.256-.484-.384-.9-.384-.488 0-.872.168-1.152.504-.28.328-.42.78-.42 1.356v3.432h-1.092v-3.732c0-.536-.096-.928-.288-1.176-.192-.256-.496-.384-.912-.384-.496 0-.884.168-1.164.504-.272.328-.408.78-.408 1.356v3.432z" fill="#fff" fill-opacity=".75"/></g><g filter="url(#e)"><rect fill="#36393b" height="128" rx="4" width="128" x="616" y="172"/><path d="m628.912 196v-8.832h1.092v8.832zm5.234.084c-.528 0-.996-.124-1.404-.372-.4-.256-.712-.616-.936-1.08-.224-.472-.336-1.024-.336-1.656s.112-1.184.336-1.656c.232-.472.548-.84.948-1.104.408-.272.872-.408 1.392-.408.544 0 1.008.136 1.392.408.384.264.644.644.78 1.14l-.144.084v-1.476h1.08v6.036h-1.08v-1.512l.144.06c-.136.488-.396.868-.78 1.14-.384.264-.848.396-1.392.396zm.24-.888c.576 0 1.016-.192 1.32-.576.312-.392.468-.948.468-1.668s-.156-1.272-.468-1.656c-.312-.392-.752-.588-1.32-.588s-1.012.2-1.332.6-.48.956-.48 1.668.16 1.26.48 1.644.764.576 1.332.576zm4.686.804v-4.344c0-.28-.008-.56-.024-.84-.008-.288-.032-.572-.072-.852h1.032l.132 1.5-.132-.048c.104-.528.34-.924.708-1.188.376-.272.796-.408 1.26-.408.112 0 .212.008.3.024.096.008.184.024.264.048l-.012.996c-.2-.072-.424-.108-.672-.108-.408 0-.736.088-.984.264s-.428.4-.54.672-.168.564-.168.876v3.408zm6.989 2.676c-.92 0-1.72-.204-2.4-.612l.192-.876c.376.216.732.372 1.068.468.344.096.724.144 1.14.144.568 0 .996-.152 1.284-.456.296-.296.444-.74.444-1.332v-1.608l.132-.12c-.096.312-.248.584-.456.816-.2.224-.448.4-.744.528-.288.128-.62.192-.996.192-.528 0-.996-.124-1.404-.372-.408-.256-.728-.608-.96-1.056-.224-.448-.336-.972-.336-1.572s.112-1.124.336-1.572c.232-.456.552-.808.96-1.056.408-.256.876-.384 1.404-.384.552 0 1.02.136 1.404.408.392.272.656.648.792 1.128l-.144-.096v-1.284h1.092v5.952c0 .92-.24 1.608-.72 2.064-.472.464-1.168.696-2.088.696zm-.096-3.756c.568 0 1.012-.184 1.332-.552.32-.376.48-.892.48-1.548s-.16-1.172-.48-1.548-.764-.564-1.332-.564-1.016.188-1.344.564-.492.892-.492 1.548c0 .664.164 1.18.492 1.548s.776.552 1.344.552zm9.712.372c-.264.248-.604.444-1.02.588-.416.136-.84.204-1.272.204-.632 0-1.176-.124-1.632-.372s-.808-.604-1.056-1.068c-.248-.472-.372-1.032-.372-1.68 0-.624.12-1.172.36-1.644.248-.472.588-.84 1.02-1.104.432-.272.928-.408 1.488-.408.544 0 1.008.12 1.392.36.392.24.688.584.888 1.032.208.44.312.968.312 1.584v.192h-4.5v-.672h3.876l-.336.432c.016-.68-.116-1.2-.396-1.56s-.688-.54-1.224-.54c-.56 0-1 .2-1.32.6-.312.392-.468.944-.468 1.656 0 .768.168 1.348.504 1.74.336.384.832.576 1.488.576.352 0 .688-.056 1.008-.168.32-.12.624-.296.912-.528z" fill="#fff" fill-opacity=".75"/></g><g filter="url(#f)"><rect fill="#36393b" height="128" rx="4" width="128" x="800" y="172"/><path d="m812.084 190.804v-.84h3.708v.84zm3.888-2.664c-.232-.064-.44-.096-.624-.096-.192 0-.364.036-.516.108-.152.064-.272.184-.36.36-.088.168-.132.404-.132.708v6.78h-1.092v-6.888c0-.664.164-1.16.492-1.488.336-.336.796-.504 1.38-.504.144 0 .284.008.42.024.144.016.288.044.432.084zm3.55 7.944c-.584 0-1.096-.128-1.536-.384-.432-.256-.768-.616-1.008-1.08-.24-.472-.36-1.028-.36-1.668 0-.632.12-1.184.36-1.656.24-.48.576-.848 1.008-1.104.44-.256.952-.384 1.536-.384.592 0 1.104.128 1.536.384s.768.624 1.008 1.104c.24.472.36 1.024.36 1.656 0 .64-.12 1.196-.36 1.668-.24.464-.576.824-1.008 1.08s-.944.384-1.536.384zm0-.888c.576 0 1.02-.188 1.332-.564.312-.384.468-.944.468-1.68 0-.728-.16-1.284-.48-1.668-.312-.384-.752-.576-1.32-.576-.56 0-1 .192-1.32.576s-.48.94-.48 1.668c0 .736.156 1.296.468 1.68.312.376.756.564 1.332.564zm6.962.888c-.608 0-1.132-.128-1.572-.384-.432-.256-.768-.616-1.008-1.08s-.36-1.012-.36-1.644c0-.624.12-1.176.36-1.656.248-.48.596-.852 1.044-1.116s.976-.396 1.584-.396c.416 0 .816.072 1.2.216.384.136.7.328.948.576l-.348.792c-.288-.224-.576-.392-.864-.504-.28-.12-.572-.18-.876-.18-.584 0-1.052.196-1.404.588-.344.392-.516.952-.516 1.68 0 .712.172 1.26.516 1.644s.816.576 1.416.576c.288 0 .576-.056.864-.168s.576-.284.864-.516l.348.792c-.256.24-.58.432-.972.576-.392.136-.8.204-1.224.204zm5.533 0c-.728 0-1.276-.2-1.644-.6-.36-.408-.54-1.008-.54-1.8v-3.72h1.092v3.708c0 .52.104.904.312 1.152.216.24.544.36.984.36.512 0 .924-.164 1.236-.492.312-.336.468-.78.468-1.332v-3.396h1.104v6.036h-1.068v-1.296l.144-.06c-.16.472-.428.832-.804 1.08-.376.24-.804.36-1.284.36zm6.901 0c-1.032 0-1.852-.26-2.46-.78l.348-.792c.32.248.652.432.996.552.352.112.736.168 1.152.168.432 0 .76-.072.984-.216.232-.152.348-.368.348-.648 0-.224-.08-.4-.24-.528-.152-.136-.408-.248-.768-.336l-1.008-.24c-.52-.112-.92-.312-1.2-.6-.272-.288-.408-.636-.408-1.044 0-.352.096-.664.288-.936.2-.272.476-.484.828-.636.352-.16.768-.24 1.248-.24.424 0 .824.068 1.2.204.384.136.708.332.972.588l-.348.78c-.288-.24-.584-.416-.888-.528-.304-.12-.62-.18-.948-.18-.408 0-.728.08-.96.24-.224.16-.336.376-.336.648 0 .232.072.416.216.552s.372.244.684.324l1.02.252c.576.12 1 .32 1.272.6.272.272.408.624.408 1.056 0 .528-.216.952-.648 1.272-.432.312-1.016.468-1.752.468z" fill="#fff" fill-opacity=".75"/></g></svg>