<svg fill="none" height="678" viewBox="0 0 410 678" width="410" xmlns="http://www.w3.org/2000/svg" xmlns:xlink="http://www.w3.org/1999/xlink"><filter id="a" color-interpolation-filters="sRGB" filterUnits="userSpaceOnUse" height="678" width="410" x="0" y="0"><feFlood flood-opacity="0" result="BackgroundImageFix"/><feColorMatrix in="SourceAlpha" result="hardAlpha" type="matrix" values="0 0 0 0 0 0 0 0 0 0 0 0 0 0 0 0 0 0 127 0"/><feOffset dy="4"/><feGaussianBlur stdDeviation="12"/><feColorMatrix type="matrix" values="0 0 0 0 0 0 0 0 0 0 0 0 0 0 0 0 0 0 0.4 0"/><feBlend in2="BackgroundImageFix" mode="normal" result="effect1_dropShadow_19_16"/><feBlend in="SourceGraphic" in2="effect1_dropShadow_19_16" mode="normal" result="shape"/></filter><g filter="url(#a)"><rect fill="#303756" height="630" rx="12" width="362" x="24" y="20"/><g fill="#fff"><path d="m99.268 119.432c-1.992 0-3.924-.264-5.796-.792-1.848-.552-3.336-1.26-4.464-2.124l1.98-4.392c1.08.792 2.364 1.428 3.852 1.908s2.976.72 4.464.72c1.656 0 2.88-.24 3.672-.72.792-.504 1.188-1.164 1.188-1.98 0-.6-.24-1.092-.72-1.476-.456-.408-1.056-.732-1.8-.972-.72-.24-1.704-.504-2.952-.792-1.92-.456-3.492-.912-4.716-1.368s-2.28-1.188-3.168-2.196c-.864-1.008-1.296-2.352-1.296-4.032 0-1.464.396-2.784 1.188-3.96.792-1.2 1.98-2.148 3.564-2.844 1.608-.696 3.564-1.044 5.868-1.044 1.608 0 3.18.192 4.716.576s2.88.936 4.032 1.656l-1.8 4.428c-2.328-1.32-4.656-1.98-6.984-1.98-1.632 0-2.844.264-3.636.792-.768.528-1.152 1.224-1.152 2.088s.444 1.512 1.332 1.944c.912.408 2.292.816 4.14 1.224 1.92.456 3.492.912 4.716 1.368s2.268 1.176 3.132 2.16c.888.984 1.332 2.316 1.332 3.996 0 1.44-.408 2.76-1.224 3.96-.792 1.176-1.992 2.112-3.6 2.808s-3.564 1.044-5.868 1.044zm25.729-20.088c1.8 0 3.432.42 4.896 1.26 1.488.816 2.652 1.98 3.492 3.492.84 1.488 1.26 3.228 1.26 5.22s-.42 3.744-1.26 5.256c-.84 1.488-2.004 2.652-3.492 3.492-1.464.816-3.096 1.224-4.896 1.224-2.472 0-4.416-.78-5.832-2.34v9.036h-5.616v-26.352h5.364v2.232c1.392-1.68 3.42-2.52 6.084-2.52zm-.972 15.336c1.44 0 2.616-.48 3.528-1.44.936-.984 1.404-2.292 1.404-3.924s-.468-2.928-1.404-3.888c-.912-.984-2.088-1.476-3.528-1.476s-2.628.492-3.564 1.476c-.912.96-1.368 2.256-1.368 3.888s.456 2.94 1.368 3.924c.936.96 2.124 1.44 3.564 1.44zm21.875-15.336c3 0 5.304.72 6.912 2.16 1.608 1.416 2.412 3.564 2.412 6.444v11.052h-5.256v-2.412c-1.056 1.8-3.024 2.7-5.904 2.7-1.488 0-2.784-.252-3.888-.756-1.08-.504-1.908-1.2-2.484-2.088s-.864-1.896-.864-3.024c0-1.8.672-3.216 2.016-4.248 1.368-1.032 3.468-1.548 6.3-1.548h4.464c0-1.224-.372-2.16-1.116-2.808-.744-.672-1.86-1.008-3.348-1.008-1.032 0-2.052.168-3.06.504-.984.312-1.824.744-2.52 1.296l-2.016-3.924c1.056-.744 2.316-1.32 3.78-1.728 1.488-.408 3.012-.612 4.572-.612zm-.432 16.164c.96 0 1.812-.216 2.556-.648.744-.456 1.272-1.116 1.584-1.98v-1.98h-3.852c-2.304 0-3.456.756-3.456 2.268 0 .72.276 1.296.828 1.728.576.408 1.356.612 2.34.612zm24.41 3.78c-2.064 0-3.924-.42-5.58-1.26-1.632-.864-2.916-2.052-3.852-3.564-.912-1.512-1.368-3.228-1.368-5.148s.456-3.636 1.368-5.148c.936-1.512 2.22-2.688 3.852-3.528 1.656-.864 3.516-1.296 5.58-1.296 2.04 0 3.816.432 5.328 1.296 1.536.84 2.652 2.052 3.348 3.636l-4.356 2.34c-1.008-1.776-2.46-2.664-4.356-2.664-1.464 0-2.676.48-3.636 1.44s-1.44 2.268-1.44 3.924.48 2.964 1.44 3.924 2.172 1.44 3.636 1.44c1.92 0 3.372-.888 4.356-2.664l4.356 2.376c-.696 1.536-1.812 2.736-3.348 3.6-1.512.864-3.288 1.296-5.328 1.296zm11.909-19.656h5.616v19.368h-5.616zm2.808-2.7c-1.032 0-1.872-.3-2.52-.9s-.972-1.344-.972-2.232.324-1.632.972-2.232 1.488-.9 2.52-.9 1.872.288 2.52.864.972 1.296.972 2.16c0 .936-.324 1.716-.972 2.34-.648.6-1.488.9-2.52.9zm19.792 2.412c2.4 0 4.332.72 5.796 2.16 1.488 1.44 2.232 3.576 2.232 6.408v11.088h-5.616v-10.224c0-1.536-.336-2.676-1.008-3.42-.672-.768-1.644-1.152-2.916-1.152-1.416 0-2.544.444-3.384 1.332-.84.864-1.26 2.16-1.26 3.888v9.576h-5.616v-19.368h5.364v2.268c.744-.816 1.668-1.44 2.772-1.872 1.104-.456 2.316-.684 3.636-.684zm33.31.288v16.128c0 3.552-.924 6.192-2.772 7.92s-4.548 2.592-8.1 2.592c-1.872 0-3.648-.228-5.328-.684s-3.072-1.116-4.176-1.98l2.232-4.032c.816.672 1.848 1.2 3.096 1.584 1.248.408 2.496.612 3.744.612 1.944 0 3.372-.444 4.284-1.332.936-.864 1.404-2.184 1.404-3.96v-.828c-1.464 1.608-3.504 2.412-6.12 2.412-1.776 0-3.408-.384-4.896-1.152-1.464-.792-2.628-1.896-3.492-3.312s-1.296-3.048-1.296-4.896.432-3.48 1.296-4.896 2.028-2.508 3.492-3.276c1.488-.792 3.12-1.188 4.896-1.188 2.808 0 4.944.924 6.408 2.772v-2.484zm-10.62 13.824c1.488 0 2.7-.432 3.636-1.296.96-.888 1.44-2.04 1.44-3.456s-.48-2.556-1.44-3.42c-.936-.888-2.148-1.332-3.636-1.332s-2.712.444-3.672 1.332c-.96.864-1.44 2.004-1.44 3.42s.48 2.568 1.44 3.456c.96.864 2.184 1.296 3.672 1.296z"/><g fill-opacity=".75"><path d="m93.076 204-1.848-2.304-.636-.804-2.376-2.928h1.32l1.692 2.136.648.792 2.496 3.108zm-3.684 0h-1.32l2.52-3.108.636-.792 1.68-2.136h1.332l-2.364 2.928-.648.804zm10.141 0-1.848-2.304-.636-.804-2.376-2.928h1.32l1.692 2.136.648.792 2.496 3.108zm-3.684 0h-1.32l2.52-3.108.636-.792 1.68-2.136h1.332l-2.364 2.928-.648.804zm10.141 0-1.848-2.304-.636-.804-2.376-2.928h1.32l1.692 2.136.648.792 2.496 3.108zm-3.684 0h-1.32l2.52-3.108.636-.792 1.68-2.136h1.332l-2.364 2.928-.648.804zm7.995.084c-1.032 0-1.852-.26-2.46-.78l.348-.792c.32.248.652.432.996.552.352.112.736.168 1.152.168.432 0 .76-.072.984-.216.232-.152.348-.368.348-.648 0-.224-.08-.4-.24-.528-.152-.136-.408-.248-.768-.336l-1.008-.24c-.52-.112-.92-.312-1.2-.6-.272-.288-.408-.636-.408-1.044 0-.352.096-.664.288-.936.2-.272.476-.484.828-.636.352-.16.768-.24 1.248-.24.424 0 .824.068 1.2.204.384.136.708.332.972.588l-.348.78c-.288-.24-.584-.416-.888-.528-.304-.12-.62-.18-.949-.18-.407 0-.727.08-.959.24-.224.16-.336.376-.336.648 0 .232.072.416.216.552s.372.244.684.324l1.02.252c.576.12 1 .32 1.272.6.272.272.408.624.408 1.056 0 .528-.216.952-.648 1.272-.432.312-1.016.468-1.752.468zm3.888-.084v-4.344c0-.28-.008-.56-.024-.84-.008-.288-.032-.572-.072-.852h1.032l.108 1.236-.12.06c.144-.464.392-.82.744-1.068.36-.256.784-.384 1.272-.384.584 0 1.036.144 1.356.432.328.288.536.728.624 1.32l-.288-.18c.136-.48.396-.86.78-1.14.384-.288.844-.432 1.38-.432.672 0 1.176.2 1.512.6s.504 1.004.504 1.812v3.78h-1.092v-3.732c0-.536-.096-.928-.288-1.176-.184-.256-.484-.384-.9-.384-.488 0-.872.168-1.152.504-.28.328-.42.78-.42 1.356v3.432h-1.092v-3.732c0-.536-.096-.928-.288-1.176-.192-.256-.496-.384-.912-.384-.496 0-.884.168-1.164.504-.272.328-.408.78-.408 1.356v3.432zm12.922.084c-.528 0-.996-.124-1.404-.372-.4-.256-.712-.616-.936-1.08-.224-.472-.336-1.024-.336-1.656s.112-1.184.336-1.656c.232-.472.548-.84.948-1.104.408-.272.872-.408 1.392-.408.544 0 1.008.136 1.392.408.384.264.644.644.78 1.14l-.144.084v-1.476h1.08v6.036h-1.08v-1.512l.144.06c-.136.488-.396.868-.78 1.14-.384.264-.848.396-1.392.396zm.24-.888c.576 0 1.016-.192 1.32-.576.312-.392.468-.948.468-1.668s-.156-1.272-.468-1.656c-.312-.392-.752-.588-1.32-.588s-1.012.2-1.332.6-.48.956-.48 1.668.16 1.26.48 1.644.764.576 1.332.576zm4.686.804v-8.832h1.092v8.832zm2.918 0v-8.832h1.092v8.832z"/><path d="m90.988 348.084c-1.032 0-1.852-.26-2.46-.78l.348-.792c.32.248.652.432.996.552.352.112.736.168 1.152.168.432 0 .76-.072.984-.216.232-.152.348-.368.348-.648 0-.224-.08-.4-.24-.528-.152-.136-.408-.248-.768-.336l-1.008-.24c-.52-.112-.92-.312-1.2-.6-.272-.288-.408-.636-.408-1.044 0-.352.096-.664.288-.936.2-.272.476-.484.828-.636.352-.16.768-.24 1.248-.24.424 0 .824.068 1.2.204.384.136.708.332.972.588l-.348.78c-.288-.24-.584-.416-.888-.528-.304-.12-.62-.18-.948-.18-.408 0-.728.08-.96.24-.224.16-.336.376-.336.648 0 .232.072.416.216.552s.372.244.684.324l1.02.252c.576.12 1 .32 1.272.6.272.272.408.624.408 1.056 0 .528-.216.952-.648 1.272-.432.312-1.016.468-1.752.468zm3.8888-.084v-4.344c0-.28-.008-.56-.024-.84-.008-.288-.032-.572-.072-.852h1.032l.108 1.236-.12.06c.144-.464.392-.82.744-1.068.36-.256.784-.384 1.272-.384.584 0 1.036.144 1.356.432.328.288.536.728.624 1.32l-.288-.18c.136-.48.396-.86.7802-1.14.384-.288.844-.432 1.38-.432.672 0 1.176.2 1.512.6s.504 1.004.504 1.812v3.78h-1.092v-3.732c0-.536-.096-.928-.288-1.176-.184-.256-.484-.384-.9-.384-.488 0-.872.168-1.152.504-.2802.328-.4202.78-.4202 1.356v3.432h-1.092v-3.732c0-.536-.096-.928-.288-1.176-.192-.256-.496-.384-.912-.384-.496 0-.884.168-1.164.504-.272.328-.408.78-.408 1.356v3.432zm12.9212.084c-.528 0-.996-.124-1.404-.372-.4-.256-.712-.616-.936-1.08-.224-.472-.336-1.024-.336-1.656s.112-1.184.336-1.656c.232-.472.548-.84.948-1.104.408-.272.872-.408 1.392-.408.544 0 1.008.136 1.392.408.384.264.644.644.78 1.14l-.144.084v-1.476h1.08v6.036h-1.08v-1.512l.144.06c-.136.488-.396.868-.78 1.14-.384.264-.848.396-1.392.396zm.24-.888c.576 0 1.016-.192 1.32-.576.312-.392.468-.948.468-1.668s-.156-1.272-.468-1.656c-.312-.392-.752-.588-1.32-.588s-1.012.2-1.332.6-.48.956-.48 1.668.16 1.26.48 1.644.764.576 1.332.576zm4.687.804v-8.832h1.092v8.832zm2.917 0v-8.832h1.092v8.832z"/><path d="m172.8 205v-.7l2.48-2.72c.32-.36.553-.683.7-.97.153-.293.23-.587.23-.88 0-.373-.11-.66-.33-.86-.22-.207-.53-.31-.93-.31-.34 0-.677.07-1.01.21-.333.133-.663.333-.99.6l-.34-.7c.28-.267.633-.477 1.06-.63.433-.16.867-.24 1.3-.24.447 0 .83.077 1.15.23.32.147.57.363.75.65.18.28.27.613.27 1 0 .407-.093.797-.28 1.17-.18.373-.48.793-.9 1.26l-2.35 2.53-.08-.41h3.9v.77zm5.956 2.16v-5.78c0-.233-.007-.467-.02-.7-.007-.24-.027-.477-.06-.71h.86l.09 1.03-.08.13c.113-.413.33-.73.65-.95.32-.227.703-.34 1.15-.34.44 0 .827.113 1.16.34.34.22.603.527.79.92.193.393.29.853.29 1.38s-.097.987-.29 1.38c-.187.387-.447.687-.78.9-.333.207-.723.31-1.17.31s-.83-.11-1.15-.33c-.32-.227-.537-.543-.65-.95l.12-.11v3.48zm2.4-2.83c.473 0 .84-.16 1.1-.48s.39-.777.39-1.37-.13-1.057-.39-1.39-.627-.5-1.1-.5c-.48 0-.85.163-1.11.49-.26.32-.39.78-.39 1.38s.13 1.063.39 1.39c.26.32.63.48 1.11.48zm7.008.67-1.54-1.92-.53-.67-1.98-2.44h1.1l1.41 1.78.54.66 2.08 2.59zm-3.07 0h-1.1l2.1-2.59.53-.66 1.4-1.78h1.11l-1.97 2.44-.54.67z"/><path d="m174.81 348.58v-6.11l.51.21-1.97 1.24v-.87l1.86-1.17h.53v6.7zm-1.57.42v-.77h4.07v.77zm5.556 0v-.7l2.48-2.72c.32-.36.553-.683.7-.97.153-.293.23-.587.23-.88 0-.373-.11-.66-.33-.86-.22-.207-.53-.31-.93-.31-.34 0-.677.07-1.01.21-.333.133-.663.333-.99.6l-.34-.7c.28-.267.633-.477 1.06-.63.433-.16.867-.24 1.3-.24.447 0 .83.077 1.15.23.32.147.57.363.75.65.18.28.27.613.27 1 0 .407-.093.797-.28 1.17-.18.373-.48.793-.9 1.26l-2.35 2.53-.08-.41h3.9v.77zm5.956 2.16v-5.78c0-.233-.006-.467-.02-.7-.006-.24-.026-.477-.06-.71h.86l.09 1.03-.08.13c.114-.413.33-.73.65-.95.32-.227.704-.34 1.15-.34.44 0 .827.113 1.16.34.34.22.604.527.79.92.194.393.29.853.29 1.38s-.096.987-.29 1.38c-.186.387-.446.687-.78.9-.333.207-.723.31-1.17.31-.446 0-.83-.11-1.15-.33-.32-.227-.536-.543-.65-.95l.12-.11v3.48zm2.4-2.83c.474 0 .84-.16 1.1-.48s.39-.777.39-1.37-.13-1.057-.39-1.39-.626-.5-1.1-.5c-.48 0-.85.163-1.11.49-.26.32-.39.78-.39 1.38s.13 1.063.39 1.39c.26.32.63.48 1.11.48zm7.008.67-1.54-1.92-.53-.67-1.98-2.44h1.1l1.41 1.78.54.66 2.08 2.59zm-3.07 0h-1.1l2.1-2.59.53-.66 1.4-1.78h1.11l-1.97 2.44-.54.67z"/><path d="m93.076 252-1.848-2.304-.636-.804-2.376-2.928h1.32l1.692 2.136.648.792 2.496 3.108zm-3.684 0h-1.32l2.52-3.108.636-.792 1.68-2.136h1.332l-2.364 2.928-.648.804zm10.141 0-1.848-2.304-.636-.804-2.376-2.928h1.32l1.692 2.136.648.792 2.496 3.108zm-3.684 0h-1.32l2.52-3.108.636-.792 1.68-2.136h1.332l-2.364 2.928-.648.804zm7.994.084c-1.032 0-1.852-.26-2.46-.78l.348-.792c.32.248.652.432.996.552.352.112.736.168 1.152.168.432 0 .76-.072.984-.216.232-.152.348-.368.348-.648 0-.224-.08-.4-.24-.528-.152-.136-.408-.248-.768-.336l-1.008-.24c-.52-.112-.92-.312-1.2-.6-.272-.288-.408-.636-.408-1.044 0-.352.096-.664.288-.936.2-.272.476-.484.828-.636.352-.16.768-.24 1.248-.24.424 0 .824.068 1.2.204.384.136.708.332.972.588l-.348.78c-.288-.24-.584-.416-.888-.528-.304-.12-.62-.18-.948-.18-.408 0-.728.08-.96.24-.224.16-.336.376-.336.648 0 .232.072.416.216.552s.372.244.684.324l1.02.252c.576.12 1 .32 1.272.6.272.272.408.624.408 1.056 0 .528-.216.952-.648 1.272-.432.312-1.016.468-1.752.468zm3.889-.084v-4.344c0-.28-.008-.56-.024-.84-.008-.288-.032-.572-.072-.852h1.032l.108 1.236-.12.06c.144-.464.392-.82.744-1.068.36-.256.784-.384 1.272-.384.584 0 1.036.144 1.356.432.328.288.536.728.624 1.32l-.288-.18c.136-.48.396-.86.78-1.14.384-.288.844-.432 1.38-.432.672 0 1.176.2 1.512.6s.504 1.004.504 1.812v3.78h-1.092v-3.732c0-.536-.096-.928-.288-1.176-.184-.256-.484-.384-.9-.384-.488 0-.872.168-1.152.504-.28.328-.42.78-.42 1.356v3.432h-1.092v-3.732c0-.536-.096-.928-.288-1.176-.192-.256-.496-.384-.912-.384-.496 0-.884.168-1.164.504-.272.328-.408.78-.408 1.356v3.432zm12.922.084c-.528 0-.996-.124-1.404-.372-.4-.256-.712-.616-.936-1.08-.224-.472-.336-1.024-.336-1.656s.112-1.184.336-1.656c.232-.472.548-.84.948-1.104.408-.272.872-.408 1.392-.408.544 0 1.008.136 1.392.408.384.264.644.644.78 1.14l-.144.084v-1.476h1.08v6.036h-1.08v-1.512l.144.06c-.136.488-.396.868-.78 1.14-.384.264-.848.396-1.392.396zm.24-.888c.576 0 1.016-.192 1.32-.576.312-.392.468-.948.468-1.668s-.156-1.272-.468-1.656c-.312-.392-.752-.588-1.32-.588s-1.012.2-1.332.6-.48.956-.48 1.668.16 1.26.48 1.644.764.576 1.332.576zm4.686.804v-8.832h1.092v8.832zm2.918 0v-8.832h1.092v8.832z"/><path d="m88.912 396v-4.344c0-.28-.008-.56-.024-.84-.008-.288-.032-.572-.072-.852h1.032l.108 1.236-.12.06c.144-.464.392-.82.744-1.068.36-.256.784-.384 1.272-.384.584 0 1.036.144 1.356.432.328.288.536.728.624 1.32l-.288-.18c.136-.48.396-.86.78-1.14.384-.288.844-.432 1.38-.432.672 0 1.176.2 1.512.6s.504 1.004.504 1.812v3.78h-1.092v-3.732c0-.536-.096-.928-.288-1.176-.184-.256-.484-.384-.9-.384-.488 0-.872.168-1.152.504-.28.328-.42.78-.42 1.356v3.432h-1.092v-3.732c0-.536-.096-.928-.288-1.176-.192-.256-.496-.384-.912-.384-.496 0-.884.168-1.164.504-.272.328-.408.78-.408 1.356v3.432zm15.597-.708c-.264.248-.604.444-1.02.588-.416.136-.84.204-1.272.204-.632 0-1.176-.124-1.632-.372s-.8075-.604-1.0555-1.068c-.248-.472-.372-1.032-.372-1.68 0-.624.12-1.172.36-1.644.248-.472.5875-.84 1.0195-1.104.432-.272.928-.408 1.488-.408.544 0 1.008.12 1.392.36.392.24.688.584.888 1.032.208.44.312.968.312 1.584v.192h-4.5v-.672h3.876l-.336.432c.016-.68-.116-1.2-.396-1.56s-.688-.54-1.224-.54c-.56 0-1 .2-1.32.6-.312.392-.468.944-.468 1.656 0 .768.168 1.348.504 1.74.336.384.832.576 1.488.576.352 0 .688-.056 1.008-.168.32-.12.624-.296.912-.528zm6.972.708h-1.08v-1.596l.144.144c-.136.488-.396.868-.78 1.14-.384.264-.848.396-1.392.396-.52 0-.984-.128-1.392-.384-.4-.264-.716-.632-.948-1.104-.224-.48-.336-1.036-.336-1.668s.112-1.18.336-1.644c.224-.472.536-.836.936-1.092.408-.256.876-.384 1.404-.384.544 0 1.008.136 1.392.408s.644.648.78 1.128l-.156.144v-4.32h1.092zm-2.868-.804c.568 0 1.008-.192 1.32-.576.312-.392.468-.948.468-1.668 0-.712-.156-1.264-.468-1.656-.304-.392-.744-.588-1.32-.588-.568 0-1.012.196-1.332.588-.32.384-.48.928-.48 1.632 0 .72.16 1.28.48 1.68.32.392.764.588 1.332.588zm4.686.804v-6.036h1.092v6.036zm-.096-8.64h1.284v1.188h-1.284zm5.162 8.724c-.728 0-1.276-.2-1.644-.6-.36-.408-.54-1.008-.54-1.8v-3.72h1.092v3.708c0 .52.104.904.312 1.152.216.24.544.36.984.36.512 0 .924-.164 1.236-.492.312-.336.468-.78.468-1.332v-3.396h1.104v6.036h-1.068v-1.296l.144-.06c-.16.472-.428.832-.804 1.08-.376.24-.804.36-1.284.36zm4.824-.084v-4.344c0-.28-.008-.56-.024-.84-.008-.288-.032-.572-.072-.852h1.032l.108 1.236-.12.06c.144-.464.392-.82.744-1.068.36-.256.784-.384 1.272-.384.584 0 1.036.144 1.356.432.328.288.536.728.624 1.32l-.288-.18c.136-.48.396-.86.78-1.14.384-.288.844-.432 1.38-.432.672 0 1.176.2 1.512.6s.504 1.004.504 1.812v3.78h-1.092v-3.732c0-.536-.096-.928-.288-1.176-.184-.256-.484-.384-.9-.384-.488 0-.872.168-1.152.504-.28.328-.42.78-.42 1.356v3.432h-1.092v-3.732c0-.536-.096-.928-.288-1.176-.192-.256-.496-.384-.912-.384-.496 0-.884.168-1.164.504-.272.328-.408.78-.408 1.356v3.432z"/><path d="m93.076 492-1.848-2.304-.636-.804-2.376-2.928h1.32l1.692 2.136.648.792 2.496 3.108zm-3.684 0h-1.32l2.52-3.108.636-.792 1.68-2.136h1.332l-2.364 2.928-.648.804zm5.977 0v-8.832h1.092v8.832zm5.234.084c-.528 0-.996-.124-1.404-.372-.4-.256-.712-.616-.936-1.08-.224-.472-.336-1.024-.336-1.656s.112-1.184.336-1.656c.232-.472.548-.84.948-1.104.408-.272.872-.408 1.392-.408.544 0 1.008.136 1.392.408.384.264.644.644.78 1.14l-.144.084v-1.476h1.08v6.036h-1.08v-1.512l.144.06c-.136.488-.396.868-.78 1.14-.384.264-.848.396-1.392.396zm.24-.888c.576 0 1.016-.192 1.32-.576.312-.392.468-.948.468-1.668s-.156-1.272-.468-1.656c-.312-.392-.752-.588-1.32-.588s-1.012.2-1.332.6-.48.956-.48 1.668.16 1.26.48 1.644.764.576 1.332.576zm4.686.804v-4.344c0-.28-.008-.56-.024-.84-.008-.288-.032-.572-.072-.852h1.032l.132 1.5-.132-.048c.104-.528.34-.924.708-1.188.376-.272.796-.408 1.26-.408.112 0 .212.008.3.024.096.008.184.024.264.048l-.012.996c-.2-.072-.424-.108-.672-.108-.408 0-.736.088-.984.264s-.428.4-.54.672-.168.564-.168.876v3.408zm6.989 2.676c-.92 0-1.72-.204-2.4-.612l.192-.876c.376.216.732.372 1.068.468.344.096.724.144 1.14.144.568 0 .996-.152 1.284-.456.296-.296.444-.74.444-1.332v-1.608l.132-.12c-.096.312-.248.584-.456.816-.2.224-.448.4-.744.528-.288.128-.62.192-.996.192-.528 0-.996-.124-1.404-.372-.408-.256-.728-.608-.96-1.056-.224-.448-.336-.972-.336-1.572s.112-1.124.336-1.572c.232-.456.552-.808.96-1.056.408-.256.876-.384 1.404-.384.552 0 1.02.136 1.404.408.392.272.656.648.792 1.128l-.144-.096v-1.284h1.092v5.952c0 .92-.24 1.608-.72 2.064-.472.464-1.168.696-2.088.696zm-.096-3.756c.568 0 1.012-.184 1.332-.552.32-.376.48-.892.48-1.548s-.16-1.172-.48-1.548-.764-.564-1.332-.564-1.016.188-1.344.564-.492.892-.492 1.548c0 .664.164 1.18.492 1.548s.776.552 1.344.552zm9.712.372c-.264.248-.604.444-1.02.588-.416.136-.84.204-1.272.204-.632 0-1.176-.124-1.632-.372s-.808-.604-1.056-1.068c-.248-.472-.372-1.032-.372-1.68 0-.624.12-1.172.36-1.644.248-.472.588-.84 1.02-1.104.432-.272.928-.408 1.488-.408.544 0 1.008.12 1.392.36.392.24.688.584.888 1.032.208.44.312.968.312 1.584v.192h-4.5v-.672h3.876l-.336.432c.016-.68-.116-1.2-.396-1.56s-.688-.54-1.224-.54c-.56 0-1 .2-1.32.6-.312.392-.468.944-.468 1.656 0 .768.168 1.348.504 1.74.336.384.832.576 1.488.576.352 0 .688-.056 1.008-.168.32-.12.624-.296.912-.528z"/><path d="m175.71 253v-5.96h.26l-2.85 4.1.01-.41h4.56v.75h-5.22v-.69l3.4-4.91h.76v7.12zm3.046 2.16v-5.78c0-.233-.007-.467-.02-.7-.007-.24-.027-.477-.06-.71h.86l.09 1.03-.08.13c.113-.413.33-.73.65-.95.32-.227.703-.34 1.15-.34.44 0 .827.113 1.16.34.34.22.603.527.79.92.193.393.29.853.29 1.38s-.097.987-.29 1.38c-.187.387-.447.687-.78.9-.333.207-.723.31-1.17.31s-.83-.11-1.15-.33c-.32-.227-.537-.543-.65-.95l.12-.11v3.48zm2.4-2.83c.473 0 .84-.16 1.1-.48s.39-.777.39-1.37-.13-1.057-.39-1.39-.627-.5-1.1-.5c-.48 0-.85.163-1.11.49-.26.32-.39.78-.39 1.38s.13 1.063.39 1.39c.26.32.63.48 1.11.48zm7.008.67-1.54-1.92-.53-.67-1.98-2.44h1.1l1.41 1.78.54.66 2.08 2.59zm-3.07 0h-1.1l2.1-2.59.53-.66 1.4-1.78h1.11l-1.97 2.44-.54.67z"/><path d="m174.81 396.58v-6.11l.51.21-1.97 1.24v-.87l1.86-1.17h.53v6.7zm-1.57.42v-.77h4.07v.77zm7.986.08c-.867 0-1.537-.297-2.01-.89-.473-.6-.71-1.46-.71-2.58 0-.807.11-1.493.33-2.06s.537-1 .95-1.3c.42-.3.92-.45 1.5-.45.413 0 .813.073 1.2.22.393.147.74.363 1.04.65l-.33.7c-.333-.287-.657-.493-.97-.62-.307-.127-.61-.19-.91-.19-.6 0-1.063.263-1.39.79s-.49 1.277-.49 2.25v.78l-.13-.26c.053-.327.173-.61.36-.85.193-.247.43-.433.71-.56.287-.133.603-.2.95-.2.44 0 .823.097 1.15.29.333.187.593.45.78.79s.28.733.28 1.18-.1.847-.3 1.2c-.193.347-.463.62-.81.82-.347.193-.747.29-1.2.29zm-.04-.76c.433 0 .783-.14 1.05-.42s.4-.65.4-1.11c0-.453-.133-.82-.4-1.1s-.62-.42-1.06-.42c-.293 0-.557.067-.79.2-.227.133-.403.313-.53.54s-.19.487-.19.78c0 .307.063.573.19.8s.303.407.53.54c.233.127.5.19.8.19zm3.566 2.84v-5.78c0-.233-.006-.467-.02-.7-.006-.24-.026-.477-.06-.71h.86l.09 1.03-.08.13c.114-.413.33-.73.65-.95.32-.227.704-.34 1.15-.34.44 0 .827.113 1.16.34.34.22.604.527.79.92.194.393.29.853.29 1.38s-.096.987-.29 1.38c-.186.387-.446.687-.78.9-.333.207-.723.31-1.17.31-.446 0-.83-.11-1.15-.33-.32-.227-.536-.543-.65-.95l.12-.11v3.48zm2.4-2.83c.474 0 .84-.16 1.1-.48s.39-.777.39-1.37-.13-1.057-.39-1.39-.626-.5-1.1-.5c-.48 0-.85.163-1.11.49-.26.32-.39.78-.39 1.38s.13 1.063.39 1.39c.26.32.63.48 1.11.48zm7.008.67-1.54-1.92-.53-.67-1.98-2.44h1.1l1.41 1.78.54.66 2.08 2.59zm-3.07 0h-1.1l2.1-2.59.53-.66 1.4-1.78h1.11l-1.97 2.44-.54.67z"/><path d="m174.92 493.07c-.467 0-.913-.073-1.34-.22-.427-.153-.787-.37-1.08-.65l.35-.7c.313.267.64.47.98.61.34.133.693.2 1.06.2.493 0 .867-.107 1.12-.32.253-.22.38-.543.38-.97 0-.42-.13-.733-.39-.94s-.657-.31-1.19-.31h-.85v-.77h.69c.513 0 .903-.11 1.17-.33s.4-.537.4-.95c0-.373-.113-.66-.34-.86-.22-.2-.533-.3-.94-.3-.347 0-.687.07-1.02.21-.327.133-.65.333-.97.6l-.34-.7c.287-.273.64-.487 1.06-.64.427-.153.863-.23 1.31-.23.44 0 .82.077 1.14.23.327.147.577.36.75.64.18.273.27.597.27.97 0 .44-.117.813-.35 1.12-.227.307-.54.517-.94.63l-.02-.1c.473.1.837.303 1.09.61s.38.697.38 1.17c0 .62-.217 1.11-.65 1.47-.427.353-1.003.53-1.73.53zm3.876-.07v-.7l2.48-2.72c.32-.36.553-.683.7-.97.153-.293.23-.587.23-.88 0-.373-.11-.66-.33-.86-.22-.207-.53-.31-.93-.31-.34 0-.677.07-1.01.21-.333.133-.663.333-.99.6l-.34-.7c.28-.267.633-.477 1.06-.63.433-.16.867-.24 1.3-.24.447 0 .83.077 1.15.23.32.147.57.363.75.65.18.28.27.613.27 1 0 .407-.093.797-.28 1.17-.18.373-.48.793-.9 1.26l-2.35 2.53-.08-.41h3.9v.77zm5.956 2.16v-5.78c0-.233-.006-.467-.02-.7-.006-.24-.026-.477-.06-.71h.86l.09 1.03-.08.13c.114-.413.33-.73.65-.95.32-.227.704-.34 1.15-.34.44 0 .827.113 1.16.34.34.22.604.527.79.92.194.393.29.853.29 1.38s-.096.987-.29 1.38c-.186.387-.446.687-.78.9-.333.207-.723.31-1.17.31-.446 0-.83-.11-1.15-.33-.32-.227-.536-.543-.65-.95l.12-.11v3.48zm2.4-2.83c.474 0 .84-.16 1.1-.48s.39-.777.39-1.37-.13-1.057-.39-1.39-.626-.5-1.1-.5c-.48 0-.85.163-1.11.49-.26.32-.39.78-.39 1.38s.13 1.063.39 1.39c.26.32.63.48 1.11.48zm7.008.67-1.54-1.92-.53-.67-1.98-2.44h1.1l1.41 1.78.54.66 2.08 2.59zm-3.07 0h-1.1l2.1-2.59.53-.66 1.4-1.78h1.11l-1.97 2.44-.54.67z"/><path d="m93.076 300-1.848-2.304-.636-.804-2.376-2.928h1.32l1.692 2.136.648.792 2.496 3.108zm-3.684 0h-1.32l2.52-3.108.636-.792 1.68-2.136h1.332l-2.364 2.928-.648.804zm7.9944.084c-1.032 0-1.852-.26-2.46-.78l.348-.792c.32.248.652.432.996.552.352.112.736.168 1.152.168.432 0 .76-.072.984-.216.232-.152.348-.368.348-.648 0-.224-.08-.4-.24-.528-.152-.136-.408-.248-.768-.336l-1.008-.24c-.52-.112-.92-.312-1.2-.6-.272-.288-.408-.636-.408-1.044 0-.352.096-.664.288-.936.2-.272.476-.484.828-.636.352-.16.768-.24 1.248-.24.424 0 .824.068 1.2.204.384.136.708.332.972.588l-.348.78c-.288-.24-.584-.416-.888-.528-.304-.12-.62-.18-.948-.18-.408 0-.728.08-.96.24-.224.16-.336.376-.336.648 0 .232.072.416.216.552s.372.244.684.324l1.02.252c.576.12 1 .32 1.272.6.272.272.408.624.408 1.056 0 .528-.216.952-.648 1.272-.432.312-1.016.468-1.752.468zm3.8886-.084v-4.344c0-.28-.008-.56-.024-.84-.008-.288-.032-.572-.072-.852h1.032l.108 1.236-.12.06c.144-.464.392-.82.744-1.068.36-.256.784-.384 1.272-.384.584 0 1.036.144 1.356.432.328.288.536.728.624 1.32l-.288-.18c.136-.48.396-.86.78-1.14.384-.288.844-.432 1.38-.432.672 0 1.176.2 1.512.6s.504 1.004.504 1.812v3.78h-1.092v-3.732c0-.536-.096-.928-.288-1.176-.184-.256-.484-.384-.9-.384-.488 0-.872.168-1.152.504-.28.328-.42.78-.42 1.356v3.432h-1.092v-3.732c0-.536-.096-.928-.288-1.176-.192-.256-.496-.384-.912-.384-.496 0-.884.168-1.164.504-.272.328-.408.78-.408 1.356v3.432zm12.922.084c-.528 0-.996-.124-1.404-.372-.4-.256-.712-.616-.936-1.08-.224-.472-.336-1.024-.336-1.656s.112-1.184.336-1.656c.232-.472.548-.84.948-1.104.408-.272.872-.408 1.392-.408.544 0 1.008.136 1.392.408.384.264.644.644.78 1.14l-.144.084v-1.476h1.08v6.036h-1.08v-1.512l.144.06c-.136.488-.396.868-.78 1.14-.384.264-.848.396-1.392.396zm.24-.888c.576 0 1.016-.192 1.32-.576.312-.392.468-.948.468-1.668s-.156-1.272-.468-1.656c-.312-.392-.752-.588-1.32-.588s-1.012.2-1.332.6-.48.956-.48 1.668.16 1.26.48 1.644.764.576 1.332.576zm4.686.804v-8.832h1.092v8.832zm2.918 0v-8.832h1.092v8.832z"/><path d="m88.912 444v-8.832h1.092v8.832zm5.234.084c-.528 0-.996-.124-1.404-.372-.4-.256-.712-.616-.936-1.08-.224-.472-.336-1.024-.336-1.656s.112-1.184.336-1.656c.232-.472.548-.84.948-1.104.408-.272.872-.408 1.392-.408.544 0 1.008.136 1.392.408.384.264.644.644.78 1.14l-.144.084v-1.476h1.08v6.036h-1.08v-1.512l.144.06c-.136.488-.396.868-.78 1.14-.384.264-.848.396-1.392.396zm.24-.888c.576 0 1.016-.192 1.32-.576.312-.392.468-.948.468-1.668s-.156-1.272-.468-1.656c-.312-.392-.752-.588-1.32-.588s-1.012.2-1.332.6-.48.956-.48 1.668.16 1.26.48 1.644.764.576 1.332.576zm4.6862.804v-4.344c0-.28-.008-.56-.024-.84-.008-.288-.032-.572-.072-.852h1.0318l.132 1.5-.132-.048c.104-.528.34-.924.708-1.188.376-.272.796-.408 1.26-.408.112 0 .212.008.3.024.096.008.184.024.264.048l-.012.996c-.2-.072-.424-.108-.672-.108-.408 0-.736.088-.984.264s-.428.4-.54.672-.168.564-.168.876v3.408zm6.9888 2.676c-.92 0-1.72-.204-2.4-.612l.192-.876c.376.216.732.372 1.068.468.344.096.724.144 1.14.144.568 0 .996-.152 1.284-.456.296-.296.444-.74.444-1.332v-1.608l.132-.12c-.096.312-.248.584-.456.816-.2.224-.448.4-.744.528-.288.128-.62.192-.996.192-.528 0-.996-.124-1.404-.372-.408-.256-.728-.608-.96-1.056-.224-.448-.336-.972-.336-1.572s.112-1.124.336-1.572c.232-.456.552-.808.96-1.056.408-.256.876-.384 1.404-.384.552 0 1.02.136 1.404.408.392.272.656.648.792 1.128l-.144-.096v-1.284h1.092v5.952c0 .92-.24 1.608-.72 2.064-.472.464-1.168.696-2.088.696zm-.096-3.756c.568 0 1.012-.184 1.332-.552.32-.376.48-.892.48-1.548s-.16-1.172-.48-1.548-.764-.564-1.332-.564-1.016.188-1.344.564-.492.892-.492 1.548c0 .664.164 1.18.492 1.548s.776.552 1.344.552zm9.712.372c-.264.248-.604.444-1.02.588-.416.136-.84.204-1.272.204-.632 0-1.176-.124-1.632-.372s-.808-.604-1.056-1.068c-.248-.472-.372-1.032-.372-1.68 0-.624.12-1.172.36-1.644.248-.472.588-.84 1.02-1.104.432-.272.928-.408 1.488-.408.544 0 1.008.12 1.392.36.392.24.688.584.888 1.032.208.44.312.968.312 1.584v.192h-4.5v-.672h3.876l-.336.432c.016-.68-.116-1.2-.396-1.56s-.688-.54-1.224-.54c-.56 0-1 .2-1.32.6-.312.392-.468.944-.468 1.656 0 .768.168 1.348.504 1.74.336.384.832.576 1.488.576.352 0 .688-.056 1.008-.168.32-.12.624-.296.912-.528z"/><path d="m93.076 540-1.848-2.304-.636-.804-2.376-2.928h1.32l1.692 2.136.648.792 2.496 3.108zm-3.684 0h-1.32l2.52-3.108.636-.792 1.68-2.136h1.332l-2.364 2.928-.648.804zm10.141 0-1.848-2.304-.636-.804-2.376-2.928h1.32l1.692 2.136.648.792 2.496 3.108zm-3.684 0h-1.32l2.52-3.108.636-.792 1.68-2.136h1.332l-2.364 2.928-.648.804zm5.977 0v-8.832h1.092v8.832zm5.234.084c-.528 0-.996-.124-1.404-.372-.4-.256-.712-.616-.936-1.08-.224-.472-.336-1.024-.336-1.656s.112-1.184.336-1.656c.232-.472.548-.84.948-1.104.408-.272.872-.408 1.392-.408.544 0 1.008.136 1.392.408.384.264.644.644.78 1.14l-.144.084v-1.476h1.08v6.036h-1.08v-1.512l.144.06c-.136.488-.396.868-.78 1.14-.384.264-.848.396-1.392.396zm.24-.888c.576 0 1.016-.192 1.32-.576.312-.392.468-.948.468-1.668s-.156-1.272-.468-1.656c-.312-.392-.752-.588-1.32-.588s-1.012.2-1.332.6-.48.956-.48 1.668.16 1.26.48 1.644.764.576 1.332.576zm4.686.804v-4.344c0-.28-.008-.56-.024-.84-.008-.288-.032-.572-.072-.852h1.032l.132 1.5-.132-.048c.104-.528.34-.924.708-1.188.376-.272.796-.408 1.26-.408.112 0 .212.008.3.024.096.008.184.024.264.048l-.012.996c-.2-.072-.424-.108-.672-.108-.408 0-.736.088-.984.264s-.428.4-.54.672-.168.564-.168.876v3.408zm6.989 2.676c-.92 0-1.72-.204-2.4-.612l.192-.876c.376.216.732.372 1.068.468.344.096.724.144 1.14.144.568 0 .996-.152 1.284-.456.296-.296.444-.74.444-1.332v-1.608l.132-.12c-.096.312-.248.584-.456.816-.2.224-.448.4-.744.528-.288.128-.62.192-.996.192-.528 0-.996-.124-1.404-.372-.408-.256-.728-.608-.96-1.056-.224-.448-.336-.972-.336-1.572s.112-1.124.336-1.572c.232-.456.552-.808.96-1.056.408-.256.876-.384 1.404-.384.552 0 1.02.136 1.404.408.392.272.656.648.792 1.128l-.144-.096v-1.284h1.092v5.952c0 .92-.24 1.608-.72 2.064-.472.464-1.168.696-2.088.696zm-.096-3.756c.568 0 1.012-.184 1.332-.552.32-.376.48-.892.48-1.548s-.16-1.172-.48-1.548-.764-.564-1.332-.564-1.016.188-1.344.564-.492.892-.492 1.548c0 .664.164 1.18.492 1.548s.776.552 1.344.552zm9.713.372c-.264.248-.604.444-1.02.588-.416.136-.84.204-1.272.204-.632 0-1.176-.124-1.632-.372s-.808-.604-1.056-1.068c-.248-.472-.372-1.032-.372-1.68 0-.624.12-1.172.36-1.644.248-.472.588-.84 1.02-1.104.432-.272.928-.408 1.488-.408.544 0 1.008.12 1.392.36.392.24.688.584.888 1.032.208.44.312.968.312 1.584v.192h-4.5v-.672h3.876l-.336.432c.016-.68-.116-1.2-.396-1.56s-.688-.54-1.224-.54c-.56 0-1 .2-1.32.6-.312.392-.468.944-.468 1.656 0 .768.168 1.348.504 1.74.336.384.832.576 1.488.576.352 0 .688-.056 1.008-.168.32-.12.624-.296.912-.528z"/><path d="m175 301.07c-.52 0-.973-.077-1.36-.23-.387-.16-.687-.387-.9-.68s-.32-.647-.32-1.06c0-.493.167-.9.5-1.22.333-.327.78-.53 1.34-.61l-.04.15c-.52-.1-.923-.303-1.21-.61-.28-.307-.42-.68-.42-1.12 0-.387.103-.72.31-1 .207-.287.49-.507.85-.66s.777-.23 1.25-.23.89.077 1.25.23.643.373.85.66c.207.28.31.613.31 1 0 .44-.143.817-.43 1.13-.28.307-.677.507-1.19.6l-.05-.15c.58.08 1.03.283 1.35.61.327.327.49.733.49 1.22 0 .413-.107.767-.32 1.06s-.513.52-.9.68c-.387.153-.84.23-1.36.23zm0-.75c.533 0 .943-.107 1.23-.32.293-.22.44-.54.44-.96 0-.387-.157-.69-.47-.91-.313-.227-.713-.367-1.2-.42-.487.053-.887.193-1.2.42-.313.22-.47.523-.47.91 0 .42.143.74.43.96.293.213.707.32 1.24.32zm0-3.24c.447-.053.807-.19 1.08-.41.28-.227.42-.527.42-.9 0-.387-.133-.687-.4-.9s-.633-.32-1.1-.32-.833.107-1.1.32-.4.513-.4.9c0 .373.137.673.41.9.28.22.643.357 1.09.41zm3.756 6.08v-5.78c0-.233-.007-.467-.02-.7-.007-.24-.027-.477-.06-.71h.86l.09 1.03-.08.13c.113-.413.33-.73.65-.95.32-.227.703-.34 1.15-.34.44 0 .827.113 1.16.34.34.22.603.527.79.92.193.393.29.853.29 1.38s-.097.987-.29 1.38c-.187.387-.447.687-.78.9-.333.207-.723.31-1.17.31s-.83-.11-1.15-.33c-.32-.227-.537-.543-.65-.95l.12-.11v3.48zm2.4-2.83c.473 0 .84-.16 1.1-.48s.39-.777.39-1.37-.13-1.057-.39-1.39-.627-.5-1.1-.5c-.48 0-.85.163-1.11.49-.26.32-.39.78-.39 1.38s.13 1.063.39 1.39c.26.32.63.48 1.11.48zm7.008.67-1.54-1.92-.53-.67-1.98-2.44h1.1l1.41 1.78.54.66 2.08 2.59zm-3.07 0h-1.1l2.1-2.59.53-.66 1.4-1.78h1.11l-1.97 2.44-.54.67z"/><path d="m172.8 445v-.7l2.48-2.72c.32-.36.553-.683.7-.97.153-.293.23-.587.23-.88 0-.373-.11-.66-.33-.86-.22-.207-.53-.31-.93-.31-.34 0-.677.07-1.01.21-.333.133-.663.333-.99.6l-.34-.7c.28-.267.633-.477 1.06-.63.433-.16.867-.24 1.3-.24.447 0 .83.077 1.15.23.32.147.57.363.75.65.18.28.27.613.27 1 0 .407-.093.797-.28 1.17-.18.373-.48.793-.9 1.26l-2.35 2.53-.08-.41h3.9v.77zm8.906 0v-5.96h.26l-2.85 4.1.01-.41h4.56v.75h-5.22v-.69l3.4-4.91h.76v7.12zm3.046 2.16v-5.78c0-.233-.006-.467-.02-.7-.006-.24-.026-.477-.06-.71h.86l.09 1.03-.08.13c.114-.413.33-.73.65-.95.32-.227.704-.34 1.15-.34.44 0 .827.113 1.16.34.34.22.604.527.79.92.194.393.29.853.29 1.38s-.096.987-.29 1.38c-.186.387-.446.687-.78.9-.333.207-.723.31-1.17.31-.446 0-.83-.11-1.15-.33-.32-.227-.536-.543-.65-.95l.12-.11v3.48zm2.4-2.83c.474 0 .84-.16 1.1-.48s.39-.777.39-1.37-.13-1.057-.39-1.39-.626-.5-1.1-.5c-.48 0-.85.163-1.11.49-.26.32-.39.78-.39 1.38s.13 1.063.39 1.39c.26.32.63.48 1.11.48zm7.008.67-1.54-1.92-.53-.67-1.98-2.44h1.1l1.41 1.78.54.66 2.08 2.59zm-3.07 0h-1.1l2.1-2.59.53-.66 1.4-1.78h1.11l-1.97 2.44-.54.67z"/><path d="m175.71 541v-5.96h.26l-2.85 4.1.01-.41h4.56v.75h-5.22v-.69l3.4-4.91h.76v7.12zm5.286.07c-.52 0-.973-.077-1.36-.23-.387-.16-.687-.387-.9-.68s-.32-.647-.32-1.06c0-.493.167-.9.5-1.22.333-.327.78-.53 1.34-.61l-.04.15c-.52-.1-.923-.303-1.21-.61-.28-.307-.42-.68-.42-1.12 0-.387.103-.72.31-1 .207-.287.49-.507.85-.66s.777-.23 1.25-.23.89.077 1.25.23.643.373.85.66c.207.28.31.613.31 1 0 .44-.143.817-.43 1.13-.28.307-.677.507-1.19.6l-.05-.15c.58.08 1.03.283 1.35.61.327.327.49.733.49 1.22 0 .413-.107.767-.32 1.06s-.513.52-.9.68c-.387.153-.84.23-1.36.23zm0-.75c.533 0 .943-.107 1.23-.32.293-.22.44-.54.44-.96 0-.387-.157-.69-.47-.91-.313-.227-.713-.367-1.2-.42-.487.053-.887.193-1.2.42-.313.22-.47.523-.47.91 0 .42.143.74.43.96.293.213.707.32 1.24.32zm0-3.24c.447-.053.807-.19 1.08-.41.28-.227.42-.527.42-.9 0-.387-.133-.687-.4-.9s-.633-.32-1.1-.32-.833.107-1.1.32-.4.513-.4.9c0 .373.137.673.41.9.28.22.643.357 1.09.41zm3.756 6.08v-5.78c0-.233-.006-.467-.02-.7-.006-.24-.026-.477-.06-.71h.86l.09 1.03-.08.13c.114-.413.33-.73.65-.95.32-.227.704-.34 1.15-.34.44 0 .827.113 1.16.34.34.22.604.527.79.92.194.393.29.853.29 1.38s-.096.987-.29 1.38c-.186.387-.446.687-.78.9-.333.207-.723.31-1.17.31-.446 0-.83-.11-1.15-.33-.32-.227-.536-.543-.65-.95l.12-.11v3.48zm2.4-2.83c.474 0 .84-.16 1.1-.48s.39-.777.39-1.37-.13-1.057-.39-1.39-.626-.5-1.1-.5c-.48 0-.85.163-1.11.49-.26.32-.39.78-.39 1.38s.13 1.063.39 1.39c.26.32.63.48 1.11.48zm7.008.67-1.54-1.92-.53-.67-1.98-2.44h1.1l1.41 1.78.54.66 2.08 2.59zm-3.07 0h-1.1l2.1-2.59.53-.66 1.4-1.78h1.11l-1.97 2.44-.54.67z"/></g></g><g fill="#b4bfff"><path d="m0 0h2v16h-2z" transform="translate(261 194)"/><path d="m0 0h4v16h-4z" transform="translate(261 242)"/><path d="m0 0h8v16h-8z" transform="translate(261 290)"/><path d="m0 0h12v16h-12z" transform="translate(261 338)"/><path d="m0 0h16v16h-16z" transform="translate(261 386)"/><path d="m0 0h24v16h-24z" transform="translate(261 434)"/><path d="m0 0h32v16h-32z" transform="translate(261 482)"/><path d="m0 0h48v16h-48z" transform="translate(261 530)"/></g></g></svg>