<svg fill="none" height="564" viewBox="0 0 564 564" width="564" xmlns="http://www.w3.org/2000/svg" xmlns:xlink="http://www.w3.org/1999/xlink"><clipPath id="a"><rect height="40" rx="4" width="40" x="91" y="224"/></clipPath><clipPath id="b"><rect height="40" rx="4" width="40" x="91" y="281"/></clipPath><clipPath id="c"><rect height="40" rx="4" width="40" x="91" y="338"/></clipPath><clipPath id="d"><rect height="40" rx="4" width="40" x="91" y="395"/></clipPath><clipPath id="e"><rect height="40" rx="4" width="40" x="148" y="167"/></clipPath><clipPath id="f"><rect height="40" rx="4" width="40" x="148" y="224"/></clipPath><clipPath id="g"><rect height="40" rx="4" width="40" x="148" y="281"/></clipPath><clipPath id="h"><rect height="40" rx="4" width="40" x="148" y="338"/></clipPath><clipPath id="i"><rect height="40" rx="4" width="40" x="148" y="395"/></clipPath><clipPath id="j"><rect height="40" rx="4" width="40" x="205" y="167"/></clipPath><clipPath id="k"><rect height="40" rx="4" width="40" x="205" y="224"/></clipPath><clipPath id="l"><rect height="40" rx="4" width="40" x="205" y="281"/></clipPath><clipPath id="m"><rect height="40" rx="4" width="40" x="205" y="338"/></clipPath><clipPath id="n"><rect height="40" rx="4" width="40" x="205" y="395"/></clipPath><clipPath id="o"><rect height="40" rx="4" width="40" x="262" y="167"/></clipPath><clipPath id="p"><rect height="40" rx="4" width="40" x="262" y="224"/></clipPath><clipPath id="q"><rect height="40" rx="4" width="40" x="262" y="281"/></clipPath><clipPath id="r"><rect height="40" rx="4" width="40" x="262" y="338"/></clipPath><clipPath id="s"><rect height="40" rx="4" width="40" x="319" y="167"/></clipPath><clipPath id="t"><rect height="40" rx="4" width="40" x="319" y="224"/></clipPath><clipPath id="u"><rect height="40" rx="4" width="40" x="319" y="281"/></clipPath><clipPath id="v"><rect height="40" rx="4" width="40" x="319" y="338"/></clipPath><clipPath id="w"><rect height="40" rx="4" width="40" x="376" y="167"/></clipPath><clipPath id="x"><rect height="40" rx="4" width="40" x="376" y="224"/></clipPath><clipPath id="y"><rect height="40" rx="4" width="40" x="376" y="281"/></clipPath><clipPath id="z"><rect height="40" rx="4" width="40" x="376" y="338"/></clipPath><clipPath id="A"><rect height="40" rx="4" width="40" x="433" y="167"/></clipPath><clipPath id="B"><rect height="40" rx="4" width="40" x="433" y="224"/></clipPath><clipPath id="C"><rect height="40" rx="4" width="40" x="433" y="281"/></clipPath><clipPath id="D"><rect height="40" rx="4" width="40" x="433" y="338"/></clipPath><mask id="E" fill="#000" height="55" maskUnits="userSpaceOnUse" width="414" x="75" y="66"><path d="m75 66h414v55h-414z" fill="#fff"/><path d="m75 66h414v54h-414z" fill="#000"/></mask><rect fill="#242729" height="564" rx="10" width="564"/><rect fill="#000" fill-opacity=".5" height="564" rx="10" width="564"/><path d="m75 78c0-6.6274 5.3726-12 12-12h390c6.627 0 12 5.3726 12 12v421h-414z" fill="#242729"/><path d="m110.246 147-.012-5.568-2.76 4.608h-.696l-2.76-4.536v5.496h-1.488v-8.4h1.284l3.336 5.568 3.276-5.568h1.284l.012 8.4zm6.481.084c-.648 0-1.232-.14-1.752-.42s-.928-.668-1.224-1.164c-.288-.504-.432-1.072-.432-1.704s.144-1.196.432-1.692c.296-.496.704-.884 1.224-1.164s1.104-.42 1.752-.42c.656 0 1.244.14 1.764.42s.924.668 1.212 1.164c.296.496.444 1.06.444 1.692s-.148 1.2-.444 1.704c-.288.496-.692.884-1.212 1.164s-1.108.42-1.764.42zm0-1.284c.552 0 1.008-.184 1.368-.552s.54-.852.54-1.452-.18-1.084-.54-1.452-.816-.552-1.368-.552-1.008.184-1.368.552c-.352.368-.528.852-.528 1.452s.176 1.084.528 1.452c.36.368.816.552 1.368.552z" fill="#fff" fill-opacity=".75"/><g clip-path="url(#a)"><path d="m108.709 250 4.624-10.368.544.928h-6.352l.992-1.008v2.912h-1.936v-3.664h8.704v1.392l-4.352 9.808z" fill="#fff" fill-opacity=".85"/></g><g clip-path="url(#b)"><path d="m105.019 307v-10.4l.912.944h-3.28v-1.744h4.448v11.2zm4.142-2.544v-1.44l5.52-7.216h2.224l-5.44 7.216-1.04-.32h8.88v1.76zm6.144 2.544v-2.544l.064-1.76v-2.256h1.952v6.56z" fill="#fff" fill-opacity=".85"/></g><g clip-path="url(#c)"><path d="m103.857 364v-1.392l4.448-4.224c.373-.352.651-.661.832-.928s.299-.512.352-.736c.064-.235.096-.453.096-.656 0-.512-.176-.907-.528-1.184-.352-.288-.869-.432-1.552-.432-.544 0-1.04.096-1.488.288-.437.192-.816.485-1.136.88l-1.456-1.12c.437-.587 1.024-1.04 1.76-1.36.747-.331 1.579-.496 2.496-.496.811 0 1.515.133 2.112.4.608.256 1.072.624 1.392 1.104.331.48.496 1.051.496 1.712 0 .363-.048.725-.144 1.088-.096.352-.277.725-.544 1.12s-.656.837-1.168 1.328l-3.824 3.632-.432-.784h6.544v1.76zm11.248 0v-10.4l.912.944h-3.28v-1.744h4.448v11.2z" fill="#fff" fill-opacity=".85"/></g><g clip-path="url(#d)"><path d="m101.685 421v-1.392l4.448-4.224c.373-.352.651-.661.832-.928s.299-.512.352-.736c.064-.235.096-.453.096-.656 0-.512-.176-.907-.528-1.184-.352-.288-.869-.432-1.552-.432-.544 0-1.04.096-1.488.288-.437.192-.816.485-1.136.88l-1.456-1.12c.437-.587 1.024-1.04 1.76-1.36.747-.331 1.579-.496 2.496-.496.811 0 1.515.133 2.112.4.608.256 1.072.624 1.392 1.104.331.48.496 1.051.496 1.712 0 .363-.048.725-.144 1.088-.096.352-.277.725-.544 1.12s-.656.837-1.168 1.328l-3.824 3.632-.432-.784h6.544v1.76zm13.953.16c-.928 0-1.734-.139-2.416-.416-.683-.277-1.211-.667-1.584-1.168-.374-.512-.56-1.109-.56-1.792s.181-1.259.544-1.728c.362-.469.885-.827 1.568-1.072.682-.245 1.498-.368 2.448-.368.949 0 1.765.123 2.448.368.693.245 1.221.608 1.584 1.088.373.469.56 1.04.56 1.712 0 .683-.192 1.28-.576 1.792-.374.501-.907.891-1.6 1.168-.683.277-1.488.416-2.416.416zm0-1.632c.768 0 1.376-.16 1.824-.48s.672-.763.672-1.328c0-.555-.224-.992-.672-1.312s-1.056-.48-1.824-.48-1.371.16-1.808.48c-.438.32-.656.757-.656 1.312 0 .565.218 1.008.656 1.328.437.32 1.04.48 1.808.48zm0-3.824c-.864 0-1.606-.112-2.224-.336-.619-.235-1.099-.571-1.44-1.008-.331-.448-.496-.981-.496-1.6 0-.64.17-1.189.512-1.648.352-.469.842-.832 1.472-1.088.629-.256 1.354-.384 2.176-.384.832 0 1.562.128 2.192.384.629.256 1.12.619 1.472 1.088.352.459.528 1.008.528 1.648 0 .619-.171 1.152-.512 1.6-.331.437-.811.773-1.44 1.008-.63.224-1.376.336-2.24.336zm0-1.28c.661 0 1.184-.139 1.568-.416.384-.288.576-.672.576-1.152 0-.501-.198-.891-.592-1.168-.395-.277-.912-.416-1.552-.416s-1.152.139-1.536.416-.576.667-.576 1.168c0 .48.186.864.56 1.152.384.277.901.416 1.552.416z" fill="#fff" fill-opacity=".85"/></g><path d="m163.215 139.92h-2.784v-1.32h7.128v1.32h-2.784v7.08h-1.56zm11.422.672v6.408h-1.428v-.816c-.24.288-.54.512-.9.672-.36.152-.748.228-1.164.228-.856 0-1.532-.236-2.028-.708-.488-.48-.732-1.188-.732-2.124v-3.66h1.5v3.456c0 .576.128 1.008.384 1.296.264.28.636.42 1.116.42.536 0 .96-.164 1.272-.492.32-.336.48-.816.48-1.44v-3.24z" fill="#fff" fill-opacity=".75"/><g clip-path="url(#e)"><path d="m167.449 193v-10.4l.912.944h-3.28v-1.744h4.448v11.2z" fill="#fff" fill-opacity=".85"/><path d="m182 176c1.657 0 3-1.343 3-3s-1.343-3-3-3-3 1.343-3 3 1.343 3 3 3z" fill="#d7dbdd"/></g><g clip-path="url(#f)"><path d="m167.981 250.16c-.928 0-1.733-.139-2.416-.416-.682-.277-1.21-.667-1.584-1.168-.373-.512-.56-1.109-.56-1.792s.182-1.259.544-1.728c.363-.469.886-.827 1.568-1.072.683-.245 1.499-.368 2.448-.368.95 0 1.766.123 2.448.368.694.245 1.222.608 1.584 1.088.374.469.56 1.04.56 1.712 0 .683-.192 1.28-.576 1.792-.373.501-.906.891-1.6 1.168-.682.277-1.488.416-2.416.416zm0-1.632c.768 0 1.376-.16 1.824-.48s.672-.763.672-1.328c0-.555-.224-.992-.672-1.312s-1.056-.48-1.824-.48-1.37.16-1.808.48c-.437.32-.656.757-.656 1.312 0 .565.219 1.008.656 1.328.438.32 1.04.48 1.808.48zm0-3.824c-.864 0-1.605-.112-2.224-.336-.618-.235-1.098-.571-1.44-1.008-.33-.448-.496-.981-.496-1.6 0-.64.171-1.189.512-1.648.352-.469.843-.832 1.472-1.088.63-.256 1.355-.384 2.176-.384.832 0 1.563.128 2.192.384.63.256 1.12.619 1.472 1.088.352.459.528 1.008.528 1.648 0 .619-.17 1.152-.512 1.6-.33.437-.81.773-1.44 1.008-.629.224-1.376.336-2.24.336zm0-1.28c.662 0 1.184-.139 1.568-.416.384-.288.576-.672.576-1.152 0-.501-.197-.891-.592-1.168-.394-.277-.912-.416-1.552-.416s-1.152.139-1.536.416-.576.667-.576 1.168c0 .48.187.864.56 1.152.384.277.902.416 1.552.416z" fill="#fff" fill-opacity=".85"/></g><g clip-path="url(#g)"><path d="m162.777 307v-10.4l.912.944h-3.28v-1.744h4.448v11.2zm8.014.16c-.789 0-1.563-.112-2.32-.336-.747-.235-1.376-.555-1.888-.96l.88-1.616c.405.331.896.597 1.472.8.587.203 1.195.304 1.824.304.736 0 1.312-.155 1.728-.464.427-.309.64-.725.64-1.248 0-.352-.091-.661-.272-.928-.171-.267-.48-.469-.928-.608-.437-.139-1.04-.208-1.808-.208h-2.704l.576-6.096h6.576v1.744h-5.808l1.088-.992-.432 4.56-1.088-.976h2.256c1.109 0 2 .149 2.672.448.683.288 1.179.693 1.488 1.216.32.512.48 1.099.48 1.76 0 .651-.16 1.248-.48 1.792s-.811.981-1.472 1.312c-.651.331-1.477.496-2.48.496z" fill="#fff" fill-opacity=".85"/></g><g clip-path="url(#h)"><path d="m159.248 364v-1.392l4.448-4.224c.373-.352.65-.661.832-.928.181-.267.298-.512.352-.736.064-.235.096-.453.096-.656 0-.512-.176-.907-.528-1.184-.352-.288-.87-.432-1.552-.432-.544 0-1.04.096-1.488.288-.438.192-.816.485-1.136.88l-1.456-1.12c.437-.587 1.024-1.04 1.76-1.36.746-.331 1.578-.496 2.496-.496.81 0 1.514.133 2.112.4.608.256 1.072.624 1.392 1.104.33.48.496 1.051.496 1.712 0 .363-.048.725-.144 1.088-.096.352-.278.725-.544 1.12-.267.395-.656.837-1.168 1.328l-3.824 3.632-.432-.784h6.543v1.76zm9.312 0v-1.392l4.448-4.224c.373-.352.651-.661.832-.928s.299-.512.352-.736c.064-.235.096-.453.096-.656 0-.512-.176-.907-.528-1.184-.352-.288-.869-.432-1.552-.432-.544 0-1.04.096-1.488.288-.437.192-.816.485-1.136.88l-1.456-1.12c.437-.587 1.024-1.04 1.76-1.36.747-.331 1.579-.496 2.496-.496.811 0 1.515.133 2.112.4.608.256 1.072.624 1.392 1.104.331.48.496 1.051.496 1.712 0 .363-.048.725-.144 1.088-.096.352-.277.725-.544 1.12s-.656.837-1.168 1.328l-3.824 3.632-.432-.784h6.544v1.76z" fill="#fff" fill-opacity=".85"/></g><g clip-path="url(#i)"><path d="m158.888 421v-1.392l4.448-4.224c.373-.352.651-.661.832-.928s.299-.512.352-.736c.064-.235.096-.453.096-.656 0-.512-.176-.907-.528-1.184-.352-.288-.869-.432-1.552-.432-.544 0-1.04.096-1.488.288-.437.192-.816.485-1.136.88l-1.456-1.12c.437-.587 1.024-1.04 1.76-1.36.747-.331 1.579-.496 2.496-.496.811 0 1.515.133 2.112.4.608.256 1.072.624 1.392 1.104.331.48.496 1.051.496 1.712 0 .363-.048.725-.144 1.088-.096.352-.277.725-.544 1.12s-.656.837-1.168 1.328l-3.824 3.632-.432-.784h6.544v1.76zm13.233-11.36c1.024 0 1.893.219 2.608.656.725.427 1.28 1.051 1.664 1.872s.576 1.835.576 3.04c0 1.28-.235 2.363-.704 3.248-.459.885-1.099 1.557-1.92 2.016-.822.459-1.776.688-2.864.688-.566 0-1.104-.059-1.616-.176s-.955-.299-1.328-.544l.768-1.568c.309.203.645.347 1.008.432.362.075.736.112 1.12.112 1.056 0 1.893-.325 2.512-.976.618-.651.928-1.611.928-2.88 0-.203-.006-.437-.016-.704-.011-.277-.048-.555-.112-.832l.64.704c-.182.437-.443.805-.784 1.104-.342.288-.742.507-1.2.656-.459.149-.966.224-1.52.224-.726 0-1.382-.139-1.968-.416-.576-.288-1.035-.688-1.376-1.2-.342-.523-.512-1.131-.512-1.824 0-.747.181-1.387.544-1.92.362-.544.853-.965 1.472-1.264.629-.299 1.322-.448 2.08-.448zm.112 1.632c-.427 0-.806.08-1.136.24-.331.149-.592.368-.784.656-.182.277-.272.613-.272 1.008 0 .587.202 1.051.608 1.392.405.341.949.512 1.632.512.448 0 .842-.08 1.184-.24.341-.171.608-.4.8-.688.192-.299.288-.629.288-.992 0-.352-.091-.667-.272-.944-.182-.288-.443-.517-.784-.688-.342-.171-.763-.256-1.264-.256z" fill="#fff" fill-opacity=".85"/><path d="m182 404c1.657 0 3-1.343 3-3s-1.343-3-3-3-3 1.343-3 3 1.343 3 3 3z" fill="#d7dbdd"/></g><path d="m228.138 138.6-2.784 8.4h-1.656l-2.076-6.216-2.112 6.216h-1.668l-2.784-8.4h1.62l2.088 6.384 2.172-6.384h1.44l2.124 6.42 2.148-6.42zm6.671 5.232c0 .104-.008.252-.024.444h-5.028c.088.472.316.848.684 1.128.376.272.84.408 1.392.408.704 0 1.284-.232 1.74-.696l.804.924c-.288.344-.652.604-1.092.78s-.936.264-1.488.264c-.704 0-1.324-.14-1.86-.42s-.952-.668-1.248-1.164c-.288-.504-.432-1.072-.432-1.704 0-.624.14-1.184.42-1.68.288-.504.684-.896 1.188-1.176s1.072-.42 1.704-.42c.624 0 1.18.14 1.668.42.496.272.88.66 1.152 1.164.28.496.42 1.072.42 1.728zm-3.24-2.112c-.48 0-.888.144-1.224.432-.328.28-.528.656-.6 1.128h3.636c-.064-.464-.26-.84-.588-1.128s-.736-.432-1.224-.432z" fill="#fff" fill-opacity=".75"/><g clip-path="url(#j)"><path d="m220.904 193v-1.392l4.448-4.224c.373-.352.65-.661.832-.928.181-.267.298-.512.352-.736.064-.235.096-.453.096-.656 0-.512-.176-.907-.528-1.184-.352-.288-.87-.432-1.552-.432-.544 0-1.04.096-1.488.288-.438.192-.816.485-1.136.88l-1.456-1.12c.437-.587 1.024-1.04 1.76-1.36.746-.331 1.578-.496 2.496-.496.81 0 1.514.133 2.112.4.608.256 1.072.624 1.392 1.104.33.48.496 1.051.496 1.712 0 .363-.048.725-.144 1.088-.096.352-.278.725-.544 1.12-.267.395-.656.837-1.168 1.328l-3.824 3.632-.432-.784h6.544v1.76z" fill="#fff" fill-opacity=".85"/></g><g clip-path="url(#k)"><path d="m224.464 238.64c1.024 0 1.894.219 2.608.656.726.427 1.28 1.051 1.664 1.872s.576 1.835.576 3.04c0 1.28-.234 2.363-.704 3.248-.458.885-1.098 1.557-1.92 2.016-.821.459-1.776.688-2.864.688-.565 0-1.104-.059-1.616-.176s-.954-.299-1.328-.544l.768-1.568c.31.203.646.347 1.008.432.363.075.736.112 1.12.112 1.056 0 1.894-.325 2.512-.976.619-.651.928-1.611.928-2.88 0-.203-.005-.437-.016-.704-.01-.277-.048-.555-.112-.832l.64.704c-.181.437-.442.805-.784 1.104-.341.288-.741.507-1.2.656-.458.149-.965.224-1.52.224-.725 0-1.381-.139-1.968-.416-.576-.288-1.034-.688-1.376-1.2-.341-.523-.512-1.131-.512-1.824 0-.747.182-1.387.544-1.92.363-.544.854-.965 1.472-1.264.63-.299 1.323-.448 2.08-.448zm.112 1.632c-.426 0-.805.08-1.136.24-.33.149-.592.368-.784.656-.181.277-.272.613-.272 1.008 0 .587.203 1.051.608 1.392.406.341.95.512 1.632.512.448 0 .843-.08 1.184-.24.342-.171.608-.4.8-.688.192-.299.288-.629.288-.992 0-.352-.09-.667-.272-.944-.181-.288-.442-.517-.784-.688-.341-.171-.762-.256-1.264-.256z" fill="#fff" fill-opacity=".85"/></g><g clip-path="url(#l)"><path d="m219.434 307v-10.4l.912.944h-3.28v-1.744h4.448v11.2zm9.149.16c-1.013 0-1.882-.213-2.608-.64-.725-.437-1.28-1.067-1.664-1.888s-.576-1.835-.576-3.04c0-1.28.23-2.363.688-3.248.47-.885 1.115-1.557 1.936-2.016.832-.459 1.787-.688 2.864-.688.566 0 1.104.059 1.616.176.523.117.966.299 1.328.544l-.768 1.568c-.309-.203-.645-.341-1.008-.416-.352-.085-.725-.128-1.12-.128-1.056 0-1.893.325-2.512.976-.618.651-.928 1.611-.928 2.88 0 .203.006.443.016.72.011.267.048.539.112.816l-.64-.704c.192-.437.454-.8.784-1.088.342-.299.742-.523 1.2-.672.47-.149.976-.224 1.52-.224.736 0 1.392.144 1.968.432.576.277 1.035.677 1.376 1.2.342.512.512 1.115.512 1.808 0 .736-.181 1.376-.544 1.92-.362.544-.853.965-1.472 1.264-.618.299-1.312.448-2.08.448zm-.112-1.632c.427 0 .806-.075 1.136-.224.331-.16.587-.384.768-.672.192-.288.288-.624.288-1.008 0-.587-.202-1.051-.608-1.392-.405-.341-.949-.512-1.632-.512-.448 0-.842.085-1.184.256-.33.16-.597.384-.8.672-.192.288-.288.619-.288.992 0 .341.091.656.272.944.182.288.443.517.784.688.352.171.774.256 1.264.256z" fill="#fff" fill-opacity=".85"/><path d="m239 290c1.657 0 3-1.343 3-3s-1.343-3-3-3-3 1.343-3 3 1.343 3 3 3z" fill="#d7dbdd"/></g><g clip-path="url(#m)"><path d="m216.248 364v-1.392l4.448-4.224c.373-.352.65-.661.832-.928.181-.267.298-.512.352-.736.064-.235.096-.453.096-.656 0-.512-.176-.907-.528-1.184-.352-.288-.87-.432-1.552-.432-.544 0-1.04.096-1.488.288-.438.192-.816.485-1.136.88l-1.456-1.12c.437-.587 1.024-1.04 1.76-1.36.746-.331 1.578-.496 2.496-.496.81 0 1.514.133 2.112.4.608.256 1.072.624 1.392 1.104.33.48.496 1.051.496 1.712 0 .363-.048.725-.144 1.088-.096.352-.278.725-.544 1.12-.267.395-.656.837-1.168 1.328l-3.824 3.632-.432-.784h6.543v1.76zm12.976.16c-.789 0-1.563-.112-2.32-.336-.747-.235-1.376-.555-1.888-.96l.896-1.616c.405.331.896.597 1.472.8s1.179.304 1.808.304c.747 0 1.328-.149 1.744-.448.416-.309.624-.725.624-1.248 0-.512-.192-.917-.576-1.216s-1.003-.448-1.856-.448h-1.024v-1.424l3.2-3.808.272.784h-6.016v-1.744h7.632v1.392l-3.2 3.808-1.088-.64h.624c1.376 0 2.405.309 3.088.928.693.608 1.04 1.392 1.04 2.352 0 .629-.16 1.211-.48 1.744s-.811.965-1.472 1.296c-.651.32-1.477.48-2.48.48z" fill="#fff" fill-opacity=".85"/><path d="m239 347c1.657 0 3-1.343 3-3s-1.343-3-3-3-3 1.343-3 3 1.343 3 3 3z" fill="#d7dbdd"/></g><g clip-path="url(#n)"><path d="m219.185 421.16c-.789 0-1.563-.112-2.32-.336-.747-.235-1.376-.555-1.888-.96l.896-1.616c.405.331.896.597 1.472.8s1.179.304 1.808.304c.747 0 1.328-.149 1.744-.448.416-.309.624-.725.624-1.248 0-.512-.192-.917-.576-1.216s-1.003-.448-1.856-.448h-1.024v-1.424l3.2-3.808.272.784h-6.016v-1.744h7.632v1.392l-3.2 3.808-1.088-.64h.624c1.376 0 2.405.309 3.088.928.693.608 1.04 1.392 1.04 2.352 0 .629-.16 1.211-.48 1.744s-.811.965-1.472 1.296c-.651.32-1.477.48-2.48.48zm10.464 0c-.885 0-1.685-.224-2.4-.672-.704-.448-1.258-1.099-1.664-1.952-.405-.864-.608-1.909-.608-3.136s.203-2.267.608-3.12c.406-.864.96-1.52 1.664-1.968.715-.448 1.515-.672 2.4-.672.896 0 1.696.224 2.4.672s1.259 1.104 1.664 1.968c.416.853.624 1.893.624 3.12s-.208 2.272-.624 3.136c-.405.853-.96 1.504-1.664 1.952s-1.504.672-2.4.672zm0-1.808c.523 0 .976-.139 1.36-.416.384-.288.683-.725.896-1.312.224-.587.336-1.328.336-2.224 0-.907-.112-1.648-.336-2.224-.213-.587-.512-1.019-.896-1.296-.384-.288-.837-.432-1.36-.432-.501 0-.949.144-1.344.432-.384.277-.688.709-.912 1.296-.213.576-.32 1.317-.32 2.224 0 .896.107 1.637.32 2.224.224.587.528 1.024.912 1.312.395.277.843.416 1.344.416z" fill="#fff" fill-opacity=".85"/></g><path d="m277.115 139.92h-2.784v-1.32h7.128v1.32h-2.784v7.08h-1.56zm9.007.6c.808 0 1.456.236 1.944.708s.732 1.172.732 2.1v3.672h-1.5v-3.48c0-.56-.132-.98-.396-1.26-.264-.288-.64-.432-1.128-.432-.552 0-.988.168-1.308.504-.32.328-.48.804-.48 1.428v3.24h-1.5v-8.904h1.5v3.24c.248-.264.552-.464.912-.6.368-.144.776-.216 1.224-.216z" fill="#fff" fill-opacity=".75"/><g clip-path="url(#o)"><path d="m281.568 193.16c-.79 0-1.563-.112-2.32-.336-.747-.235-1.376-.555-1.888-.96l.896-1.616c.405.331.896.597 1.472.8s1.178.304 1.808.304c.746 0 1.328-.149 1.744-.448.416-.309.624-.725.624-1.248 0-.512-.192-.917-.576-1.216s-1.003-.448-1.856-.448h-1.024v-1.424l3.2-3.808.272.784h-6.016v-1.744h7.632v1.392l-3.2 3.808-1.088-.64h.624c1.376 0 2.405.309 3.088.928.693.608 1.04 1.392 1.04 2.352 0 .629-.16 1.211-.48 1.744s-.811.965-1.472 1.296c-.651.32-1.478.48-2.48.48z" fill="#fff" fill-opacity=".85"/></g><g clip-path="url(#p)"><path d="m276.066 250v-10.4l.912.944h-3.28v-1.744h4.448v11.2zm8.974.16c-.885 0-1.685-.224-2.4-.672-.704-.448-1.259-1.099-1.664-1.952-.405-.864-.608-1.909-.608-3.136s.203-2.267.608-3.12c.405-.864.96-1.52 1.664-1.968.715-.448 1.515-.672 2.4-.672.896 0 1.696.224 2.4.672s1.259 1.104 1.664 1.968c.416.853.624 1.893.624 3.12s-.208 2.272-.624 3.136c-.405.853-.96 1.504-1.664 1.952s-1.504.672-2.4.672zm0-1.808c.523 0 .976-.139 1.36-.416.384-.288.683-.725.896-1.312.224-.587.336-1.328.336-2.224 0-.907-.112-1.648-.336-2.224-.213-.587-.512-1.019-.896-1.296-.384-.288-.837-.432-1.36-.432-.501 0-.949.144-1.344.432-.384.277-.688.709-.912 1.296-.213.576-.32 1.317-.32 2.224 0 .896.107 1.637.32 2.224.224.587.528 1.024.912 1.312.395.277.843.416 1.344.416z" fill="#fff" fill-opacity=".85"/></g><g clip-path="url(#q)"><path d="m276.582 307v-10.4l.912.944h-3.28v-1.744h4.448v11.2zm6.174 0 4.624-10.368.544.928h-6.352l.992-1.008v2.912h-1.936v-3.664h8.704v1.392l-4.352 9.808z" fill="#fff" fill-opacity=".85"/></g><g clip-path="url(#r)"><path d="m272.591 364v-1.392l4.448-4.224c.374-.352.651-.661.832-.928.182-.267.299-.512.352-.736.064-.235.096-.453.096-.656 0-.512-.176-.907-.528-1.184-.352-.288-.869-.432-1.552-.432-.544 0-1.04.096-1.488.288-.437.192-.816.485-1.136.88l-1.456-1.12c.438-.587 1.024-1.04 1.76-1.36.747-.331 1.579-.496 2.496-.496.811 0 1.515.133 2.112.4.608.256 1.072.624 1.392 1.104.331.48.496 1.051.496 1.712 0 .363-.048.725-.144 1.088-.096.352-.277.725-.544 1.12-.266.395-.656.837-1.168 1.328l-3.824 3.632-.432-.784h6.544v1.76zm9.062-2.544v-1.44l5.52-7.216h2.224l-5.44 7.216-1.04-.32h8.88v1.76zm6.144 2.544v-2.544l.064-1.76v-2.256h1.952v6.56z" fill="#fff" fill-opacity=".85"/></g><path d="m335.407 139.908v2.556h4.056v1.32h-4.056v3.216h-1.56v-8.4h6.132v1.308zm7.247 1.62c.432-.672 1.192-1.008 2.28-1.008v1.428c-.128-.024-.244-.036-.348-.036-.584 0-1.04.172-1.368.516-.328.336-.492.824-.492 1.464v3.108h-1.5v-6.408h1.428z" fill="#fff" fill-opacity=".75"/><g clip-path="url(#s)"><path d="m334.114 190.456v-1.44l5.52-7.216h2.224l-5.44 7.216-1.04-.32h8.88v1.76zm6.144 2.544v-2.544l.064-1.76v-2.256h1.952v6.56z" fill="#fff" fill-opacity=".85"/><path d="m353 176c1.657 0 3-1.343 3-3s-1.343-3-3-3-3 1.343-3 3 1.343 3 3 3z" fill="#d7dbdd"/></g><g clip-path="url(#t)"><path d="m335.402 250v-10.4l.912.944h-3.28v-1.744h4.448v11.2zm6.094 0v-10.4l.912.944h-3.28v-1.744h4.448v11.2z" fill="#fff" fill-opacity=".85"/><path d="m353 233c1.657 0 3-1.343 3-3s-1.343-3-3-3-3 1.343-3 3 1.343 3 3 3z" fill="#d7dbdd"/></g><g clip-path="url(#u)"><path d="m333.23 307v-10.4l.912.944h-3.28v-1.744h4.448v11.2zm8.798.16c-.928 0-1.733-.139-2.416-.416s-1.211-.667-1.584-1.168c-.373-.512-.56-1.109-.56-1.792s.181-1.259.544-1.728.885-.827 1.568-1.072 1.499-.368 2.448-.368 1.765.123 2.448.368c.693.245 1.221.608 1.584 1.088.373.469.56 1.04.56 1.712 0 .683-.192 1.28-.576 1.792-.373.501-.907.891-1.6 1.168-.683.277-1.488.416-2.416.416zm0-1.632c.768 0 1.376-.16 1.824-.48s.672-.763.672-1.328c0-.555-.224-.992-.672-1.312s-1.056-.48-1.824-.48-1.371.16-1.808.48-.656.757-.656 1.312c0 .565.219 1.008.656 1.328s1.04.48 1.808.48zm0-3.824c-.864 0-1.605-.112-2.224-.336-.619-.235-1.099-.571-1.44-1.008-.331-.448-.496-.981-.496-1.6 0-.64.171-1.189.512-1.648.352-.469.843-.832 1.472-1.088s1.355-.384 2.176-.384c.832 0 1.563.128 2.192.384s1.12.619 1.472 1.088c.352.459.528 1.008.528 1.648 0 .619-.171 1.152-.512 1.6-.331.437-.811.773-1.44 1.008-.629.224-1.376.336-2.24.336zm0-1.28c.661 0 1.184-.139 1.568-.416.384-.288.576-.672.576-1.152 0-.501-.197-.891-.592-1.168s-.912-.416-1.552-.416-1.152.139-1.536.416-.576.667-.576 1.168c0 .48.187.864.56 1.152.384.277.901.416 1.552.416z" fill="#fff" fill-opacity=".85"/></g><g clip-path="url(#v)"><path d="m330.232 364v-1.392l4.448-4.224c.373-.352.651-.661.832-.928s.299-.512.352-.736c.064-.235.096-.453.096-.656 0-.512-.176-.907-.528-1.184-.352-.288-.869-.432-1.552-.432-.544 0-1.04.096-1.488.288-.437.192-.816.485-1.136.88l-1.456-1.12c.437-.587 1.024-1.04 1.76-1.36.747-.331 1.579-.496 2.496-.496.811 0 1.515.133 2.112.4.608.256 1.072.624 1.392 1.104.331.48.496 1.051.496 1.712 0 .363-.048.725-.144 1.088-.096.352-.277.725-.544 1.12s-.656.837-1.168 1.328l-3.824 3.632-.432-.784h6.544v1.76zm13.168.16c-.789 0-1.562-.112-2.32-.336-.746-.235-1.376-.555-1.888-.96l.88-1.616c.406.331.896.597 1.472.8.587.203 1.195.304 1.824.304.736 0 1.312-.155 1.728-.464.427-.309.64-.725.64-1.248 0-.352-.09-.661-.272-.928-.17-.267-.48-.469-.928-.608-.437-.139-1.04-.208-1.808-.208h-2.704l.576-6.096h6.576v1.744h-5.808l1.088-.992-.432 4.56-1.088-.976h2.256c1.11 0 2 .149 2.672.448.683.288 1.179.693 1.488 1.216.32.512.48 1.099.48 1.76 0 .651-.16 1.248-.48 1.792s-.81.981-1.472 1.312c-.65.331-1.477.496-2.48.496z" fill="#fff" fill-opacity=".85"/><path d="m353 347c1.657 0 3-1.343 3-3s-1.343-3-3-3-3 1.343-3 3 1.343 3 3 3z" fill="#d7dbdd"/></g><path d="m392.314 147.12c-.648 0-1.276-.092-1.884-.276-.6-.184-1.076-.428-1.428-.732l.54-1.212c.344.272.764.496 1.26.672.504.168 1.008.252 1.512.252.624 0 1.088-.1 1.392-.3.312-.2.468-.464.468-.792 0-.24-.088-.436-.264-.588-.168-.16-.384-.284-.648-.372s-.624-.188-1.08-.3c-.64-.152-1.16-.304-1.56-.456-.392-.152-.732-.388-1.02-.708-.28-.328-.42-.768-.42-1.32 0-.464.124-.884.372-1.26.256-.384.636-.688 1.14-.912.512-.224 1.136-.336 1.872-.336.512 0 1.016.064 1.512.192s.924.312 1.284.552l-.492 1.212c-.368-.216-.752-.38-1.152-.492s-.788-.168-1.164-.168c-.616 0-1.076.104-1.38.312-.296.208-.444.484-.444.828 0 .24.084.436.252.588.176.152.396.272.66.36s.624.188 1.08.3c.624.144 1.136.296 1.536.456.4.152.74.388 1.02.708.288.32.432.752.432 1.296 0 .464-.128.884-.384 1.26-.248.376-.628.676-1.14.9s-1.136.336-1.872.336zm7.247-6.6c.944 0 1.664.228 2.16.684.504.448.756 1.128.756 2.04v3.756h-1.416v-.78c-.184.28-.448.496-.792.648-.336.144-.744.216-1.224.216s-.9-.08-1.26-.24c-.36-.168-.64-.396-.84-.684-.192-.296-.288-.628-.288-.996 0-.576.212-1.036.636-1.38.432-.352 1.108-.528 2.028-.528h1.656v-.096c0-.448-.136-.792-.408-1.032-.264-.24-.66-.36-1.188-.36-.36 0-.716.056-1.068.168-.344.112-.636.268-.876.468l-.588-1.092c.336-.256.74-.452 1.212-.588s.972-.204 1.5-.204zm-.204 5.472c.376 0 .708-.084.996-.252.296-.176.504-.424.624-.744v-.744h-1.548c-.864 0-1.296.284-1.296.852 0 .272.108.488.324.648s.516.24.9.24z" fill="#fff" fill-opacity=".75"/><g clip-path="url(#w)"><path d="m395.744 193.16c-.789 0-1.563-.112-2.32-.336-.747-.235-1.376-.555-1.888-.96l.88-1.616c.405.331.896.597 1.472.8.587.203 1.195.304 1.824.304.736 0 1.312-.155 1.728-.464.427-.309.64-.725.64-1.248 0-.352-.091-.661-.272-.928-.171-.267-.48-.469-.928-.608-.437-.139-1.04-.208-1.808-.208h-2.704l.576-6.096h6.576v1.744h-5.808l1.088-.992-.432 4.56-1.088-.976h2.256c1.109 0 2 .149 2.672.448.683.288 1.179.693 1.488 1.216.32.512.48 1.099.48 1.76 0 .651-.16 1.248-.48 1.792s-.811.981-1.472 1.312c-.651.331-1.477.496-2.48.496z" fill="#fff" fill-opacity=".85"/><path d="m410 176c1.657 0 3-1.343 3-3s-1.343-3-3-3-3 1.343-3 3 1.343 3 3 3z" fill="#d7dbdd"/></g><g clip-path="url(#x)"><path d="m390.793 250v-10.4l.912.944h-3.28v-1.744h4.448v11.2zm4.158 0v-1.392l4.448-4.224c.373-.352.65-.661.832-.928.181-.267.298-.512.352-.736.064-.235.096-.453.096-.656 0-.512-.176-.907-.528-1.184-.352-.288-.87-.432-1.552-.432-.544 0-1.04.096-1.488.288-.438.192-.816.485-1.136.88l-1.456-1.12c.437-.587 1.024-1.04 1.76-1.36.746-.331 1.578-.496 2.496-.496.81 0 1.514.133 2.112.4.608.256 1.072.624 1.392 1.104.33.48.496 1.051.496 1.712 0 .363-.048.725-.144 1.088-.096.352-.278.725-.544 1.12-.267.395-.656.837-1.168 1.328l-3.824 3.632-.432-.784h6.544v1.76z" fill="#fff" fill-opacity=".85"/></g><g clip-path="url(#y)"><path d="m390.434 307v-10.4l.912.944h-3.28v-1.744h4.448v11.2zm8.077-11.36c1.024 0 1.894.219 2.608.656.726.427 1.28 1.051 1.664 1.872s.576 1.835.576 3.04c0 1.28-.234 2.363-.704 3.248-.458.885-1.098 1.557-1.92 2.016-.821.459-1.776.688-2.864.688-.565 0-1.104-.059-1.616-.176s-.954-.299-1.328-.544l.768-1.568c.31.203.646.347 1.008.432.363.075.736.112 1.12.112 1.056 0 1.894-.325 2.512-.976.619-.651.928-1.611.928-2.88 0-.203-.005-.437-.016-.704-.01-.277-.048-.555-.112-.832l.64.704c-.181.437-.442.805-.784 1.104-.341.288-.741.507-1.2.656-.458.149-.965.224-1.52.224-.725 0-1.381-.139-1.968-.416-.576-.288-1.034-.688-1.376-1.2-.341-.523-.512-1.131-.512-1.824 0-.747.182-1.387.544-1.92.363-.544.854-.965 1.472-1.264.63-.299 1.323-.448 2.08-.448zm.112 1.632c-.426 0-.805.08-1.136.24-.33.149-.592.368-.784.656-.181.277-.272.613-.272 1.008 0 .587.203 1.051.608 1.392.406.341.95.512 1.632.512.448 0 .843-.08 1.184-.24.342-.171.608-.4.8-.688.192-.299.288-.629.288-.992 0-.352-.09-.667-.272-.944-.181-.288-.442-.517-.784-.688-.341-.171-.762-.256-1.264-.256z" fill="#fff" fill-opacity=".85"/></g><g clip-path="url(#z)"><path d="m386.888 364v-1.392l4.448-4.224c.373-.352.651-.661.832-.928s.299-.512.352-.736c.064-.235.096-.453.096-.656 0-.512-.176-.907-.528-1.184-.352-.288-.869-.432-1.552-.432-.544 0-1.04.096-1.488.288-.437.192-.816.485-1.136.88l-1.456-1.12c.437-.587 1.024-1.04 1.76-1.36.747-.331 1.579-.496 2.496-.496.811 0 1.515.133 2.112.4.608.256 1.072.624 1.392 1.104.331.48.496 1.051.496 1.712 0 .363-.048.725-.144 1.088-.096.352-.277.725-.544 1.12s-.656.837-1.168 1.328l-3.824 3.632-.432-.784h6.544v1.76zm14.305.16c-1.014 0-1.883-.213-2.608-.64-.726-.437-1.28-1.067-1.664-1.888s-.576-1.835-.576-3.04c0-1.28.229-2.363.688-3.248.469-.885 1.114-1.557 1.936-2.016.832-.459 1.786-.688 2.864-.688.565 0 1.104.059 1.616.176.522.117.965.299 1.328.544l-.768 1.568c-.31-.203-.646-.341-1.008-.416-.352-.085-.726-.128-1.12-.128-1.056 0-1.894.325-2.512.976-.619.651-.928 1.611-.928 2.88 0 .203.005.443.016.72.01.267.048.539.112.816l-.64-.704c.192-.437.453-.8.784-1.088.341-.299.741-.523 1.2-.672.469-.149.976-.224 1.52-.224.736 0 1.392.144 1.968.432.576.277 1.034.677 1.376 1.2.341.512.512 1.115.512 1.808 0 .736-.182 1.376-.544 1.92-.363.544-.854.965-1.472 1.264-.619.299-1.312.448-2.08.448zm-.112-1.632c.426 0 .805-.075 1.136-.224.33-.16.586-.384.768-.672.192-.288.288-.624.288-1.008 0-.587-.203-1.051-.608-1.392-.406-.341-.95-.512-1.632-.512-.448 0-.843.085-1.184.256-.331.16-.598.384-.8.672-.192.288-.288.619-.288.992 0 .341.09.656.272.944.181.288.442.517.784.688.352.171.773.256 1.264.256z" fill="#fff" fill-opacity=".85"/><path d="m410 347c1.657 0 3-1.343 3-3s-1.343-3-3-3-3 1.343-3 3 1.343 3 3 3z" fill="#d7dbdd"/></g><path d="m448.875 147.12c-.648 0-1.276-.092-1.884-.276-.6-.184-1.076-.428-1.428-.732l.54-1.212c.344.272.764.496 1.26.672.504.168 1.008.252 1.512.252.624 0 1.088-.1 1.392-.3.312-.2.468-.464.468-.792 0-.24-.088-.436-.264-.588-.168-.16-.384-.284-.648-.372s-.624-.188-1.08-.3c-.64-.152-1.16-.304-1.56-.456-.392-.152-.732-.388-1.02-.708-.28-.328-.42-.768-.42-1.32 0-.464.124-.884.372-1.26.256-.384.636-.688 1.14-.912.512-.224 1.136-.336 1.872-.336.512 0 1.016.064 1.512.192s.924.312 1.284.552l-.492 1.212c-.368-.216-.752-.38-1.152-.492s-.788-.168-1.164-.168c-.616 0-1.076.104-1.38.312-.296.208-.444.484-.444.828 0 .24.084.436.252.588.176.152.396.272.66.36s.624.188 1.08.3c.624.144 1.136.296 1.536.456.4.152.74.388 1.02.708.288.32.432.752.432 1.296 0 .464-.128.884-.384 1.26-.248.376-.628.676-1.14.9s-1.136.336-1.872.336zm11.002-6.528v6.408h-1.428v-.816c-.24.288-.54.512-.9.672-.36.152-.748.228-1.164.228-.856 0-1.532-.236-2.028-.708-.488-.48-.732-1.188-.732-2.124v-3.66h1.5v3.456c0 .576.128 1.008.384 1.296.264.28.636.42 1.116.42.536 0 .96-.164 1.272-.492.32-.336.48-.816.48-1.44v-3.24z" fill="#fff" fill-opacity=".75"/><g clip-path="url(#A)"><path d="m453.536 193.16c-1.013 0-1.882-.213-2.608-.64-.725-.437-1.28-1.067-1.664-1.888s-.576-1.835-.576-3.04c0-1.28.23-2.363.688-3.248.47-.885 1.115-1.557 1.936-2.016.832-.459 1.787-.688 2.864-.688.566 0 1.104.059 1.616.176.523.117.966.299 1.328.544l-.768 1.568c-.309-.203-.645-.341-1.008-.416-.352-.085-.725-.128-1.12-.128-1.056 0-1.893.325-2.512.976-.618.651-.928 1.611-.928 2.88 0 .203.006.443.016.72.011.267.048.539.112.816l-.64-.704c.192-.437.454-.8.784-1.088.342-.299.742-.523 1.2-.672.47-.149.976-.224 1.52-.224.736 0 1.392.144 1.968.432.576.277 1.035.677 1.376 1.2.342.512.512 1.115.512 1.808 0 .736-.181 1.376-.544 1.92-.362.544-.853.965-1.472 1.264-.618.299-1.312.448-2.08.448zm-.112-1.632c.427 0 .806-.075 1.136-.224.331-.16.587-.384.768-.672.192-.288.288-.624.288-1.008 0-.587-.202-1.051-.608-1.392-.405-.341-.949-.512-1.632-.512-.448 0-.842.085-1.184.256-.33.16-.597.384-.8.672-.192.288-.288.619-.288.992 0 .341.091.656.272.944.182.288.443.517.784.688.352.171.774.256 1.264.256z" fill="#fff" fill-opacity=".85"/><path d="m467 176c1.657 0 3-1.343 3-3s-1.343-3-3-3-3 1.343-3 3 1.343 3 3 3z" fill="#d7dbdd"/></g><g clip-path="url(#B)"><path d="m447.793 250v-10.4l.912.944h-3.28v-1.744h4.448v11.2zm7.822.16c-.79 0-1.563-.112-2.32-.336-.747-.235-1.376-.555-1.888-.96l.896-1.616c.405.331.896.597 1.472.8s1.178.304 1.808.304c.746 0 1.328-.149 1.744-.448.416-.309.624-.725.624-1.248 0-.512-.192-.917-.576-1.216s-1.003-.448-1.856-.448h-1.024v-1.424l3.2-3.808.272.784h-6.016v-1.744h7.632v1.392l-3.2 3.808-1.088-.64h.624c1.376 0 2.405.309 3.088.928.693.608 1.04 1.392 1.04 2.352 0 .629-.16 1.211-.48 1.744s-.811.965-1.472 1.296c-.651.32-1.478.48-2.48.48z" fill="#fff" fill-opacity=".85"/></g><g clip-path="url(#C)"><rect fill="#d7dbdd" height="40" rx="4" width="40" x="433" y="281"/><g fill="#242729"><path d="m443.38 307v-1.68l4.32-4.08c.341-.309.592-.587.752-.832s.266-.469.32-.672c.064-.203.096-.389.096-.56 0-.448-.155-.789-.464-1.024-.299-.245-.742-.368-1.328-.368-.47 0-.907.091-1.312.272-.395.181-.731.464-1.008.848l-1.888-1.216c.426-.64 1.024-1.147 1.792-1.52s1.653-.56 2.656-.56c.832 0 1.557.139 2.176.416.629.267 1.114.645 1.456 1.136.352.491.528 1.077.528 1.76 0 .363-.048.725-.144 1.088-.086.352-.267.725-.544 1.12-.267.395-.662.837-1.184 1.328l-3.584 3.376-.496-.944h6.32v2.112zm14.333.192c-.917 0-1.739-.224-2.464-.672-.725-.459-1.296-1.12-1.712-1.984s-.624-1.909-.624-3.136.208-2.272.624-3.136.987-1.52 1.712-1.968c.725-.459 1.547-.688 2.464-.688.928 0 1.749.229 2.464.688.725.448 1.296 1.104 1.712 1.968s.624 1.909.624 3.136-.208 2.272-.624 3.136-.987 1.525-1.712 1.984c-.715.448-1.536.672-2.464.672zm0-2.192c.437 0 .816-.123 1.136-.368.331-.245.587-.635.768-1.168.192-.533.288-1.221.288-2.064s-.096-1.531-.288-2.064c-.181-.533-.437-.923-.768-1.168-.32-.245-.699-.368-1.136-.368-.427 0-.805.123-1.136.368-.32.245-.576.635-.768 1.168-.181.533-.272 1.221-.272 2.064s.091 1.531.272 2.064c.192.533.448.923.768 1.168.331.245.709.368 1.136.368z"/><path d="m467 290c1.657 0 3-1.343 3-3s-1.343-3-3-3-3 1.343-3 3 1.343 3 3 3z"/></g></g><g clip-path="url(#D)"><path d="m444.037 364v-1.392l4.448-4.224c.373-.352.65-.661.832-.928.181-.267.298-.512.352-.736.064-.235.096-.453.096-.656 0-.512-.176-.907-.528-1.184-.352-.288-.87-.432-1.552-.432-.544 0-1.04.096-1.488.288-.438.192-.816.485-1.136.88l-1.456-1.12c.437-.587 1.024-1.04 1.76-1.36.746-.331 1.578-.496 2.496-.496.81 0 1.514.133 2.112.4.608.256 1.072.624 1.392 1.104.33.48.496 1.051.496 1.712 0 .363-.048.725-.144 1.088-.096.352-.278.725-.544 1.12-.267.395-.656.837-1.168 1.328l-3.824 3.632-.432-.784h6.544v1.76zm11.328 0 4.624-10.368.544.928h-6.352l.992-1.008v2.912h-1.936v-3.664h8.704v1.392l-4.352 9.808z" fill="#fff" fill-opacity=".85"/></g><path d="m75 66h414v54h-414z" fill="#242729"/><path d="m234.844 94.2v9.8h-1.862l-4.886-5.95v5.95h-2.24v-9.8h1.876l4.872 5.95v-5.95zm5.749 9.912c-.793 0-1.507-.163-2.142-.49-.625-.336-1.115-.798-1.47-1.386s-.532-1.255-.532-2.002c0-.7467.177-1.414.532-2.002s.845-1.0453 1.47-1.372c.635-.336 1.349-.504 2.142-.504s1.503.168 2.128.504c.625.3267 1.115.784 1.47 1.372s.532 1.2553.532 2.002c0 .747-.177 1.414-.532 2.002s-.845 1.05-1.47 1.386c-.625.327-1.335.49-2.128.49zm0-1.792c.56 0 1.017-.187 1.372-.56.364-.383.546-.891.546-1.526 0-.6347-.182-1.1387-.546-1.512-.355-.3827-.812-.574-1.372-.574s-1.022.1913-1.386.574c-.364.3733-.546.8773-.546 1.512 0 .635.182 1.143.546 1.526.364.373.826.56 1.386.56zm12.861-5.852-3.178 7.532h-2.254l-3.164-7.532h2.254l2.086 5.124 2.156-5.124zm8.064 3.794c0 .028-.014.224-.042.588h-5.698c.103.467.345.835.728 1.106s.859.406 1.428.406c.392 0 .737-.056 1.036-.168.308-.121.593-.308.854-.56l1.162 1.26c-.709.812-1.745 1.218-3.108 1.218-.849 0-1.601-.163-2.254-.49-.653-.336-1.157-.798-1.512-1.386s-.532-1.255-.532-2.002c0-.7373.173-1.4.518-1.988.355-.5973.835-1.0593 1.442-1.386.616-.336 1.302-.504 2.058-.504.737 0 1.405.1587 2.002.476s1.064.7747 1.4 1.372c.345.588.518 1.274.518 2.058zm-3.906-2.254c-.495 0-.91.14-1.246.42s-.541.6627-.616 1.148h3.71c-.075-.476-.28-.854-.616-1.134-.336-.2893-.747-.434-1.232-.434zm15.006-1.652c.943 0 1.689.28 2.24.84.56.5507.84 1.3813.84 2.492v4.312h-2.184v-3.976c0-.5973-.126-1.0407-.378-1.33-.243-.2987-.593-.448-1.05-.448-.513 0-.919.168-1.218.504-.299.3267-.448.8167-.448 1.47v3.78h-2.184v-3.976c0-1.1853-.476-1.778-1.428-1.778-.504 0-.905.168-1.204.504-.299.3267-.448.8167-.448 1.47v3.78h-2.184v-7.532h2.086v.868c.28-.3173.621-.56 1.022-.728.411-.168.859-.252 1.344-.252.532 0 1.013.1073 1.442.322.429.2053.775.5087 1.036.91.308-.392.695-.6953 1.162-.91.476-.2147.994-.322 1.554-.322zm9.489 0c.7 0 1.335.1633 1.904.49.579.3173 1.032.77 1.358 1.358.327.5787.49 1.2553.49 2.03 0 .775-.163 1.456-.49 2.044-.326.579-.779 1.031-1.358 1.358-.569.317-1.204.476-1.904.476-1.036 0-1.824-.327-2.366-.98v.868h-2.086v-10.388h2.184v3.654c.551-.6067 1.307-.91 2.268-.91zm-.378 5.964c.56 0 1.018-.187 1.372-.56.364-.383.546-.891.546-1.526 0-.6347-.182-1.1387-.546-1.512-.354-.3827-.812-.574-1.372-.574s-1.022.1913-1.386.574c-.354.3733-.532.8773-.532 1.512 0 .635.178 1.143.532 1.526.364.373.826.56 1.386.56zm12.97-2.058c0 .028-.014.224-.042.588h-5.698c.103.467.346.835.728 1.106.383.271.859.406 1.428.406.392 0 .738-.056 1.036-.168.308-.121.593-.308.854-.56l1.162 1.26c-.709.812-1.745 1.218-3.108 1.218-.849 0-1.6-.163-2.254-.49-.653-.336-1.157-.798-1.512-1.386-.354-.588-.532-1.255-.532-2.002 0-.7373.173-1.4.518-1.988.355-.5973.836-1.0593 1.442-1.386.616-.336 1.302-.504 2.058-.504.738 0 1.405.1587 2.002.476.598.3173 1.064.7747 1.4 1.372.346.588.518 1.274.518 2.058zm-3.906-2.254c-.494 0-.91.14-1.246.42s-.541.6627-.616 1.148h3.71c-.074-.476-.28-.854-.616-1.134-.336-.2893-.746-.434-1.232-.434zm7.447-.546c.261-.364.611-.6393 1.05-.826.448-.1867.961-.28 1.54-.28v2.016c-.243-.0187-.406-.028-.49-.028-.626 0-1.116.1773-1.47.532-.355.3453-.532.868-.532 1.568v3.556h-2.184v-7.532h2.086zm14.768 4.69v1.848h-7.406v-1.47l3.78-3.57c.401-.3827.672-.7093.812-.98.14-.28.21-.5553.21-.826 0-.392-.136-.6907-.406-.896-.262-.2147-.649-.322-1.162-.322-.43 0-.817.084-1.162.252-.346.1587-.635.4013-.868.728l-1.652-1.064c.382-.5693.91-1.0127 1.582-1.33.672-.3267 1.442-.49 2.31-.49.728 0 1.362.1213 1.904.364.55.2333.975.5693 1.274 1.008.308.4293.462.938.462 1.526 0 .532-.112 1.0313-.336 1.498s-.658.9987-1.302 1.596l-2.254 2.128zm5.108 2.016c-.812 0-1.535-.201-2.17-.602s-1.134-.98-1.498-1.736c-.355-.765-.532-1.675-.532-2.73 0-1.0547.177-1.96.532-2.716.364-.7653.863-1.3487 1.498-1.75s1.358-.602 2.17-.602 1.535.2007 2.17.602 1.129.9847 1.484 1.75c.364.756.546 1.6613.546 2.716 0 1.055-.182 1.965-.546 2.73-.355.756-.849 1.335-1.484 1.736s-1.358.602-2.17.602zm0-1.918c.597 0 1.064-.257 1.4-.77.345-.513.518-1.307.518-2.38 0-1.0733-.173-1.8667-.518-2.38-.336-.5133-.803-.77-1.4-.77-.588 0-1.055.2567-1.4.77-.336.5133-.504 1.3067-.504 2.38 0 1.073.168 1.867.504 2.38.345.513.812.77 1.4.77zm12.542-.098v1.848h-7.406v-1.47l3.78-3.57c.401-.3827.672-.7093.812-.98.14-.28.21-.5553.21-.826 0-.392-.135-.6907-.406-.896-.261-.2147-.649-.322-1.162-.322-.429 0-.817.084-1.162.252-.345.1587-.635.4013-.868.728l-1.652-1.064c.383-.5693.91-1.0127 1.582-1.33.672-.3267 1.442-.49 2.31-.49.728 0 1.363.1213 1.904.364.551.2333.975.5693 1.274 1.008.308.4293.462.938.462 1.526 0 .532-.112 1.0313-.336 1.498s-.658.9987-1.302 1.596l-2.254 2.128zm8.258 0v1.848h-7.406v-1.47l3.78-3.57c.401-.3827.672-.7093.812-.98.14-.28.21-.5553.21-.826 0-.392-.135-.6907-.406-.896-.261-.2147-.649-.322-1.162-.322-.429 0-.817.084-1.162.252-.345.1587-.635.4013-.868.728l-1.652-1.064c.383-.5693.91-1.0127 1.582-1.33.672-.3267 1.442-.49 2.31-.49.728 0 1.363.1213 1.904.364.551.2333.975.5693 1.274 1.008.308.4293.462.938.462 1.526 0 .532-.112 1.0313-.336 1.498s-.658.9987-1.302 1.596l-2.254 2.128z" fill="#fff"/><path clip-rule="evenodd" d="m469 100-4.9-7h-2.27l4.17 6h-12l-1 2h13l-4.2 6h2.3z" fill="#eee" fill-rule="evenodd"/><path clip-rule="evenodd" d="m95 100 4.9-7h2.27l-4.17 6h13l-1 2h-12l4.2 6h-2.3z" fill="#fff" fill-opacity=".85" fill-rule="evenodd"/><rect fill="#ebebf5" fill-opacity=".3" height="5" rx="2.5" width="36" x="264" y="74"/><path d="m489 119.5h-414v1h414z" fill="#fff" fill-opacity=".1" mask="url(#E)"/></svg>