<svg fill="none" height="670" viewBox="0 0 848 670" width="848" xmlns="http://www.w3.org/2000/svg" xmlns:xlink="http://www.w3.org/1999/xlink"><filter id="a" color-interpolation-filters="sRGB" filterUnits="userSpaceOnUse" height="670" width="848" x="0" y="0"><feFlood flood-opacity="0" result="BackgroundImageFix"/><feColorMatrix in="SourceAlpha" result="hardAlpha" type="matrix" values="0 0 0 0 0 0 0 0 0 0 0 0 0 0 0 0 0 0 127 0"/><feOffset dy="4"/><feGaussianBlur stdDeviation="12"/><feColorMatrix type="matrix" values="0 0 0 0 0 0 0 0 0 0 0 0 0 0 0 0 0 0 0.4 0"/><feBlend in2="BackgroundImageFix" mode="normal" result="effect1_dropShadow_19_48"/><feBlend in="SourceGraphic" in2="effect1_dropShadow_19_48" mode="normal" result="shape"/></filter><g filter="url(#a)"><rect fill="#303756" height="622" rx="12" width="800" x="24" y="20"/><g fill="#fff"><path d="m113.92 119-.036-15.12-7.416 12.456h-2.628l-7.38-12.132v14.796h-5.472v-25.2h4.824l9.432 15.66 9.288-15.66h4.788l.072 25.2zm20.271.288c-2.04 0-3.876-.42-5.508-1.26-1.608-.864-2.868-2.052-3.78-3.564s-1.368-3.228-1.368-5.148.456-3.636 1.368-5.148 2.172-2.688 3.78-3.528c1.632-.864 3.468-1.296 5.508-1.296s3.864.432 5.472 1.296c1.608.84 2.868 2.016 3.78 3.528s1.368 3.228 1.368 5.148-.456 3.636-1.368 5.148-2.172 2.7-3.78 3.564c-1.608.84-3.432 1.26-5.472 1.26zm0-4.608c1.44 0 2.616-.48 3.528-1.44.936-.984 1.404-2.292 1.404-3.924s-.468-2.928-1.404-3.888c-.912-.984-2.088-1.476-3.528-1.476s-2.628.492-3.564 1.476c-.936.96-1.404 2.256-1.404 3.888s.468 2.94 1.404 3.924c.936.96 2.124 1.44 3.564 1.44zm26.866 3.384c-.552.408-1.236.72-2.052.936-.792.192-1.632.288-2.52.288-2.304 0-4.092-.588-5.364-1.764-1.248-1.176-1.872-2.904-1.872-5.184v-7.956h-2.988v-4.32h2.988v-4.716h5.616v4.716h4.824v4.32h-4.824v7.884c0 .816.204 1.452.612 1.908.432.432 1.032.648 1.8.648.888 0 1.644-.24 2.268-.72zm3.152-18.432h5.616v19.368h-5.616zm2.808-2.7c-1.032 0-1.872-.3-2.52-.9s-.972-1.344-.972-2.232.324-1.632.972-2.232 1.488-.9 2.52-.9 1.872.288 2.52.864.972 1.296.972 2.16c0 .936-.324 1.716-.972 2.34-.648.6-1.488.9-2.52.9zm17.236 22.356c-2.04 0-3.876-.42-5.508-1.26-1.608-.864-2.868-2.052-3.78-3.564s-1.368-3.228-1.368-5.148.456-3.636 1.368-5.148 2.172-2.688 3.78-3.528c1.632-.864 3.468-1.296 5.508-1.296s3.864.432 5.472 1.296c1.608.84 2.868 2.016 3.78 3.528s1.368 3.228 1.368 5.148-.456 3.636-1.368 5.148-2.172 2.7-3.78 3.564c-1.608.84-3.432 1.26-5.472 1.26zm0-4.608c1.44 0 2.616-.48 3.528-1.44.936-.984 1.404-2.292 1.404-3.924s-.468-2.928-1.404-3.888c-.912-.984-2.088-1.476-3.528-1.476s-2.628.492-3.564 1.476c-.936.96-1.404 2.256-1.404 3.888s.468 2.94 1.404 3.924c.936.96 2.124 1.44 3.564 1.44zm26.146-15.336c2.4 0 4.332.72 5.796 2.16 1.488 1.44 2.232 3.576 2.232 6.408v11.088h-5.616v-10.224c0-1.536-.336-2.676-1.008-3.42-.672-.768-1.644-1.152-2.916-1.152-1.416 0-2.544.444-3.384 1.332-.84.864-1.26 2.16-1.26 3.888v9.576h-5.616v-19.368h5.364v2.268c.744-.816 1.668-1.44 2.772-1.872 1.104-.456 2.316-.684 3.636-.684z"/><g fill-opacity=".75"><path d="m90.988 242.084c-1.032 0-1.852-.26-2.46-.78l.348-.792c.32.248.652.432.996.552.352.112.736.168 1.152.168.432 0 .76-.072.984-.216.232-.152.348-.368.348-.648 0-.224-.08-.4-.24-.528-.152-.136-.408-.248-.768-.336l-1.008-.24c-.52-.112-.92-.312-1.2-.6-.272-.288-.408-.636-.408-1.044 0-.352.096-.664.288-.936.2-.272.476-.484.828-.636.352-.16.768-.24 1.248-.24.424 0 .824.068 1.2.204.384.136.708.332.972.588l-.348.78c-.288-.24-.584-.416-.888-.528-.304-.12-.62-.18-.948-.18-.408 0-.728.08-.96.24-.224.16-.336.376-.336.648 0 .232.072.416.216.552s.372.244.684.324l1.02.252c.576.12 1 .32 1.272.6.272.272.408.624.408 1.056 0 .528-.216.952-.648 1.272-.432.312-1.016.468-1.752.468zm3.8888-.084v-8.832h1.092v4.02l-.168.084c.176-.472.456-.832.84-1.08.392-.256.84-.384 1.344-.384 1.448 0 2.1722.804 2.1722 2.412v3.78h-1.0922v-3.72c0-.544-.108-.94-.324-1.188-.208-.256-.544-.384-1.008-.384-.536 0-.964.168-1.284.504-.32.328-.48.772-.48 1.332v3.456zm9.6102.084c-.584 0-1.096-.128-1.536-.384-.432-.256-.768-.616-1.008-1.08-.24-.472-.36-1.028-.36-1.668 0-.632.12-1.184.36-1.656.24-.48.576-.848 1.008-1.104.44-.256.952-.384 1.536-.384.592 0 1.104.128 1.536.384s.768.624 1.008 1.104c.24.472.36 1.024.36 1.656 0 .64-.12 1.196-.36 1.668-.24.464-.576.824-1.008 1.08s-.944.384-1.536.384zm0-.888c.576 0 1.02-.188 1.332-.564.312-.384.468-.944.468-1.68 0-.728-.16-1.284-.48-1.668-.312-.384-.752-.576-1.32-.576-.56 0-1 .192-1.32.576s-.48.94-.48 1.668c0 .736.156 1.296.468 1.68.312.376.756.564 1.332.564zm4.382.804v-4.344c0-.28-.008-.56-.024-.84-.008-.288-.032-.572-.072-.852h1.032l.132 1.5-.132-.048c.104-.528.34-.924.708-1.188.376-.272.796-.408 1.26-.408.112 0 .212.008.3.024.096.008.184.024.264.048l-.012.996c-.2-.072-.424-.108-.672-.108-.408 0-.736.088-.984.264s-.428.4-.54.672-.168.564-.168.876v3.408zm4.094-5.196v-.84h3.96v.84zm3.936 4.248v.912c-.136.04-.276.068-.42.084-.136.024-.284.036-.444.036-.592 0-1.06-.168-1.404-.504-.336-.336-.504-.832-.504-1.488v-5.664l1.092-.384v5.928c0 .312.044.556.132.732.096.168.22.288.372.36.16.064.34.096.54.096.112 0 .216-.008.312-.024s.204-.044.324-.084z"/><path d="m90.91 375.07c-.5067 0-.9433-.107-1.31-.32-.36-.213-.64-.513-.84-.9s-.3-.843-.3-1.37c0-.52.1-.98.3-1.38.2067-.4.4967-.71.87-.93s.8133-.33 1.32-.33c.3467 0 .68.06 1 .18.32.113.5833.273.79.48l-.29.66c-.24-.187-.48-.327-.72-.42-.2333-.1-.4767-.15-.73-.15-.4867 0-.8767.163-1.17.49-.2867.327-.43.793-.43 1.4 0 .593.1433 1.05.43 1.37s.68.48 1.18.48c.24 0 .48-.047.72-.14s.48-.237.72-.43l.29.66c-.2133.2-.4833.36-.81.48-.3267.113-.6667.17-1.02.17zm4.6107 0c-.6067 0-1.0633-.167-1.37-.5-.3-.34-.45-.84-.45-1.5v-3.1h.91v3.09c0 .433.0867.753.26.96.18.2.4533.3.82.3.4267 0 .77-.137 1.03-.41.26-.28.39-.65.39-1.11v-2.83h.92v5.03h-.89v-1.08l.12-.05c-.1333.393-.3567.693-.67.9-.3133.2-.67.3-1.07.3zm4.0206-.07v-7.36h.9097v3.6l-.12-.12c.114-.4.33-.713.65-.94s.704-.34 1.15-.34c.447 0 .837.107 1.17.32.334.213.594.517.78.91.194.387.29.843.29 1.37s-.096.99-.29 1.39c-.186.393-.45.7-.79.92-.333.213-.72.32-1.16.32-.446 0-.83-.11-1.15-.33-.32-.227-.536-.543-.65-.95l.11-.12v1.33zm2.3997-.67c.474 0 .84-.163 1.1-.49.26-.333.39-.8.39-1.4 0-.587-.13-1.04-.39-1.36-.26-.327-.626-.49-1.1-.49-.48 0-.85.163-1.11.49s-.39.787-.39 1.38c0 .6.13 1.063.39 1.39.26.32.63.48 1.11.48zm3.635.67v-5.03h.91v5.03zm-.08-7.2h1.07v.99h-1.07zm4.662 7.27c-.507 0-.943-.107-1.31-.32-.36-.213-.64-.513-.84-.9s-.3-.843-.3-1.37c0-.52.1-.98.3-1.38.207-.4.497-.71.87-.93s.813-.33 1.32-.33c.347 0 .68.06 1 .18.32.113.583.273.79.48l-.29.66c-.24-.187-.48-.327-.72-.42-.233-.1-.477-.15-.73-.15-.487 0-.877.163-1.17.49-.287.327-.43.793-.43 1.4 0 .593.143 1.05.43 1.37s.68.48 1.18.48c.24 0 .48-.047.72-.14s.48-.237.72-.43l.29.66c-.213.2-.483.36-.81.48-.327.113-.667.17-1.02.17zm2.781-2.39v-.74h2.87v.74zm4.346 2.32v-7.36h.91v3.6l-.12-.12c.114-.4.33-.713.65-.94s.704-.34 1.15-.34c.447 0 .837.107 1.17.32.334.213.594.517.78.91.194.387.29.843.29 1.37s-.096.99-.29 1.39c-.186.393-.45.7-.79.92-.333.213-.72.32-1.16.32-.446 0-.83-.11-1.15-.33-.32-.227-.536-.543-.65-.95l.11-.12v1.33zm2.4-.67c.474 0 .84-.163 1.1-.49.26-.333.39-.8.39-1.4 0-.587-.13-1.04-.39-1.36-.26-.327-.626-.49-1.1-.49-.48 0-.85.163-1.11.49s-.39.787-.39 1.38c0 .6.13 1.063.39 1.39.26.32.63.48 1.11.48zm7.796.08c-.22.207-.504.37-.85.49-.347.113-.7.17-1.06.17-.527 0-.98-.103-1.36-.31s-.674-.503-.88-.89c-.207-.393-.31-.86-.31-1.4 0-.52.1-.977.3-1.37.206-.393.49-.7.85-.92.36-.227.773-.34 1.24-.34.453 0 .84.1 1.16.3.326.2.573.487.74.86.173.367.26.807.26 1.32v.16h-3.75v-.56h3.23l-.28.36c.013-.567-.097-1-.33-1.3-.234-.3-.574-.45-1.02-.45-.467 0-.834.167-1.1.5-.26.327-.39.787-.39 1.38 0 .64.14 1.123.42 1.45.28.32.693.48 1.24.48.293 0 .573-.047.84-.14.266-.1.52-.247.76-.44zm.98.59v-.63l3.35-4.03.13.33h-3.38v-.7h4.07v.64l-3.35 4.02-.1-.34h3.56v.71zm5.455 0v-5.03h.91v5.03zm-.08-7.2h1.07v.99h-1.07zm6.672 6.61c-.22.207-.503.37-.85.49-.347.113-.7.17-1.06.17-.527 0-.98-.103-1.36-.31s-.673-.503-.88-.89c-.207-.393-.31-.86-.31-1.4 0-.52.1-.977.3-1.37.207-.393.49-.7.85-.92.36-.227.773-.34 1.24-.34.453 0 .84.1 1.16.3.327.2.573.487.74.86.173.367.26.807.26 1.32v.16h-3.75v-.56h3.23l-.28.36c.013-.567-.097-1-.33-1.3s-.573-.45-1.02-.45c-.467 0-.833.167-1.1.5-.26.327-.39.787-.39 1.38 0 .64.14 1.123.42 1.45.28.32.693.48 1.24.48.293 0 .573-.047.84-.14.267-.1.52-.247.76-.44zm1.289.59v-3.62c0-.233-.007-.467-.02-.7-.007-.24-.027-.477-.06-.71h.86l.11 1.25-.11-.04c.087-.44.283-.77.59-.99.313-.227.663-.34 1.05-.34.093 0 .177.007.25.02.08.007.153.02.22.04l-.01.83c-.167-.06-.353-.09-.56-.09-.34 0-.613.073-.82.22s-.357.333-.45.56-.14.47-.14.73v2.84zm5.132 1.82c-.28-.52-.507-1.027-.68-1.52-.167-.493-.29-.983-.37-1.47-.074-.487-.11-.983-.11-1.49s.04-1.003.12-1.49c.08-.493.203-.983.37-1.47.166-.493.39-.993.67-1.5h.75c-.247.593-.444 1.143-.59 1.65-.14.507-.24.99-.3 1.45-.054.46-.08.913-.08 1.36 0 .453.026.91.08 1.37.06.46.16.943.3 1.45.146.513.34 1.067.58 1.66zm4.061-1.74c-.82 0-1.443-.307-1.87-.92-.426-.62-.64-1.527-.64-2.72s.21-2.097.63-2.71c.427-.62 1.054-.93 1.88-.93.827 0 1.45.31 1.87.93.427.613.64 1.513.64 2.7 0 1.193-.213 2.1-.64 2.72-.426.62-1.05.93-1.87.93zm0-.76c.54 0 .937-.233 1.19-.7.26-.467.39-1.197.39-2.19s-.13-1.717-.39-2.17c-.253-.46-.65-.69-1.19-.69s-.94.23-1.2.69c-.253.46-.38 1.183-.38 2.17 0 .993.127 1.723.38 2.19.26.467.66.7 1.2.7zm3.616-.43h1.11v1.11h-1.11zm2.534 1.11v-.7l2.48-2.72c.32-.36.553-.683.7-.97.153-.293.23-.587.23-.88 0-.373-.11-.66-.33-.86-.22-.207-.53-.31-.93-.31-.34 0-.677.07-1.01.21-.333.133-.663.333-.99.6l-.34-.7c.28-.267.633-.477 1.06-.63.433-.16.867-.24 1.3-.24.447 0 .83.077 1.15.23.32.147.57.363.75.65.18.28.27.613.27 1 0 .407-.093.797-.28 1.17-.18.373-.48.793-.9 1.26l-2.35 2.53-.08-.41h3.9v.77zm8.006-.42v-6.11l.51.21-1.97 1.24v-.87l1.86-1.17h.53v6.7zm-1.57.42v-.77h4.07v.77zm7.846.07c-.44 0-.873-.077-1.3-.23-.42-.153-.773-.367-1.06-.64l.34-.7c.327.267.657.47.99.61.333.133.677.2 1.03.2.487 0 .867-.133 1.14-.4.273-.273.41-.647.41-1.12 0-.3-.063-.563-.19-.79-.12-.227-.293-.403-.52-.53-.22-.133-.48-.2-.78-.2-.327 0-.623.067-.89.2-.267.127-.5.32-.7.58h-.62v-4.17h4.31v.75h-3.39v2.76l-.29-.03c.193-.273.44-.483.74-.63s.637-.22 1.01-.22c.453 0 .847.097 1.18.29.333.187.59.45.77.79s.27.733.27 1.18c0 .453-.1.853-.3 1.2s-.483.617-.85.81-.8.29-1.3.29zm3.986 1.12-.41-.31c.187-.2.313-.383.38-.55s.1-.34.1-.52l.26.19h-.79v-1.11h1.11v.77c0 .287-.047.553-.14.8s-.263.49-.51.73zm6.91-1.11c-.82 0-1.443-.307-1.87-.92-.426-.62-.64-1.527-.64-2.72s.21-2.097.63-2.71c.427-.62 1.054-.93 1.88-.93.827 0 1.45.31 1.87.93.427.613.64 1.513.64 2.7 0 1.193-.213 2.1-.64 2.72-.426.62-1.05.93-1.87.93zm0-.76c.54 0 .937-.233 1.19-.7.26-.467.39-1.197.39-2.19s-.13-1.717-.39-2.17c-.253-.46-.65-.69-1.19-.69s-.94.23-1.2.69c-.253.46-.38 1.183-.38 2.17 0 .993.127 1.723.38 2.19.26.467.66.7 1.2.7zm3.616-.43h1.11v1.11h-1.11zm4.964 1.19c-.867 0-1.537-.297-2.01-.89-.473-.6-.71-1.46-.71-2.58 0-.807.11-1.493.33-2.06s.537-1 .95-1.3c.42-.3.92-.45 1.5-.45.413 0 .813.073 1.2.22.393.147.74.363 1.04.65l-.33.7c-.333-.287-.657-.493-.97-.62-.307-.127-.61-.19-.91-.19-.6 0-1.063.263-1.39.79s-.49 1.277-.49 2.25v.78l-.13-.26c.053-.327.173-.61.36-.85.193-.247.43-.433.71-.56.287-.133.603-.2.95-.2.44 0 .823.097 1.15.29.333.187.593.45.78.79s.28.733.28 1.18-.1.847-.3 1.2c-.193.347-.463.62-.81.82-.347.193-.747.29-1.2.29zm-.04-.76c.433 0 .783-.14 1.05-.42s.4-.65.4-1.11c0-.453-.133-.82-.4-1.1s-.62-.42-1.06-.42c-.293 0-.557.067-.79.2-.227.133-.403.313-.53.54s-.19.487-.19.78c0 .307.063.573.19.8s.303.407.53.54c.233.127.5.19.8.19zm5.616.26v-6.11l.51.21-1.97 1.24v-.87l1.86-1.17h.53v6.7zm-1.57.42v-.77h4.07v.77zm5.836 1.19-.41-.31c.187-.2.313-.383.38-.55s.1-.34.1-.52l.26.19h-.79v-1.11h1.11v.77c0 .287-.047.553-.14.8s-.263.49-.51.73zm6.91-1.11c-.82 0-1.443-.307-1.87-.92-.426-.62-.64-1.527-.64-2.72s.21-2.097.63-2.71c.427-.62 1.054-.93 1.88-.93.827 0 1.45.31 1.87.93.427.613.64 1.513.64 2.7 0 1.193-.213 2.1-.64 2.72-.426.62-1.05.93-1.87.93zm0-.76c.54 0 .937-.233 1.19-.7.26-.467.39-1.197.39-2.19s-.13-1.717-.39-2.17c-.253-.46-.65-.69-1.19-.69s-.94.23-1.2.69c-.253.46-.38 1.183-.38 2.17 0 .993.127 1.723.38 2.19.26.467.66.7 1.2.7zm3.616-.43h1.11v1.11h-1.11zm4.654 1.18c-.467 0-.913-.073-1.34-.22-.427-.153-.787-.37-1.08-.65l.35-.7c.313.267.64.47.98.61.34.133.693.2 1.06.2.493 0 .867-.107 1.12-.32.253-.22.38-.543.38-.97 0-.42-.13-.733-.39-.94s-.657-.31-1.19-.31h-.85v-.77h.69c.513 0 .903-.11 1.17-.33s.4-.537.4-.95c0-.373-.113-.66-.34-.86-.22-.2-.533-.3-.94-.3-.347 0-.687.07-1.02.21-.327.133-.65.333-.97.6l-.34-.7c.287-.273.64-.487 1.06-.64.427-.153.863-.23 1.31-.23.44 0 .82.077 1.14.23.327.147.577.36.75.64.18.273.27.597.27.97 0 .44-.117.813-.35 1.12-.227.307-.54.517-.94.63l-.02-.1c.473.1.837.303 1.09.61s.38.697.38 1.17c0 .62-.217 1.11-.65 1.47-.427.353-1.003.53-1.73.53zm6.166 0c-.44 0-.873-.077-1.3-.23-.42-.153-.773-.367-1.06-.64l.34-.7c.327.267.657.47.99.61.333.133.677.2 1.03.2.487 0 .867-.133 1.14-.4.273-.273.41-.647.41-1.12 0-.3-.063-.563-.19-.79-.12-.227-.293-.403-.52-.53-.22-.133-.48-.2-.78-.2-.327 0-.623.067-.89.2-.267.127-.5.32-.7.58h-.62v-4.17h4.31v.75h-3.39v2.76l-.29-.03c.193-.273.44-.483.74-.63s.637-.22 1.01-.22c.453 0 .847.097 1.18.29.333.187.59.45.77.79s.27.733.27 1.18c0 .453-.1.853-.3 1.2s-.483.617-.85.81-.8.29-1.3.29zm5.996 0c-.44 0-.873-.077-1.3-.23-.42-.153-.773-.367-1.06-.64l.34-.7c.327.267.657.47.99.61.334.133.677.2 1.03.2.487 0 .867-.133 1.14-.4.274-.273.41-.647.41-1.12 0-.3-.063-.563-.19-.79-.12-.227-.293-.403-.52-.53-.22-.133-.48-.2-.78-.2-.326 0-.623.067-.89.2-.266.127-.5.32-.7.58h-.62v-4.17h4.31v.75h-3.39v2.76l-.29-.03c.194-.273.44-.483.74-.63s.637-.22 1.01-.22c.454 0 .847.097 1.18.29.334.187.59.45.77.79s.27.733.27 1.18c0 .453-.1.853-.3 1.2s-.483.617-.85.81c-.366.193-.8.29-1.3.29zm3.986 1.12-.41-.31c.187-.2.314-.383.38-.55.067-.167.1-.34.1-.52l.26.19h-.79v-1.11h1.11v.77c0 .287-.046.553-.14.8-.093.247-.263.49-.51.73zm6.721-1.61v-6.11l.51.21-1.97 1.24v-.87l1.86-1.17h.53v6.7zm-1.57.42v-.77h4.07v.77zm5.816 1.82h-.75c.246-.593.44-1.147.58-1.66.14-.507.24-.99.3-1.45s.09-.917.09-1.37c0-.447-.03-.9-.09-1.36s-.16-.943-.3-1.45-.334-1.057-.58-1.65h.75c.413.767.71 1.513.89 2.24s.27 1.467.27 2.22c0 .507-.04 1.003-.12 1.49-.074.487-.197.977-.37 1.47-.167.493-.39 1-.67 1.52z"/><path d="m330.912 242v-4.344c0-.28-.008-.56-.024-.84-.008-.288-.032-.572-.072-.852h1.032l.108 1.236-.12.06c.144-.464.392-.82.744-1.068.36-.256.784-.384 1.272-.384.584 0 1.036.144 1.356.432.328.288.536.728.624 1.32l-.288-.18c.136-.48.396-.86.78-1.14.384-.288.844-.432 1.38-.432.672 0 1.176.2 1.512.6s.504 1.004.504 1.812v3.78h-1.092v-3.732c0-.536-.096-.928-.288-1.176-.184-.256-.484-.384-.9-.384-.488 0-.872.168-1.152.504-.28.328-.42.78-.42 1.356v3.432h-1.092v-3.732c0-.536-.096-.928-.288-1.176-.192-.256-.496-.384-.912-.384-.496 0-.884.168-1.164.504-.272.328-.408.78-.408 1.356v3.432zm15.597-.708c-.264.248-.604.444-1.02.588-.416.136-.84.204-1.272.204-.632 0-1.176-.124-1.632-.372s-.808-.604-1.056-1.068c-.248-.472-.372-1.032-.372-1.68 0-.624.12-1.172.36-1.644.248-.472.588-.84 1.02-1.104.432-.272.928-.408 1.488-.408.544 0 1.008.12 1.392.36.392.24.688.584.888 1.032.208.44.312.968.312 1.584v.192h-4.5v-.672h3.876l-.336.432c.016-.68-.116-1.2-.396-1.56s-.688-.54-1.224-.54c-.56 0-1 .2-1.32.6-.312.392-.468.944-.468 1.656 0 .768.168 1.348.504 1.74.336.384.832.576 1.488.576.352 0 .688-.056 1.008-.168.32-.12.624-.296.912-.528zm6.972.708h-1.08v-1.596l.144.144c-.136.488-.396.868-.78 1.14-.384.264-.848.396-1.392.396-.52 0-.984-.128-1.392-.384-.4-.264-.716-.632-.948-1.104-.224-.48-.336-1.036-.336-1.668s.112-1.18.336-1.644c.224-.472.536-.836.936-1.092.408-.256.876-.384 1.404-.384.544 0 1.008.136 1.392.408s.644.648.78 1.128l-.156.144v-4.32h1.092zm-2.868-.804c.568 0 1.008-.192 1.32-.576.312-.392.468-.948.468-1.668 0-.712-.156-1.264-.468-1.656-.304-.392-.744-.588-1.32-.588-.568 0-1.012.196-1.332.588-.32.384-.48.928-.48 1.632 0 .72.16 1.28.48 1.68.32.392.764.588 1.332.588zm4.686.804v-6.036h1.092v6.036zm-.096-8.64h1.284v1.188h-1.284zm5.162 8.724c-.728 0-1.276-.2-1.644-.6-.36-.408-.54-1.008-.54-1.8v-3.72h1.092v3.708c0 .52.104.904.312 1.152.216.24.544.36.984.36.512 0 .924-.164 1.236-.492.312-.336.468-.78.468-1.332v-3.396h1.104v6.036h-1.068v-1.296l.144-.06c-.16.472-.428.832-.804 1.08-.376.24-.804.36-1.284.36zm4.824-.084v-4.344c0-.28-.008-.56-.024-.84-.008-.288-.032-.572-.072-.852h1.032l.108 1.236-.12.06c.144-.464.392-.82.744-1.068.36-.256.784-.384 1.272-.384.584 0 1.036.144 1.356.432.328.288.536.728.624 1.32l-.288-.18c.136-.48.396-.86.78-1.14.384-.288.844-.432 1.38-.432.672 0 1.176.2 1.512.6s.504 1.004.504 1.812v3.78h-1.092v-3.732c0-.536-.096-.928-.288-1.176-.184-.256-.484-.384-.9-.384-.488 0-.872.168-1.152.504-.28.328-.42.78-.42 1.356v3.432h-1.092v-3.732c0-.536-.096-.928-.288-1.176-.192-.256-.496-.384-.912-.384-.496 0-.884.168-1.164.504-.272.328-.408.78-.408 1.356v3.432z"/><path d="m572.912 242v-8.832h1.092v8.832zm5.462.084c-.584 0-1.096-.128-1.536-.384-.432-.256-.768-.616-1.008-1.08-.24-.472-.36-1.028-.36-1.668 0-.632.12-1.184.36-1.656.24-.48.576-.848 1.008-1.104.44-.256.952-.384 1.536-.384.592 0 1.104.128 1.536.384s.768.624 1.008 1.104c.24.472.36 1.024.36 1.656 0 .64-.12 1.196-.36 1.668-.24.464-.576.824-1.008 1.08s-.944.384-1.536.384zm0-.888c.576 0 1.02-.188 1.332-.564.312-.384.468-.944.468-1.68 0-.728-.16-1.284-.48-1.668-.312-.384-.752-.576-1.32-.576-.56 0-1 .192-1.32.576s-.48.94-.48 1.668c0 .736.156 1.296.468 1.68.312.376.756.564 1.332.564zm4.382.804v-4.344c0-.28-.008-.56-.024-.84-.008-.288-.032-.572-.072-.852h1.032l.108 1.236-.12.072c.176-.472.456-.832.84-1.08.392-.256.84-.384 1.344-.384 1.448 0 2.172.804 2.172 2.412v3.78h-1.092v-3.72c0-.544-.108-.94-.324-1.188-.208-.256-.544-.384-1.008-.384-.536 0-.964.168-1.284.504-.32.328-.48.772-.48 1.332v3.456zm9.742 2.676c-.92 0-1.72-.204-2.4-.612l.192-.876c.376.216.732.372 1.068.468.344.096.724.144 1.14.144.568 0 .996-.152 1.284-.456.296-.296.444-.74.444-1.332v-1.608l.132-.12c-.096.312-.248.584-.456.816-.2.224-.448.4-.744.528-.288.128-.62.192-.996.192-.528 0-.996-.124-1.404-.372-.408-.256-.728-.608-.96-1.056-.224-.448-.336-.972-.336-1.572s.112-1.124.336-1.572c.232-.456.552-.808.96-1.056.408-.256.876-.384 1.404-.384.552 0 1.02.136 1.404.408.392.272.656.648.792 1.128l-.144-.096v-1.284h1.092v5.952c0 .92-.24 1.608-.72 2.064-.472.464-1.168.696-2.088.696zm-.096-3.756c.568 0 1.012-.184 1.332-.552.32-.376.48-.892.48-1.548s-.16-1.172-.48-1.548-.764-.564-1.332-.564-1.016.188-1.344.564-.492.892-.492 1.548c0 .664.164 1.18.492 1.548s.776.552 1.344.552z"/><path d="m88.86 260v-7.12h2.44c.76 0 1.4067.14 1.94.42.54.273.95.677 1.23 1.21.2867.527.43 1.167.43 1.92 0 .76-.1433 1.407-.43 1.94-.2867.527-.7.93-1.24 1.21-.5333.28-1.1767.42-1.93.42zm.92-.78h1.46c.9 0 1.5733-.233 2.02-.7.4533-.467.68-1.163.68-2.09 0-1.847-.9-2.77-2.7-2.77h-1.46zm8.2602.85c-.6066 0-1.0633-.167-1.37-.5-.3-.34-.45-.84-.45-1.5v-3.1h.91v3.09c0 .433.0867.753.26.96.18.2.4534.3.82.3.4267 0 .77-.137 1.03-.41.26-.28.39-.65.39-1.11v-2.83h.9198v5.03h-.8898v-1.08l.12-.05c-.1333.393-.3566.693-.67.9-.3133.2-.67.3-1.07.3zm4.0208-.07v-3.62c0-.233-.007-.467-.02-.7-.007-.24-.027-.477-.06-.71h.86l.11 1.25-.11-.04c.086-.44.283-.77.59-.99.313-.227.663-.34 1.05-.34.093 0 .176.007.25.02.08.007.153.02.22.04l-.01.83c-.167-.06-.354-.09-.56-.09-.34 0-.614.073-.82.22-.207.147-.357.333-.45.56-.094.227-.14.47-.14.73v2.84zm5.524.07c-.44 0-.83-.103-1.17-.31-.334-.213-.594-.513-.78-.9-.187-.393-.28-.853-.28-1.38s.093-.987.28-1.38c.193-.393.456-.7.79-.92.34-.227.726-.34 1.16-.34.453 0 .84.113 1.16.34.32.22.536.537.65.95l-.12.07v-1.23h.9v5.03h-.9v-1.26l.12.05c-.114.407-.33.723-.65.95-.32.22-.707.33-1.16.33zm.2-.74c.48 0 .846-.16 1.1-.48.26-.327.39-.79.39-1.39s-.13-1.06-.39-1.38c-.26-.327-.627-.49-1.1-.49-.474 0-.844.167-1.11.5-.267.333-.4.797-.4 1.39s.133 1.05.4 1.37c.266.32.636.48 1.11.48zm3.215-3.66v-.7h3.3v.7zm3.28 3.54v.76c-.114.033-.23.057-.35.07-.114.02-.237.03-.37.03-.494 0-.884-.14-1.17-.42-.28-.28-.42-.693-.42-1.24v-4.72l.91-.32v4.94c0 .26.036.463.11.61.08.14.183.24.31.3.133.053.283.08.45.08.093 0 .18-.007.26-.02s.17-.037.27-.07zm.984.79v-5.03h.91v5.03zm-.08-7.2h1.07v.99h-1.07zm4.632 7.27c-.487 0-.914-.107-1.28-.32-.36-.213-.64-.513-.84-.9-.2-.393-.3-.857-.3-1.39 0-.527.1-.987.3-1.38.2-.4.48-.707.84-.92.366-.213.793-.32 1.28-.32.493 0 .92.107 1.28.32s.64.52.84.92c.2.393.3.853.3 1.38 0 .533-.1.997-.3 1.39-.2.387-.48.687-.84.9s-.787.32-1.28.32zm0-.74c.48 0 .85-.157 1.11-.47.26-.32.39-.787.39-1.4 0-.607-.134-1.07-.4-1.39-.26-.32-.627-.48-1.1-.48-.467 0-.834.16-1.1.48-.267.32-.4.783-.4 1.39 0 .613.13 1.08.39 1.4.26.313.63.47 1.11.47zm3.651.67v-3.62c0-.233-.007-.467-.02-.7-.007-.24-.027-.477-.06-.71h.86l.09 1.03-.1.06c.147-.393.38-.693.7-.9.327-.213.7-.32 1.12-.32 1.207 0 1.81.67 1.81 2.01v3.15h-.91v-3.1c0-.453-.09-.783-.27-.99-.173-.213-.453-.32-.84-.32-.447 0-.803.14-1.07.42-.267.273-.4.643-.4 1.11v2.88zm5.749-1.11h1.11v1.11h-1.11zm0-3.81h1.11v1.12h-1.11zm7.18 4.5v-6.11l.51.21-1.97 1.24v-.87l1.86-1.17h.53v6.7zm-1.57.42v-.77h4.07v.77zm7.756.08c-.82 0-1.443-.307-1.87-.92-.427-.62-.64-1.527-.64-2.72s.21-2.097.63-2.71c.427-.62 1.053-.93 1.88-.93s1.45.31 1.87.93c.427.613.64 1.513.64 2.7 0 1.193-.213 2.1-.64 2.72s-1.05.93-1.87.93zm0-.76c.54 0 .937-.233 1.19-.7.26-.467.39-1.197.39-2.19s-.13-1.717-.39-2.17c-.253-.46-.65-.69-1.19-.69s-.94.23-1.2.69c-.253.46-.38 1.183-.38 2.17 0 .993.127 1.723.38 2.19.26.467.66.7 1.2.7zm5.996.76c-.82 0-1.443-.307-1.87-.92-.427-.62-.64-1.527-.64-2.72s.21-2.097.63-2.71c.427-.62 1.053-.93 1.88-.93s1.45.31 1.87.93c.427.613.64 1.513.64 2.7 0 1.193-.213 2.1-.64 2.72s-1.05.93-1.87.93zm0-.76c.54 0 .937-.233 1.19-.7.26-.467.39-1.197.39-2.19s-.13-1.717-.39-2.17c-.253-.46-.65-.69-1.19-.69s-.94.23-1.2.69c-.253.46-.38 1.183-.38 2.17 0 .993.127 1.723.38 2.19.26.467.66.7 1.2.7zm3.756.68v-3.62c0-.233-.006-.467-.02-.7-.006-.24-.026-.477-.06-.71h.86l.09 1.03-.1.05c.12-.387.327-.683.62-.89.3-.213.654-.32 1.06-.32.487 0 .864.12 1.13.36.274.24.447.607.52 1.1l-.24-.15c.114-.4.33-.717.65-.95.32-.24.704-.36 1.15-.36.56 0 .98.167 1.26.5s.42.837.42 1.51v3.15h-.91v-3.11c0-.447-.08-.773-.24-.98-.153-.213-.403-.32-.75-.32-.406 0-.726.14-.96.42-.233.273-.35.65-.35 1.13v2.86h-.91v-3.11c0-.447-.08-.773-.24-.98-.16-.213-.413-.32-.76-.32-.413 0-.736.14-.97.42-.226.273-.34.65-.34 1.13v2.86zm10.568.07c-.86 0-1.543-.217-2.05-.65l.29-.66c.267.207.543.36.83.46.293.093.613.14.96.14.36 0 .633-.06.82-.18.193-.127.29-.307.29-.54 0-.187-.067-.333-.2-.44-.127-.113-.34-.207-.64-.28l-.84-.2c-.433-.093-.767-.26-1-.5-.227-.24-.34-.53-.34-.87 0-.293.08-.553.24-.78.167-.227.397-.403.69-.53.293-.133.64-.2 1.04-.2.353 0 .687.057 1 .17.32.113.59.277.81.49l-.29.65c-.24-.2-.487-.347-.74-.44-.253-.1-.517-.15-.79-.15-.34 0-.607.067-.8.2-.187.133-.28.313-.28.54 0 .193.06.347.18.46s.31.203.57.27l.85.21c.48.1.833.267 1.06.5.227.227.34.52.34.88 0 .44-.18.793-.54 1.06-.36.26-.847.39-1.46.39z"/><path d="m330.86 260v-7.12h2.44c.76 0 1.407.14 1.94.42.54.273.95.677 1.23 1.21.287.527.43 1.167.43 1.92 0 .76-.143 1.407-.43 1.94-.287.527-.7.93-1.24 1.21-.533.28-1.177.42-1.93.42zm.92-.78h1.46c.9 0 1.573-.233 2.02-.7.453-.467.68-1.163.68-2.09 0-1.847-.9-2.77-2.7-2.77h-1.46zm8.26.85c-.606 0-1.063-.167-1.37-.5-.3-.34-.45-.84-.45-1.5v-3.1h.91v3.09c0 .433.087.753.26.96.18.2.454.3.82.3.427 0 .77-.137 1.03-.41.26-.28.39-.65.39-1.11v-2.83h.92v5.03h-.89v-1.08l.12-.05c-.133.393-.356.693-.67.9-.313.2-.67.3-1.07.3zm4.021-.07v-3.62c0-.233-.007-.467-.02-.7-.007-.24-.027-.477-.06-.71h.86l.11 1.25-.11-.04c.086-.44.283-.77.59-.99.313-.227.663-.34 1.05-.34.093 0 .176.007.25.02.08.007.153.02.22.04l-.01.83c-.167-.06-.354-.09-.56-.09-.34 0-.614.073-.82.22-.207.147-.357.333-.45.56-.094.227-.14.47-.14.73v2.84zm5.524.07c-.44 0-.83-.103-1.17-.31-.334-.213-.594-.513-.78-.9-.187-.393-.28-.853-.28-1.38s.093-.987.28-1.38c.193-.393.456-.7.79-.92.34-.227.726-.34 1.16-.34.453 0 .84.113 1.16.34.32.22.536.537.65.95l-.12.07v-1.23h.9v5.03h-.9v-1.26l.12.05c-.114.407-.33.723-.65.95-.32.22-.707.33-1.16.33zm.2-.74c.48 0 .846-.16 1.1-.48.26-.327.39-.79.39-1.39s-.13-1.06-.39-1.38c-.26-.327-.627-.49-1.1-.49-.474 0-.844.167-1.11.5-.267.333-.4.797-.4 1.39s.133 1.05.4 1.37c.266.32.636.48 1.11.48zm3.215-3.66v-.7h3.3v.7zm3.28 3.54v.76c-.114.033-.23.057-.35.07-.114.02-.237.03-.37.03-.494 0-.884-.14-1.17-.42-.28-.28-.42-.693-.42-1.24v-4.72l.91-.32v4.94c0 .26.036.463.11.61.08.14.183.24.31.3.133.053.283.08.45.08.093 0 .18-.007.26-.02s.17-.037.27-.07zm.984.79v-5.03h.91v5.03zm-.08-7.2h1.07v.99h-1.07zm4.632 7.27c-.487 0-.914-.107-1.28-.32-.36-.213-.64-.513-.84-.9-.2-.393-.3-.857-.3-1.39 0-.527.1-.987.3-1.38.2-.4.48-.707.84-.92.366-.213.793-.32 1.28-.32.493 0 .92.107 1.28.32s.64.52.84.92c.2.393.3.853.3 1.38 0 .533-.1.997-.3 1.39-.2.387-.48.687-.84.9s-.787.32-1.28.32zm0-.74c.48 0 .85-.157 1.11-.47.26-.32.39-.787.39-1.4 0-.607-.134-1.07-.4-1.39-.26-.32-.627-.48-1.1-.48-.467 0-.834.16-1.1.48-.267.32-.4.783-.4 1.39 0 .613.13 1.08.39 1.4.26.313.63.47 1.11.47zm3.651.67v-3.62c0-.233-.007-.467-.02-.7-.007-.24-.027-.477-.06-.71h.86l.09 1.03-.1.06c.147-.393.38-.693.7-.9.327-.213.7-.32 1.12-.32 1.207 0 1.81.67 1.81 2.01v3.15h-.91v-3.1c0-.453-.09-.783-.27-.99-.173-.213-.453-.32-.84-.32-.447 0-.803.14-1.07.42-.267.273-.4.643-.4 1.11v2.88zm5.749-1.11h1.11v1.11h-1.11zm0-3.81h1.11v1.12h-1.11zm5.17 4.92v-.7l2.48-2.72c.32-.36.553-.683.7-.97.153-.293.23-.587.23-.88 0-.373-.11-.66-.33-.86-.22-.207-.53-.31-.93-.31-.34 0-.677.07-1.01.21-.333.133-.663.333-.99.6l-.34-.7c.28-.267.633-.477 1.06-.63.433-.16.867-.24 1.3-.24.447 0 .83.077 1.15.23.32.147.57.363.75.65.18.28.27.613.27 1 0 .407-.093.797-.28 1.17-.18.373-.48.793-.9 1.26l-2.35 2.53-.08-.41h3.9v.77zm8.196.08c-.82 0-1.443-.307-1.87-.92-.427-.62-.64-1.527-.64-2.72s.21-2.097.63-2.71c.427-.62 1.053-.93 1.88-.93s1.45.31 1.87.93c.427.613.64 1.513.64 2.7 0 1.193-.213 2.1-.64 2.72s-1.05.93-1.87.93zm0-.76c.54 0 .937-.233 1.19-.7.26-.467.39-1.197.39-2.19s-.13-1.717-.39-2.17c-.253-.46-.65-.69-1.19-.69s-.94.23-1.2.69c-.253.46-.38 1.183-.38 2.17 0 .993.127 1.723.38 2.19.26.467.66.7 1.2.7zm5.996.76c-.82 0-1.443-.307-1.87-.92-.427-.62-.64-1.527-.64-2.72s.21-2.097.63-2.71c.427-.62 1.053-.93 1.88-.93s1.45.31 1.87.93c.427.613.64 1.513.64 2.7 0 1.193-.213 2.1-.64 2.72s-1.05.93-1.87.93zm0-.76c.54 0 .937-.233 1.19-.7.26-.467.39-1.197.39-2.19s-.13-1.717-.39-2.17c-.253-.46-.65-.69-1.19-.69s-.94.23-1.2.69c-.253.46-.38 1.183-.38 2.17 0 .993.127 1.723.38 2.19.26.467.66.7 1.2.7zm3.756.68v-3.62c0-.233-.006-.467-.02-.7-.006-.24-.026-.477-.06-.71h.86l.09 1.03-.1.05c.12-.387.327-.683.62-.89.3-.213.654-.32 1.06-.32.487 0 .864.12 1.13.36.274.24.447.607.52 1.1l-.24-.15c.114-.4.33-.717.65-.95.32-.24.704-.36 1.15-.36.56 0 .98.167 1.26.5s.42.837.42 1.51v3.15h-.91v-3.11c0-.447-.08-.773-.24-.98-.153-.213-.403-.32-.75-.32-.406 0-.726.14-.96.42-.233.273-.35.65-.35 1.13v2.86h-.91v-3.11c0-.447-.08-.773-.24-.98-.16-.213-.413-.32-.76-.32-.413 0-.736.14-.97.42-.226.273-.34.65-.34 1.13v2.86zm10.568.07c-.86 0-1.543-.217-2.05-.65l.29-.66c.267.207.543.36.83.46.293.093.613.14.96.14.36 0 .633-.06.82-.18.193-.127.29-.307.29-.54 0-.187-.067-.333-.2-.44-.127-.113-.34-.207-.64-.28l-.84-.2c-.433-.093-.767-.26-1-.5-.227-.24-.34-.53-.34-.87 0-.293.08-.553.24-.78.167-.227.397-.403.69-.53.293-.133.64-.2 1.04-.2.353 0 .687.057 1 .17.32.113.59.277.81.49l-.29.65c-.24-.2-.487-.347-.74-.44-.253-.1-.517-.15-.79-.15-.34 0-.607.067-.8.2-.187.133-.28.313-.28.54 0 .193.06.347.18.46s.31.203.57.27l.85.21c.48.1.833.267 1.06.5.227.227.34.52.34.88 0 .44-.18.793-.54 1.06-.36.26-.847.39-1.46.39z"/><path d="m572.86 260v-7.12h2.44c.76 0 1.407.14 1.94.42.54.273.95.677 1.23 1.21.287.527.43 1.167.43 1.92 0 .76-.143 1.407-.43 1.94-.287.527-.7.93-1.24 1.21-.533.28-1.177.42-1.93.42zm.92-.78h1.46c.9 0 1.573-.233 2.02-.7.453-.467.68-1.163.68-2.09 0-1.847-.9-2.77-2.7-2.77h-1.46zm8.26.85c-.606 0-1.063-.167-1.37-.5-.3-.34-.45-.84-.45-1.5v-3.1h.91v3.09c0 .433.087.753.26.96.18.2.454.3.82.3.427 0 .77-.137 1.03-.41.26-.28.39-.65.39-1.11v-2.83h.92v5.03h-.89v-1.08l.12-.05c-.133.393-.356.693-.67.9-.313.2-.67.3-1.07.3zm4.021-.07v-3.62c0-.233-.007-.467-.02-.7-.007-.24-.027-.477-.06-.71h.86l.11 1.25-.11-.04c.086-.44.283-.77.59-.99.313-.227.663-.34 1.05-.34.093 0 .176.007.25.02.08.007.153.02.22.04l-.01.83c-.167-.06-.354-.09-.56-.09-.34 0-.614.073-.82.22-.207.147-.357.333-.45.56-.094.227-.14.47-.14.73v2.84zm5.524.07c-.44 0-.83-.103-1.17-.31-.334-.213-.594-.513-.78-.9-.187-.393-.28-.853-.28-1.38s.093-.987.28-1.38c.193-.393.456-.7.79-.92.34-.227.726-.34 1.16-.34.453 0 .84.113 1.16.34.32.22.536.537.65.95l-.12.07v-1.23h.9v5.03h-.9v-1.26l.12.05c-.114.407-.33.723-.65.95-.32.22-.707.33-1.16.33zm.2-.74c.48 0 .846-.16 1.1-.48.26-.327.39-.79.39-1.39s-.13-1.06-.39-1.38c-.26-.327-.627-.49-1.1-.49-.474 0-.844.167-1.11.5-.267.333-.4.797-.4 1.39s.133 1.05.4 1.37c.266.32.636.48 1.11.48zm3.215-3.66v-.7h3.3v.7zm3.28 3.54v.76c-.114.033-.23.057-.35.07-.114.02-.237.03-.37.03-.494 0-.884-.14-1.17-.42-.28-.28-.42-.693-.42-1.24v-4.72l.91-.32v4.94c0 .26.036.463.11.61.08.14.183.24.31.3.133.053.283.08.45.08.093 0 .18-.007.26-.02s.17-.037.27-.07zm.984.79v-5.03h.91v5.03zm-.08-7.2h1.07v.99h-1.07zm4.632 7.27c-.487 0-.914-.107-1.28-.32-.36-.213-.64-.513-.84-.9-.2-.393-.3-.857-.3-1.39 0-.527.1-.987.3-1.38.2-.4.48-.707.84-.92.366-.213.793-.32 1.28-.32.493 0 .92.107 1.28.32s.64.52.84.92c.2.393.3.853.3 1.38 0 .533-.1.997-.3 1.39-.2.387-.48.687-.84.9s-.787.32-1.28.32zm0-.74c.48 0 .85-.157 1.11-.47.26-.32.39-.787.39-1.4 0-.607-.134-1.07-.4-1.39-.26-.32-.627-.48-1.1-.48-.467 0-.834.16-1.1.48-.267.32-.4.783-.4 1.39 0 .613.13 1.08.39 1.4.26.313.63.47 1.11.47zm3.651.67v-3.62c0-.233-.007-.467-.02-.7-.007-.24-.027-.477-.06-.71h.86l.09 1.03-.1.06c.147-.393.38-.693.7-.9.327-.213.7-.32 1.12-.32 1.207 0 1.81.67 1.81 2.01v3.15h-.91v-3.1c0-.453-.09-.783-.27-.99-.173-.213-.453-.32-.84-.32-.447 0-.803.14-1.07.42-.267.273-.4.643-.4 1.11v2.88zm5.749-1.11h1.11v1.11h-1.11zm0-3.81h1.11v1.12h-1.11zm7.29 4.99c-.467 0-.913-.073-1.34-.22-.427-.153-.787-.37-1.08-.65l.35-.7c.313.267.64.47.98.61.34.133.693.2 1.06.2.493 0 .867-.107 1.12-.32.253-.22.38-.543.38-.97 0-.42-.13-.733-.39-.94s-.657-.31-1.19-.31h-.85v-.77h.69c.513 0 .903-.11 1.17-.33s.4-.537.4-.95c0-.373-.113-.66-.34-.86-.22-.2-.533-.3-.94-.3-.347 0-.687.07-1.02.21-.327.133-.65.333-.97.6l-.34-.7c.287-.273.64-.487 1.06-.64.427-.153.863-.23 1.31-.23.44 0 .82.077 1.14.23.327.147.577.36.75.64.18.273.27.597.27.97 0 .44-.117.813-.35 1.12-.227.307-.54.517-.94.63l-.02-.1c.473.1.837.303 1.09.61s.38.697.38 1.17c0 .62-.217 1.11-.65 1.47-.427.353-1.003.53-1.73.53zm6.076.01c-.82 0-1.443-.307-1.87-.92-.427-.62-.64-1.527-.64-2.72s.21-2.097.63-2.71c.427-.62 1.053-.93 1.88-.93s1.45.31 1.87.93c.427.613.64 1.513.64 2.7 0 1.193-.213 2.1-.64 2.72s-1.05.93-1.87.93zm0-.76c.54 0 .937-.233 1.19-.7.26-.467.39-1.197.39-2.19s-.13-1.717-.39-2.17c-.253-.46-.65-.69-1.19-.69s-.94.23-1.2.69c-.253.46-.38 1.183-.38 2.17 0 .993.127 1.723.38 2.19.26.467.66.7 1.2.7zm5.996.76c-.82 0-1.443-.307-1.87-.92-.427-.62-.64-1.527-.64-2.72s.21-2.097.63-2.71c.427-.62 1.053-.93 1.88-.93s1.45.31 1.87.93c.427.613.64 1.513.64 2.7 0 1.193-.213 2.1-.64 2.72s-1.05.93-1.87.93zm0-.76c.54 0 .937-.233 1.19-.7.26-.467.39-1.197.39-2.19s-.13-1.717-.39-2.17c-.253-.46-.65-.69-1.19-.69s-.94.23-1.2.69c-.253.46-.38 1.183-.38 2.17 0 .993.127 1.723.38 2.19.26.467.66.7 1.2.7zm3.756.68v-3.62c0-.233-.006-.467-.02-.7-.006-.24-.026-.477-.06-.71h.86l.09 1.03-.1.05c.12-.387.327-.683.62-.89.3-.213.654-.32 1.06-.32.487 0 .864.12 1.13.36.274.24.447.607.52 1.1l-.24-.15c.114-.4.33-.717.65-.95.32-.24.704-.36 1.15-.36.56 0 .98.167 1.26.5s.42.837.42 1.51v3.15h-.91v-3.11c0-.447-.08-.773-.24-.98-.153-.213-.403-.32-.75-.32-.406 0-.726.14-.96.42-.233.273-.35.65-.35 1.13v2.86h-.91v-3.11c0-.447-.08-.773-.24-.98-.16-.213-.413-.32-.76-.32-.413 0-.736.14-.97.42-.226.273-.34.65-.34 1.13v2.86zm10.568.07c-.86 0-1.543-.217-2.05-.65l.29-.66c.267.207.543.36.83.46.293.093.613.14.96.14.36 0 .633-.06.82-.18.193-.127.29-.307.29-.54 0-.187-.067-.333-.2-.44-.127-.113-.34-.207-.64-.28l-.84-.2c-.433-.093-.767-.26-1-.5-.227-.24-.34-.53-.34-.87 0-.293.08-.553.24-.78.167-.227.397-.403.69-.53.293-.133.64-.2 1.04-.2.353 0 .687.057 1 .17.32.113.59.277.81.49l-.29.65c-.24-.2-.487-.347-.74-.44-.253-.1-.517-.15-.79-.15-.34 0-.607.067-.8.2-.187.133-.28.313-.28.54 0 .193.06.347.18.46s.31.203.57.27l.85.21c.48.1.833.267 1.06.5.227.227.34.52.34.88 0 .44-.18.793-.54 1.06-.36.26-.847.39-1.46.39z"/></g><path d="m89.494 196.4h5.724c1.368 0 2.574.264 3.618.792 1.056.516 1.872 1.248 2.448 2.196.588.948.882 2.052.882 3.312s-.294 2.364-.882 3.312c-.576.948-1.392 1.686-2.448 2.214-1.044.516-2.25.774-3.618.774h-5.724zm5.58 10.206c1.26 0 2.262-.348 3.006-1.044.756-.708 1.134-1.662 1.134-2.862s-.378-2.148-1.134-2.844c-.744-.708-1.746-1.062-3.006-1.062h-2.664v7.812zm18.849-7.29v9.684h-2.664v-1.152c-.372.42-.816.744-1.332.972-.516.216-1.074.324-1.674.324-1.272 0-2.28-.366-3.024-1.098s-1.116-1.818-1.116-3.258v-5.472h2.808v5.058c0 1.56.654 2.34 1.962 2.34.672 0 1.212-.216 1.62-.648.408-.444.612-1.098.612-1.962v-4.788zm5.284 1.278c.336-.468.786-.822 1.35-1.062.576-.24 1.236-.36 1.98-.36v2.592c-.312-.024-.522-.036-.63-.036-.804 0-1.434.228-1.89.684-.456.444-.684 1.116-.684 2.016v4.572h-2.808v-9.684h2.682zm8.852-1.422c1.5 0 2.652.36 3.456 1.08.804.708 1.206 1.782 1.206 3.222v5.526h-2.628v-1.206c-.528.9-1.512 1.35-2.952 1.35-.744 0-1.392-.126-1.944-.378-.54-.252-.954-.6-1.242-1.044s-.432-.948-.432-1.512c0-.9.336-1.608 1.008-2.124.684-.516 1.734-.774 3.15-.774h2.232c0-.612-.186-1.08-.558-1.404-.372-.336-.93-.504-1.674-.504-.516 0-1.026.084-1.53.252-.492.156-.912.372-1.26.648l-1.008-1.962c.528-.372 1.158-.66 1.89-.864.744-.204 1.506-.306 2.286-.306zm-.216 8.082c.48 0 .906-.108 1.278-.324.372-.228.636-.558.792-.99v-.99h-1.926c-1.152 0-1.728.378-1.728 1.134 0 .36.138.648.414.864.288.204.678.306 1.17.306zm13.666 1.278c-.276.204-.618.36-1.026.468-.396.096-.816.144-1.26.144-1.152 0-2.046-.294-2.682-.882-.624-.588-.936-1.452-.936-2.592v-3.978h-1.494v-2.16h1.494v-2.358h2.808v2.358h2.412v2.16h-2.412v3.942c0 .408.102.726.306.954.216.216.516.324.9.324.444 0 .822-.12 1.134-.36zm1.576-9.216h2.808v9.684h-2.808zm1.404-1.35c-.516 0-.936-.15-1.26-.45s-.486-.672-.486-1.116.162-.816.486-1.116.744-.45 1.26-.45.936.144 1.26.432.486.648.486 1.08c0 .468-.162.858-.486 1.17-.324.3-.744.45-1.26.45zm8.618 11.178c-1.02 0-1.938-.21-2.754-.63-.804-.432-1.434-1.026-1.89-1.782s-.684-1.614-.684-2.574.228-1.818.684-2.574 1.086-1.344 1.89-1.764c.816-.432 1.734-.648 2.754-.648s1.932.216 2.736.648c.804.42 1.434 1.008 1.89 1.764s.684 1.614.684 2.574-.228 1.818-.684 2.574-1.086 1.35-1.89 1.782c-.804.42-1.716.63-2.736.63zm0-2.304c.72 0 1.308-.24 1.764-.72.468-.492.702-1.146.702-1.962s-.234-1.464-.702-1.944c-.456-.492-1.044-.738-1.764-.738s-1.314.246-1.782.738c-.468.48-.702 1.128-.702 1.944s.234 1.47.702 1.962c.468.48 1.062.72 1.782.72zm13.073-7.668c1.2 0 2.166.36 2.898 1.08.744.72 1.116 1.788 1.116 3.204v5.544h-2.808v-5.112c0-.768-.168-1.338-.504-1.71-.336-.384-.822-.576-1.458-.576-.708 0-1.272.222-1.692.666-.42.432-.63 1.08-.63 1.944v4.788h-2.808v-9.684h2.682v1.134c.372-.408.834-.72 1.386-.936.552-.228 1.158-.342 1.818-.342z"/><path d="m95.524 344.216c-1.284 0-2.448-.276-3.492-.828-1.032-.564-1.848-1.338-2.448-2.322-.588-.996-.882-2.118-.882-3.366s.294-2.364.882-3.348c.6-.996 1.416-1.77 2.448-2.322 1.044-.564 2.214-.846 3.51-.846 1.092 0 2.076.192 2.952.576.888.384 1.632.936 2.232 1.656l-1.872 1.728c-.852-.984-1.908-1.476-3.168-1.476-.78 0-1.476.174-2.088.522-.612.336-1.092.81-1.44 1.422-.336.612-.504 1.308-.504 2.088s.168 1.476.504 2.088c.348.612.828 1.092 1.44 1.44.612.336 1.308.504 2.088.504 1.26 0 2.316-.498 3.168-1.494l1.872 1.728c-.6.732-1.344 1.29-2.232 1.674s-1.878.576-2.97.576zm16.483-9.9v9.684h-2.664v-1.152c-.372.42-.816.744-1.332.972-.516.216-1.074.324-1.674.324-1.272 0-2.28-.366-3.024-1.098s-1.116-1.818-1.116-3.258v-5.472h2.808v5.058c0 1.56.654 2.34 1.962 2.34.672 0 1.212-.216 1.62-.648.408-.444.612-1.098.612-1.962v-4.788zm5.284 1.278c.336-.468.786-.822 1.35-1.062.576-.24 1.236-.36 1.98-.36v2.592c-.312-.024-.522-.036-.63-.036-.804 0-1.434.228-1.89.684-.456.444-.684 1.116-.684 2.016v4.572h-2.808v-9.684h2.682zm14.945-1.278-4.086 9.684h-2.898l-4.068-9.684h2.898l2.682 6.588 2.772-6.588zm10.368 4.878c0 .036-.018.288-.054.756h-7.326c.132.6.444 1.074.936 1.422s1.104.522 1.836.522c.504 0 .948-.072 1.332-.216.396-.156.762-.396 1.098-.72l1.494 1.62c-.912 1.044-2.244 1.566-3.996 1.566-1.092 0-2.058-.21-2.898-.63-.84-.432-1.488-1.026-1.944-1.782s-.684-1.614-.684-2.574c0-.948.222-1.8.666-2.556.456-.768 1.074-1.362 1.854-1.782.792-.432 1.674-.648 2.646-.648.948 0 1.806.204 2.574.612s1.368.996 1.8 1.764c.444.756.666 1.638.666 2.646zm-5.022-2.898c-.636 0-1.17.18-1.602.54s-.696.852-.792 1.476h4.77c-.096-.612-.36-1.098-.792-1.458-.432-.372-.96-.558-1.584-.558z"/></g><path d="m88.5 537 127-126" stroke="#4b5375" stroke-linecap="round" stroke-opacity=".5"/><path d="m88.5222 536.853c-.0814.263.0665.543.3303.625.2639.081.5438-.067.6253-.331zm22.8108-80.853c0 1.473 1.194 2.667 2.667 2.667s2.667-1.194 2.667-2.667-1.194-2.667-2.667-2.667-2.667 1.194-2.667 2.667zm-21.8552 81.147 25.0002-81-.956-.294-24.9998 81z" fill="#b4bfff"/><path d="m214.5 410.5c.276 0 .5-.224.5-.5s-.224-.5-.5-.5zm-86.667-.5c0 1.473 1.194 2.667 2.667 2.667s2.667-1.194 2.667-2.667-1.194-2.667-2.667-2.667-2.667 1.194-2.667 2.667zm86.667-.5h-84v1h84z" fill="#b4bfff"/><path d="m215 410.5c-84 0-101 53.5-126 126" stroke="#b4bfff" stroke-linecap="round" stroke-width="2"/><rect height="129" rx="4.5" stroke="#3b4368" width="129" x="87.5" y="409.5"/></g></svg>